{
  "title" : "",
  "description" : "",
  "author" : "",
  "targetLoudness" : -18.0,
  "shouldApplyLoudnessNormalization" : true,
  "videoFormatFrameRate" : 30,
  "audioFormatSampleRate" : 44100,
  "width" : 1920.0,
  "height" : 1080.0,
  "version" : "3.0",
  "editRate" : 30,
  "authoringClientName" :  {
    "name" : "Camtasia",
    "platform" : "Windows",
    "version" : "19.0"
  },
  "sourceBin" : [
    {
      "id" : 1,
      "src" : "C:\\Users\\ungerw\\Documents\\Camtasia\\Aufn. 07-05-19_007.trec",
      "rect" : [0, 0, 1920, 1080],
      "lastMod" : "20190705T140429",
      "sourceTracks" : [
        {
          "range" : [0, 1525],
          "type" : 0,
          "editRate" : 30,
          "trackRect" : [0, 0, 1920, 1080],
          "sampleRate" : 0,
          "bitDepth" : 0,
          "numChannels" : 0,
          "integratedLUFS" : 100.0,
          "peakLevel" : -1.0,
          "metaData" : "2b7b6a00-7a1f-11e2-83d0-0017f200be7f;2b7b6aef-7a1f-11e2-83d0-0017f200be7f;2b7b6af0-7a1f-11e2-83d0-0017f200be7f;2b7b6af1-7a1f-11e2-83d0-0017f200be7f;2b7b6af2-7a1f-11e2-83d0-0017f200be7f;2b7b6af3-7a1f-11e2-83d0-0017f200be7f;2b7b6af5-7a1f-11e2-83d0-0017f200be7f;2b7b6af6-7a1f-11e2-83d0-0017f200be7f;2b7b6af7-7a1f-11e2-83d0-0017f200be7f;2b7b6af8-7a1f-11e2-83d0-0017f200be7f;2b7b6af9-7a1f-11e2-83d0-0017f200be7f;2b7b6afa-7a1f-11e2-83d0-0017f200be7f;"
        },
        {
          "range" : [0, 2228224],
          "type" : 2,
          "editRate" : 44100,
          "trackRect" : [0, 0, 0, 0],
          "sampleRate" : 44100,
          "bitDepth" : 16,
          "numChannels" : 2,
          "integratedLUFS" : -35.1321183401574,
          "peakLevel" : 0.20257568359375,
          "metaData" : ""
        },
        {
          "range" : [0, 2242560],
          "type" : 2,
          "editRate" : 44100,
          "trackRect" : [0, 0, 0, 0],
          "sampleRate" : 44100,
          "bitDepth" : 16,
          "numChannels" : 2,
          "integratedLUFS" : 0.0,
          "peakLevel" : 0.0,
          "metaData" : ""
        }
      ]
    },
    {
      "id" : 2,
      "src" : "C:\\Users\\ungerw\\Documents\\Camtasia\\Aufn. 07-05-19_012.trec",
      "rect" : [0, 0, 1920, 1080],
      "lastMod" : "20190705T141029",
      "sourceTracks" : [
        {
          "range" : [0, 1426],
          "type" : 0,
          "editRate" : 30,
          "trackRect" : [0, 0, 1920, 1080],
          "sampleRate" : 0,
          "bitDepth" : 0,
          "numChannels" : 0,
          "integratedLUFS" : 100.0,
          "peakLevel" : -1.0,
          "metaData" : "2b7b6a00-7a1f-11e2-83d0-0017f200be7f;2b7b6aef-7a1f-11e2-83d0-0017f200be7f;2b7b6af0-7a1f-11e2-83d0-0017f200be7f;2b7b6af1-7a1f-11e2-83d0-0017f200be7f;2b7b6af2-7a1f-11e2-83d0-0017f200be7f;2b7b6af3-7a1f-11e2-83d0-0017f200be7f;2b7b6af5-7a1f-11e2-83d0-0017f200be7f;2b7b6af6-7a1f-11e2-83d0-0017f200be7f;2b7b6af7-7a1f-11e2-83d0-0017f200be7f;2b7b6af8-7a1f-11e2-83d0-0017f200be7f;2b7b6af9-7a1f-11e2-83d0-0017f200be7f;2b7b6afa-7a1f-11e2-83d0-0017f200be7f;"
        },
        {
          "range" : [0, 2096128],
          "type" : 2,
          "editRate" : 44100,
          "trackRect" : [0, 0, 0, 0],
          "sampleRate" : 44100,
          "bitDepth" : 16,
          "numChannels" : 2,
          "integratedLUFS" : -37.9543503545454,
          "peakLevel" : 0.146728515625,
          "metaData" : ""
        },
        {
          "range" : [0, 2096128],
          "type" : 2,
          "editRate" : 44100,
          "trackRect" : [0, 0, 0, 0],
          "sampleRate" : 44100,
          "bitDepth" : 16,
          "numChannels" : 2,
          "integratedLUFS" : 0.0,
          "peakLevel" : 0.0,
          "metaData" : ""
        }
      ]
    },
    {
      "id" : 3,
      "src" : "C:\\Users\\ungerw\\Documents\\Camtasia\\Aufn. 07-05-19_015.trec",
      "rect" : [0, 0, 1920, 1080],
      "lastMod" : "20190705T141818",
      "sourceTracks" : [
        {
          "range" : [0, 1838],
          "type" : 0,
          "editRate" : 30,
          "trackRect" : [0, 0, 1920, 1080],
          "sampleRate" : 0,
          "bitDepth" : 0,
          "numChannels" : 0,
          "integratedLUFS" : 100.0,
          "peakLevel" : -1.0,
          "metaData" : "2b7b6a00-7a1f-11e2-83d0-0017f200be7f;2b7b6aef-7a1f-11e2-83d0-0017f200be7f;2b7b6af0-7a1f-11e2-83d0-0017f200be7f;2b7b6af1-7a1f-11e2-83d0-0017f200be7f;2b7b6af2-7a1f-11e2-83d0-0017f200be7f;2b7b6af3-7a1f-11e2-83d0-0017f200be7f;2b7b6af5-7a1f-11e2-83d0-0017f200be7f;2b7b6af6-7a1f-11e2-83d0-0017f200be7f;2b7b6af7-7a1f-11e2-83d0-0017f200be7f;2b7b6af8-7a1f-11e2-83d0-0017f200be7f;2b7b6af9-7a1f-11e2-83d0-0017f200be7f;2b7b6afa-7a1f-11e2-83d0-0017f200be7f;"
        },
        {
          "range" : [0, 2692096],
          "type" : 2,
          "editRate" : 44100,
          "trackRect" : [0, 0, 0, 0],
          "sampleRate" : 44100,
          "bitDepth" : 16,
          "numChannels" : 2,
          "integratedLUFS" : -36.0057999748181,
          "peakLevel" : 0.128143310546875,
          "metaData" : ""
        },
        {
          "range" : [0, 2700288],
          "type" : 2,
          "editRate" : 44100,
          "trackRect" : [0, 0, 0, 0],
          "sampleRate" : 44100,
          "bitDepth" : 16,
          "numChannels" : 2,
          "integratedLUFS" : 0.0,
          "peakLevel" : 0.0,
          "metaData" : ""
        }
      ]
    },
    {
      "id" : 4,
      "src" : "C:\\Users\\ungerw\\Documents\\Camtasia\\Aufn. 07-05-19_016.trec",
      "rect" : [0, 0, 1920, 1080],
      "lastMod" : "20190705T144052",
      "sourceTracks" : [
        {
          "range" : [0, 1393],
          "type" : 0,
          "editRate" : 30,
          "trackRect" : [0, 0, 1920, 1080],
          "sampleRate" : 0,
          "bitDepth" : 0,
          "numChannels" : 0,
          "integratedLUFS" : 100.0,
          "peakLevel" : -1.0,
          "metaData" : "2b7b6a00-7a1f-11e2-83d0-0017f200be7f;2b7b6aef-7a1f-11e2-83d0-0017f200be7f;2b7b6af0-7a1f-11e2-83d0-0017f200be7f;2b7b6af1-7a1f-11e2-83d0-0017f200be7f;2b7b6af2-7a1f-11e2-83d0-0017f200be7f;2b7b6af3-7a1f-11e2-83d0-0017f200be7f;2b7b6af5-7a1f-11e2-83d0-0017f200be7f;2b7b6af6-7a1f-11e2-83d0-0017f200be7f;2b7b6af7-7a1f-11e2-83d0-0017f200be7f;2b7b6af8-7a1f-11e2-83d0-0017f200be7f;2b7b6af9-7a1f-11e2-83d0-0017f200be7f;2b7b6afa-7a1f-11e2-83d0-0017f200be7f;"
        },
        {
          "range" : [0, 2030592],
          "type" : 2,
          "editRate" : 44100,
          "trackRect" : [0, 0, 0, 0],
          "sampleRate" : 44100,
          "bitDepth" : 16,
          "numChannels" : 2,
          "integratedLUFS" : -36.0770394517832,
          "peakLevel" : 0.1575927734375,
          "metaData" : ""
        },
        {
          "range" : [0, 2043904],
          "type" : 2,
          "editRate" : 44100,
          "trackRect" : [0, 0, 0, 0],
          "sampleRate" : 44100,
          "bitDepth" : 16,
          "numChannels" : 2,
          "integratedLUFS" : 0.0,
          "peakLevel" : 0.0,
          "metaData" : ""
        }
      ]
    },
    {
      "id" : 5,
      "src" : "C:\\Users\\ungerw\\Documents\\Camtasia\\Aufn. 07-05-19_017.trec",
      "rect" : [0, 0, 1920, 1080],
      "lastMod" : "20190705T144535",
      "sourceTracks" : [
        {
          "range" : [0, 1045],
          "type" : 0,
          "editRate" : 30,
          "trackRect" : [0, 0, 1920, 1080],
          "sampleRate" : 0,
          "bitDepth" : 0,
          "numChannels" : 0,
          "integratedLUFS" : 100.0,
          "peakLevel" : -1.0,
          "metaData" : "2b7b6a00-7a1f-11e2-83d0-0017f200be7f;2b7b6aef-7a1f-11e2-83d0-0017f200be7f;2b7b6af0-7a1f-11e2-83d0-0017f200be7f;2b7b6af1-7a1f-11e2-83d0-0017f200be7f;2b7b6af2-7a1f-11e2-83d0-0017f200be7f;2b7b6af3-7a1f-11e2-83d0-0017f200be7f;2b7b6af5-7a1f-11e2-83d0-0017f200be7f;2b7b6af6-7a1f-11e2-83d0-0017f200be7f;2b7b6af7-7a1f-11e2-83d0-0017f200be7f;2b7b6af8-7a1f-11e2-83d0-0017f200be7f;2b7b6af9-7a1f-11e2-83d0-0017f200be7f;2b7b6afa-7a1f-11e2-83d0-0017f200be7f;"
        },
        {
          "range" : [0, 1522688],
          "type" : 2,
          "editRate" : 44100,
          "trackRect" : [0, 0, 0, 0],
          "sampleRate" : 44100,
          "bitDepth" : 16,
          "numChannels" : 2,
          "integratedLUFS" : -36.3155818235658,
          "peakLevel" : 0.1500244140625,
          "metaData" : ""
        },
        {
          "range" : [0, 1537024],
          "type" : 2,
          "editRate" : 44100,
          "trackRect" : [0, 0, 0, 0],
          "sampleRate" : 44100,
          "bitDepth" : 16,
          "numChannels" : 2,
          "integratedLUFS" : 0.0,
          "peakLevel" : 0.0,
          "metaData" : ""
        }
      ]
    },
    {
      "id" : 6,
      "src" : "C:\\Users\\ungerw\\Documents\\Camtasia\\Aufn. 07-05-19_018.trec",
      "rect" : [0, 0, 1920, 1080],
      "lastMod" : "20190705T144909",
      "sourceTracks" : [
        {
          "range" : [0, 1404],
          "type" : 0,
          "editRate" : 30,
          "trackRect" : [0, 0, 1920, 1080],
          "sampleRate" : 0,
          "bitDepth" : 0,
          "numChannels" : 0,
          "integratedLUFS" : 100.0,
          "peakLevel" : -1.0,
          "metaData" : "2b7b6a00-7a1f-11e2-83d0-0017f200be7f;2b7b6aef-7a1f-11e2-83d0-0017f200be7f;2b7b6af0-7a1f-11e2-83d0-0017f200be7f;2b7b6af1-7a1f-11e2-83d0-0017f200be7f;2b7b6af2-7a1f-11e2-83d0-0017f200be7f;2b7b6af3-7a1f-11e2-83d0-0017f200be7f;2b7b6af5-7a1f-11e2-83d0-0017f200be7f;2b7b6af6-7a1f-11e2-83d0-0017f200be7f;2b7b6af7-7a1f-11e2-83d0-0017f200be7f;2b7b6af8-7a1f-11e2-83d0-0017f200be7f;2b7b6af9-7a1f-11e2-83d0-0017f200be7f;2b7b6afa-7a1f-11e2-83d0-0017f200be7f;"
        },
        {
          "range" : [0, 2052096],
          "type" : 2,
          "editRate" : 44100,
          "trackRect" : [0, 0, 0, 0],
          "sampleRate" : 44100,
          "bitDepth" : 16,
          "numChannels" : 2,
          "integratedLUFS" : -37.2529868981329,
          "peakLevel" : 0.12982177734375,
          "metaData" : ""
        },
        {
          "range" : [0, 2064384],
          "type" : 2,
          "editRate" : 44100,
          "trackRect" : [0, 0, 0, 0],
          "sampleRate" : 44100,
          "bitDepth" : 16,
          "numChannels" : 2,
          "integratedLUFS" : 0.0,
          "peakLevel" : 0.0,
          "metaData" : ""
        }
      ]
    },
    {
      "id" : 7,
      "src" : "C:\\Users\\ungerw\\Documents\\Camtasia\\Aufn. 07-05-19_019.trec",
      "rect" : [0, 0, 1920, 1080],
      "lastMod" : "20190705T145243",
      "sourceTracks" : [
        {
          "range" : [0, 503],
          "type" : 0,
          "editRate" : 30,
          "trackRect" : [0, 0, 1920, 1080],
          "sampleRate" : 0,
          "bitDepth" : 0,
          "numChannels" : 0,
          "integratedLUFS" : 100.0,
          "peakLevel" : -1.0,
          "metaData" : "2b7b6a00-7a1f-11e2-83d0-0017f200be7f;2b7b6aef-7a1f-11e2-83d0-0017f200be7f;2b7b6af0-7a1f-11e2-83d0-0017f200be7f;2b7b6af1-7a1f-11e2-83d0-0017f200be7f;2b7b6af2-7a1f-11e2-83d0-0017f200be7f;2b7b6af3-7a1f-11e2-83d0-0017f200be7f;2b7b6af5-7a1f-11e2-83d0-0017f200be7f;2b7b6af6-7a1f-11e2-83d0-0017f200be7f;2b7b6af7-7a1f-11e2-83d0-0017f200be7f;2b7b6af8-7a1f-11e2-83d0-0017f200be7f;2b7b6af9-7a1f-11e2-83d0-0017f200be7f;2b7b6afa-7a1f-11e2-83d0-0017f200be7f;"
        },
        {
          "range" : [0, 729088],
          "type" : 2,
          "editRate" : 44100,
          "trackRect" : [0, 0, 0, 0],
          "sampleRate" : 44100,
          "bitDepth" : 16,
          "numChannels" : 2,
          "integratedLUFS" : -37.3265208474982,
          "peakLevel" : 0.1015625,
          "metaData" : ""
        },
        {
          "range" : [0, 739328],
          "type" : 2,
          "editRate" : 44100,
          "trackRect" : [0, 0, 0, 0],
          "sampleRate" : 44100,
          "bitDepth" : 16,
          "numChannels" : 2,
          "integratedLUFS" : 0.0,
          "peakLevel" : 0.0,
          "metaData" : ""
        }
      ]
    },
    {
      "id" : 8,
      "src" : "C:\\Users\\ungerw\\Documents\\Camtasia\\Aufn. 07-05-19_020.trec",
      "rect" : [0, 0, 1920, 1080],
      "lastMod" : "20190705T145803",
      "sourceTracks" : [
        {
          "range" : [0, 2369],
          "type" : 0,
          "editRate" : 30,
          "trackRect" : [0, 0, 1920, 1080],
          "sampleRate" : 0,
          "bitDepth" : 0,
          "numChannels" : 0,
          "integratedLUFS" : 100.0,
          "peakLevel" : -1.0,
          "metaData" : "2b7b6a00-7a1f-11e2-83d0-0017f200be7f;2b7b6aef-7a1f-11e2-83d0-0017f200be7f;2b7b6af0-7a1f-11e2-83d0-0017f200be7f;2b7b6af1-7a1f-11e2-83d0-0017f200be7f;2b7b6af2-7a1f-11e2-83d0-0017f200be7f;2b7b6af3-7a1f-11e2-83d0-0017f200be7f;2b7b6af5-7a1f-11e2-83d0-0017f200be7f;2b7b6af6-7a1f-11e2-83d0-0017f200be7f;2b7b6af7-7a1f-11e2-83d0-0017f200be7f;2b7b6af8-7a1f-11e2-83d0-0017f200be7f;2b7b6af9-7a1f-11e2-83d0-0017f200be7f;2b7b6afa-7a1f-11e2-83d0-0017f200be7f;"
        },
        {
          "range" : [0, 3485696],
          "type" : 2,
          "editRate" : 44100,
          "trackRect" : [0, 0, 0, 0],
          "sampleRate" : 44100,
          "bitDepth" : 16,
          "numChannels" : 2,
          "integratedLUFS" : -36.8617197413878,
          "peakLevel" : 0.345428466796875,
          "metaData" : ""
        },
        {
          "range" : [0, 3482624],
          "type" : 2,
          "editRate" : 44100,
          "trackRect" : [0, 0, 0, 0],
          "sampleRate" : 44100,
          "bitDepth" : 16,
          "numChannels" : 2,
          "integratedLUFS" : 0.0,
          "peakLevel" : 0.0,
          "metaData" : ""
        }
      ]
    },
    {
      "id" : 9,
      "src" : "C:\\Users\\ungerw\\Documents\\Camtasia\\Aufn. 07-05-19_021.trec",
      "rect" : [0, 0, 1920, 1080],
      "lastMod" : "20190705T150245",
      "sourceTracks" : [
        {
          "range" : [0, 1692],
          "type" : 0,
          "editRate" : 30,
          "trackRect" : [0, 0, 1920, 1080],
          "sampleRate" : 0,
          "bitDepth" : 0,
          "numChannels" : 0,
          "integratedLUFS" : 100.0,
          "peakLevel" : -1.0,
          "metaData" : "2b7b6a00-7a1f-11e2-83d0-0017f200be7f;2b7b6aef-7a1f-11e2-83d0-0017f200be7f;2b7b6af0-7a1f-11e2-83d0-0017f200be7f;2b7b6af1-7a1f-11e2-83d0-0017f200be7f;2b7b6af2-7a1f-11e2-83d0-0017f200be7f;2b7b6af3-7a1f-11e2-83d0-0017f200be7f;2b7b6af5-7a1f-11e2-83d0-0017f200be7f;2b7b6af6-7a1f-11e2-83d0-0017f200be7f;2b7b6af7-7a1f-11e2-83d0-0017f200be7f;2b7b6af8-7a1f-11e2-83d0-0017f200be7f;2b7b6af9-7a1f-11e2-83d0-0017f200be7f;2b7b6afa-7a1f-11e2-83d0-0017f200be7f;"
        },
        {
          "range" : [0, 2470912],
          "type" : 2,
          "editRate" : 44100,
          "trackRect" : [0, 0, 0, 0],
          "sampleRate" : 44100,
          "bitDepth" : 16,
          "numChannels" : 2,
          "integratedLUFS" : -36.7993993339699,
          "peakLevel" : 0.12255859375,
          "metaData" : ""
        },
        {
          "range" : [0, 2485248],
          "type" : 2,
          "editRate" : 44100,
          "trackRect" : [0, 0, 0, 0],
          "sampleRate" : 44100,
          "bitDepth" : 16,
          "numChannels" : 2,
          "integratedLUFS" : 0.0,
          "peakLevel" : 0.0,
          "metaData" : ""
        }
      ]
    },
    {
      "id" : 10,
      "src" : "C:\\Users\\ungerw\\Documents\\Camtasia\\Aufn. 07-05-19_023.trec",
      "rect" : [0, 0, 1920, 1080],
      "lastMod" : "20190705T150914",
      "sourceTracks" : [
        {
          "range" : [0, 1435],
          "type" : 0,
          "editRate" : 30,
          "trackRect" : [0, 0, 1920, 1080],
          "sampleRate" : 0,
          "bitDepth" : 0,
          "numChannels" : 0,
          "integratedLUFS" : 100.0,
          "peakLevel" : -1.0,
          "metaData" : "2b7b6a00-7a1f-11e2-83d0-0017f200be7f;2b7b6aef-7a1f-11e2-83d0-0017f200be7f;2b7b6af0-7a1f-11e2-83d0-0017f200be7f;2b7b6af1-7a1f-11e2-83d0-0017f200be7f;2b7b6af2-7a1f-11e2-83d0-0017f200be7f;2b7b6af3-7a1f-11e2-83d0-0017f200be7f;2b7b6af5-7a1f-11e2-83d0-0017f200be7f;2b7b6af6-7a1f-11e2-83d0-0017f200be7f;2b7b6af7-7a1f-11e2-83d0-0017f200be7f;2b7b6af8-7a1f-11e2-83d0-0017f200be7f;2b7b6af9-7a1f-11e2-83d0-0017f200be7f;2b7b6afa-7a1f-11e2-83d0-0017f200be7f;"
        },
        {
          "range" : [0, 2096128],
          "type" : 2,
          "editRate" : 44100,
          "trackRect" : [0, 0, 0, 0],
          "sampleRate" : 44100,
          "bitDepth" : 16,
          "numChannels" : 2,
          "integratedLUFS" : -38.1534159959856,
          "peakLevel" : 0.1126708984375,
          "metaData" : ""
        },
        {
          "range" : [0, 2112512],
          "type" : 2,
          "editRate" : 44100,
          "trackRect" : [0, 0, 0, 0],
          "sampleRate" : 44100,
          "bitDepth" : 16,
          "numChannels" : 2,
          "integratedLUFS" : 0.0,
          "peakLevel" : 0.0,
          "metaData" : ""
        }
      ]
    },
    {
      "id" : 11,
      "src" : "C:\\Users\\ungerw\\Documents\\Camtasia\\Aufn. 07-05-19_026.trec",
      "rect" : [0, 0, 1920, 1080],
      "lastMod" : "20190705T151243",
      "sourceTracks" : [
        {
          "range" : [0, 700],
          "type" : 0,
          "editRate" : 30,
          "trackRect" : [0, 0, 1920, 1080],
          "sampleRate" : 0,
          "bitDepth" : 0,
          "numChannels" : 0,
          "integratedLUFS" : 100.0,
          "peakLevel" : -1.0,
          "metaData" : "2b7b6a00-7a1f-11e2-83d0-0017f200be7f;2b7b6aef-7a1f-11e2-83d0-0017f200be7f;2b7b6af0-7a1f-11e2-83d0-0017f200be7f;2b7b6af1-7a1f-11e2-83d0-0017f200be7f;2b7b6af2-7a1f-11e2-83d0-0017f200be7f;2b7b6af3-7a1f-11e2-83d0-0017f200be7f;2b7b6af5-7a1f-11e2-83d0-0017f200be7f;2b7b6af6-7a1f-11e2-83d0-0017f200be7f;2b7b6af7-7a1f-11e2-83d0-0017f200be7f;2b7b6af8-7a1f-11e2-83d0-0017f200be7f;2b7b6af9-7a1f-11e2-83d0-0017f200be7f;2b7b6afa-7a1f-11e2-83d0-0017f200be7f;"
        },
        {
          "range" : [0, 1015808],
          "type" : 2,
          "editRate" : 44100,
          "trackRect" : [0, 0, 0, 0],
          "sampleRate" : 44100,
          "bitDepth" : 16,
          "numChannels" : 2,
          "integratedLUFS" : -35.4888662780188,
          "peakLevel" : 0.1483154296875,
          "metaData" : ""
        },
        {
          "range" : [0, 1031168],
          "type" : 2,
          "editRate" : 44100,
          "trackRect" : [0, 0, 0, 0],
          "sampleRate" : 44100,
          "bitDepth" : 16,
          "numChannels" : 2,
          "integratedLUFS" : 0.0,
          "peakLevel" : 0.0,
          "metaData" : ""
        }
      ]
    },
    {
      "id" : 12,
      "src" : "C:\\Users\\ungerw\\Documents\\Camtasia\\Aufn. 07-12-19_001.trec",
      "rect" : [0, 0, 1920, 1080],
      "lastMod" : "20190712T145322",
      "sourceTracks" : [
        {
          "range" : [0, 874],
          "type" : 0,
          "editRate" : 30,
          "trackRect" : [0, 0, 1920, 1080],
          "sampleRate" : 0,
          "bitDepth" : 0,
          "numChannels" : 0,
          "integratedLUFS" : 100.0,
          "peakLevel" : -1.0,
          "metaData" : "2b7b6a00-7a1f-11e2-83d0-0017f200be7f;2b7b6aef-7a1f-11e2-83d0-0017f200be7f;2b7b6af0-7a1f-11e2-83d0-0017f200be7f;2b7b6af1-7a1f-11e2-83d0-0017f200be7f;2b7b6af2-7a1f-11e2-83d0-0017f200be7f;2b7b6af3-7a1f-11e2-83d0-0017f200be7f;2b7b6af5-7a1f-11e2-83d0-0017f200be7f;2b7b6af6-7a1f-11e2-83d0-0017f200be7f;2b7b6af7-7a1f-11e2-83d0-0017f200be7f;2b7b6af8-7a1f-11e2-83d0-0017f200be7f;2b7b6af9-7a1f-11e2-83d0-0017f200be7f;2b7b6afa-7a1f-11e2-83d0-0017f200be7f;"
        },
        {
          "range" : [0, 1280000],
          "type" : 2,
          "editRate" : 44100,
          "trackRect" : [0, 0, 0, 0],
          "sampleRate" : 44100,
          "bitDepth" : 16,
          "numChannels" : 2,
          "integratedLUFS" : -54.6859412909226,
          "peakLevel" : 0.08721923828125,
          "metaData" : ""
        },
        {
          "range" : [0, 1286144],
          "type" : 2,
          "editRate" : 44100,
          "trackRect" : [0, 0, 0, 0],
          "sampleRate" : 44100,
          "bitDepth" : 16,
          "numChannels" : 2,
          "integratedLUFS" : -1.79769313486232e+308,
          "peakLevel" : 0.0,
          "metaData" : ""
        }
      ]
    }
  ],
  "timeline" : {
    "id" : 13,
    "sceneTrack" : {
      "scenes" : [
        {
          "duration" : 469.333333333333,
          "title" : "",
          "type" : "",
          "csml" : {
            "tracks" : [
              {
                "trackIndex" : 0,
                "medias" : [
                  {
                    "id" : 14,
                    "_type" : "UnifiedMedia",
                    "video" : 
                        {
                          "id" : 15,
                          "_type" : "ScreenVMFile",
                          "src" : 1,
                          "trackNumber" : 0,
                          "attributes" : {
                            "ident" : "Aufn. 07-05-19_007"
                          },
                          "parameters" : {
                            "cursorScale" : {
                              "type" : "double",
                              "defaultValue" : 1.0,
                              "interp" : "linr"
                            },
                            "cursorOpacity" : {
                              "type" : "double",
                              "defaultValue" : 1.0,
                              "interp" : "linr"
                            }
                          },
                          "effects" : [

                          ],
                          "start" : 0,
                          "duration" : 1445,
                          "mediaStart" : 58,
                          "mediaDuration" : 1445,
                          "scalar" : 1,
                          "animationTracks" : {

                          }
                        },
                    "audio" : 
                        {
                          "id" : 16,
                          "_type" : "AMFile",
                          "src" : 1,
                          "trackNumber" : 2,
                          "attributes" : {
                            "ident" : "",
                            "sampleRate" : 44100,
                            "bitDepth" : 16,
                            "gain" : 1.0,
                            "mixToMono" : false
                          },
                            "channelNumber" : "0,1",
                          "effects" : [

                          ],
                          "start" : 0,
                          "duration" : 1445,
                          "mediaStart" : 58,
                          "mediaDuration" : 1445,
                          "scalar" : 1,
                          "animationTracks" : {

                          }
                        }
,
                    "start" : 0,
                    "duration" : 1445,
                    "mediaStart" : 0,
                    "mediaDuration" : 1525,
                    "scalar" : 1,
                    "metadata" : {
                      "AutoAppliedSmartFocus" : "False",
                      "WinSubProjectDisplayName" : "",
                      "clipSpeedAttribute" : false
                    }
                  },
                  {
                    "id" : 17,
                    "_type" : "UnifiedMedia",
                    "video" : 
                        {
                          "id" : 18,
                          "_type" : "ScreenVMFile",
                          "src" : 2,
                          "trackNumber" : 0,
                          "attributes" : {
                            "ident" : "Aufn. 07-05-19_012"
                          },
                          "parameters" : {
                            "cursorScale" : {
                              "type" : "double",
                              "defaultValue" : 1.0,
                              "interp" : "linr"
                            },
                            "cursorOpacity" : {
                              "type" : "double",
                              "defaultValue" : 1.0,
                              "interp" : "linr"
                            }
                          },
                          "effects" : [

                          ],
                          "start" : 1445,
                          "duration" : 1360,
                          "mediaStart" : 51,
                          "mediaDuration" : 1360,
                          "scalar" : 1,
                          "animationTracks" : {

                          }
                        },
                    "audio" : 
                        {
                          "id" : 19,
                          "_type" : "AMFile",
                          "src" : 2,
                          "trackNumber" : 2,
                          "attributes" : {
                            "ident" : "",
                            "sampleRate" : 44100,
                            "bitDepth" : 16,
                            "gain" : 1.0,
                            "mixToMono" : false
                          },
                            "channelNumber" : "0,1",
                          "effects" : [

                          ],
                          "start" : 1445,
                          "duration" : 1360,
                          "mediaStart" : 51,
                          "mediaDuration" : 1360,
                          "scalar" : 1,
                          "animationTracks" : {

                          }
                        }
,
                    "start" : 1445,
                    "duration" : 1360,
                    "mediaStart" : 0,
                    "mediaDuration" : 1426,
                    "scalar" : 1,
                    "metadata" : {
                      "AutoAppliedSmartFocus" : "False",
                      "WinSubProjectDisplayName" : "",
                      "clipSpeedAttribute" : false
                    }
                  },
                  {
                    "id" : 20,
                    "_type" : "UnifiedMedia",
                    "video" : 
                        {
                          "id" : 21,
                          "_type" : "ScreenVMFile",
                          "src" : 3,
                          "trackNumber" : 0,
                          "attributes" : {
                            "ident" : "Aufn. 07-05-19_015"
                          },
                          "parameters" : {
                            "cursorScale" : {
                              "type" : "double",
                              "defaultValue" : 1.0,
                              "interp" : "linr"
                            },
                            "cursorOpacity" : {
                              "type" : "double",
                              "defaultValue" : 1.0,
                              "interp" : "linr"
                            }
                          },
                          "effects" : [

                          ],
                          "start" : 2805,
                          "duration" : 1811,
                          "mediaStart" : 11,
                          "mediaDuration" : 1811,
                          "scalar" : 1,
                          "animationTracks" : {

                          }
                        },
                    "audio" : 
                        {
                          "id" : 22,
                          "_type" : "AMFile",
                          "src" : 3,
                          "trackNumber" : 2,
                          "attributes" : {
                            "ident" : "",
                            "sampleRate" : 44100,
                            "bitDepth" : 16,
                            "gain" : 1.0,
                            "mixToMono" : false
                          },
                            "channelNumber" : "0,1",
                          "effects" : [

                          ],
                          "start" : 2805,
                          "duration" : 1811,
                          "mediaStart" : 11,
                          "mediaDuration" : 1811,
                          "scalar" : 1,
                          "animationTracks" : {

                          }
                        }
,
                    "start" : 2805,
                    "duration" : 1811,
                    "mediaStart" : 0,
                    "mediaDuration" : 1837,
                    "scalar" : 1,
                    "metadata" : {
                      "AutoAppliedSmartFocus" : "False",
                      "WinSubProjectDisplayName" : "",
                      "clipSpeedAttribute" : false
                    }
                  },
                  {
                    "id" : 23,
                    "_type" : "UnifiedMedia",
                    "video" : 
                        {
                          "id" : 24,
                          "_type" : "ScreenVMFile",
                          "src" : 4,
                          "trackNumber" : 0,
                          "attributes" : {
                            "ident" : "Aufn. 07-05-19_016"
                          },
                          "parameters" : {
                            "cursorScale" : {
                              "type" : "double",
                              "defaultValue" : 1.0,
                              "interp" : "linr"
                            },
                            "cursorOpacity" : {
                              "type" : "double",
                              "defaultValue" : 1.0,
                              "interp" : "linr"
                            }
                          },
                          "effects" : [

                          ],
                          "start" : 4616,
                          "duration" : 1330,
                          "mediaStart" : 39,
                          "mediaDuration" : 1330,
                          "scalar" : 1,
                          "animationTracks" : {

                          }
                        },
                    "audio" : 
                        {
                          "id" : 25,
                          "_type" : "AMFile",
                          "src" : 4,
                          "trackNumber" : 2,
                          "attributes" : {
                            "ident" : "",
                            "sampleRate" : 44100,
                            "bitDepth" : 16,
                            "gain" : 1.0,
                            "mixToMono" : false
                          },
                            "channelNumber" : "0,1",
                          "effects" : [

                          ],
                          "start" : 4616,
                          "duration" : 1330,
                          "mediaStart" : 39,
                          "mediaDuration" : 1330,
                          "scalar" : 1,
                          "animationTracks" : {

                          }
                        }
,
                    "start" : 4616,
                    "duration" : 1330,
                    "mediaStart" : 0,
                    "mediaDuration" : 1390,
                    "scalar" : 1,
                    "metadata" : {
                      "AutoAppliedSmartFocus" : "False",
                      "WinSubProjectDisplayName" : "",
                      "clipSpeedAttribute" : false
                    }
                  },
                  {
                    "id" : 26,
                    "_type" : "UnifiedMedia",
                    "video" : 
                        {
                          "id" : 27,
                          "_type" : "ScreenVMFile",
                          "src" : 5,
                          "trackNumber" : 0,
                          "attributes" : {
                            "ident" : "Aufn. 07-05-19_017"
                          },
                          "parameters" : {
                            "cursorScale" : {
                              "type" : "double",
                              "defaultValue" : 1.0,
                              "interp" : "linr"
                            },
                            "cursorOpacity" : {
                              "type" : "double",
                              "defaultValue" : 1.0,
                              "interp" : "linr"
                            }
                          },
                          "effects" : [

                          ],
                          "start" : 5946,
                          "duration" : 981,
                          "mediaStart" : 22,
                          "mediaDuration" : 981,
                          "scalar" : 1,
                          "animationTracks" : {

                          }
                        },
                    "audio" : 
                        {
                          "id" : 28,
                          "_type" : "AMFile",
                          "src" : 5,
                          "trackNumber" : 2,
                          "attributes" : {
                            "ident" : "",
                            "sampleRate" : 44100,
                            "bitDepth" : 16,
                            "gain" : 1.0,
                            "mixToMono" : false
                          },
                            "channelNumber" : "0,1",
                          "effects" : [

                          ],
                          "start" : 5946,
                          "duration" : 981,
                          "mediaStart" : 22,
                          "mediaDuration" : 981,
                          "scalar" : 1,
                          "animationTracks" : {

                          }
                        }
,
                    "start" : 5946,
                    "duration" : 981,
                    "mediaStart" : 0,
                    "mediaDuration" : 1045,
                    "scalar" : 1,
                    "metadata" : {
                      "AutoAppliedSmartFocus" : "False",
                      "WinSubProjectDisplayName" : "",
                      "clipSpeedAttribute" : false
                    }
                  },
                  {
                    "id" : 29,
                    "_type" : "UnifiedMedia",
                    "video" : 
                        {
                          "id" : 30,
                          "_type" : "ScreenVMFile",
                          "src" : 6,
                          "trackNumber" : 0,
                          "attributes" : {
                            "ident" : "Aufn. 07-05-19_018"
                          },
                          "parameters" : {
                            "cursorScale" : {
                              "type" : "double",
                              "defaultValue" : 1.0,
                              "interp" : "linr"
                            },
                            "cursorOpacity" : {
                              "type" : "double",
                              "defaultValue" : 1.0,
                              "interp" : "linr"
                            }
                          },
                          "effects" : [

                          ],
                          "start" : 6927,
                          "duration" : 1003,
                          "mediaStart" : 30,
                          "mediaDuration" : 1003,
                          "scalar" : 1,
                          "animationTracks" : {

                          }
                        },
                    "audio" : 
                        {
                          "id" : 31,
                          "_type" : "AMFile",
                          "src" : 6,
                          "trackNumber" : 2,
                          "attributes" : {
                            "ident" : "",
                            "sampleRate" : 44100,
                            "bitDepth" : 16,
                            "gain" : 1.0,
                            "mixToMono" : false
                          },
                            "channelNumber" : "0,1",
                          "effects" : [

                          ],
                          "start" : 6927,
                          "duration" : 1003,
                          "mediaStart" : 30,
                          "mediaDuration" : 1003,
                          "scalar" : 1,
                          "animationTracks" : {

                          }
                        }
,
                    "start" : 6927,
                    "duration" : 1003,
                    "mediaStart" : 0,
                    "mediaDuration" : 1404,
                    "scalar" : 1,
                    "metadata" : {
                      "AutoAppliedSmartFocus" : "False",
                      "WinSubProjectDisplayName" : "",
                      "clipSpeedAttribute" : false
                    }
                  },
                  {
                    "id" : 32,
                    "_type" : "UnifiedMedia",
                    "video" : 
                        {
                          "id" : 33,
                          "_type" : "ScreenVMFile",
                          "src" : 7,
                          "trackNumber" : 0,
                          "attributes" : {
                            "ident" : "Aufn. 07-05-19_019"
                          },
                          "parameters" : {
                            "cursorScale" : {
                              "type" : "double",
                              "defaultValue" : 1.0,
                              "interp" : "linr"
                            },
                            "cursorOpacity" : {
                              "type" : "double",
                              "defaultValue" : 1.0,
                              "interp" : "linr"
                            }
                          },
                          "effects" : [

                          ],
                          "start" : 7930,
                          "duration" : 420,
                          "mediaStart" : 51,
                          "mediaDuration" : 420,
                          "scalar" : 1,
                          "animationTracks" : {

                          }
                        },
                    "audio" : 
                        {
                          "id" : 34,
                          "_type" : "AMFile",
                          "src" : 7,
                          "trackNumber" : 2,
                          "attributes" : {
                            "ident" : "",
                            "sampleRate" : 44100,
                            "bitDepth" : 16,
                            "gain" : 1.0,
                            "mixToMono" : false
                          },
                            "channelNumber" : "0,1",
                          "effects" : [

                          ],
                          "start" : 7930,
                          "duration" : 420,
                          "mediaStart" : 51,
                          "mediaDuration" : 420,
                          "scalar" : 1,
                          "animationTracks" : {

                          }
                        }
,
                    "start" : 7930,
                    "duration" : 420,
                    "mediaStart" : 0,
                    "mediaDuration" : 503,
                    "scalar" : 1,
                    "metadata" : {
                      "AutoAppliedSmartFocus" : "False",
                      "WinSubProjectDisplayName" : "",
                      "clipSpeedAttribute" : false
                    }
                  },
                  {
                    "id" : 35,
                    "_type" : "UnifiedMedia",
                    "video" : 
                        {
                          "id" : 36,
                          "_type" : "ScreenVMFile",
                          "src" : 8,
                          "trackNumber" : 0,
                          "attributes" : {
                            "ident" : "Aufn. 07-05-19_020"
                          },
                          "parameters" : {
                            "cursorScale" : {
                              "type" : "double",
                              "defaultValue" : 1.0,
                              "interp" : "linr"
                            },
                            "cursorOpacity" : {
                              "type" : "double",
                              "defaultValue" : 1.0,
                              "interp" : "linr"
                            }
                          },
                          "effects" : [

                          ],
                          "start" : 8350,
                          "duration" : 997,
                          "mediaStart" : 24,
                          "mediaDuration" : 997,
                          "scalar" : 1,
                          "animationTracks" : {

                          }
                        },
                    "audio" : 
                        {
                          "id" : 37,
                          "_type" : "AMFile",
                          "src" : 8,
                          "trackNumber" : 2,
                          "attributes" : {
                            "ident" : "",
                            "sampleRate" : 44100,
                            "bitDepth" : 16,
                            "gain" : 1.0,
                            "mixToMono" : false
                          },
                            "channelNumber" : "0,1",
                          "effects" : [

                          ],
                          "start" : 8350,
                          "duration" : 997,
                          "mediaStart" : 24,
                          "mediaDuration" : 997,
                          "scalar" : 1,
                          "animationTracks" : {

                          }
                        }
,
                    "start" : 8350,
                    "duration" : 997,
                    "mediaStart" : 0,
                    "mediaDuration" : 2369,
                    "scalar" : 1,
                    "metadata" : {
                      "AutoAppliedSmartFocus" : "False",
                      "WinSubProjectDisplayName" : "",
                      "clipSpeedAttribute" : false
                    }
                  },
                  {
                    "id" : 38,
                    "_type" : "UnifiedMedia",
                    "video" : 
                        {
                          "id" : 39,
                          "_type" : "ScreenVMFile",
                          "src" : 8,
                          "trackNumber" : 0,
                          "attributes" : {
                            "ident" : "Aufn. 07-05-19_020"
                          },
                          "parameters" : {
                            "cursorScale" : {
                              "type" : "double",
                              "defaultValue" : 1.0,
                              "interp" : "linr"
                            },
                            "cursorOpacity" : {
                              "type" : "double",
                              "defaultValue" : 1.0,
                              "interp" : "linr"
                            }
                          },
                          "effects" : [

                          ],
                          "start" : 9347,
                          "duration" : 1132,
                          "mediaStart" : 1210,
                          "mediaDuration" : 1132,
                          "scalar" : 1,
                          "animationTracks" : {

                          }
                        },
                    "audio" : 
                        {
                          "id" : 40,
                          "_type" : "AMFile",
                          "src" : 8,
                          "trackNumber" : 2,
                          "attributes" : {
                            "ident" : "",
                            "sampleRate" : 44100,
                            "bitDepth" : 16,
                            "gain" : 1.0,
                            "mixToMono" : false
                          },
                            "channelNumber" : "0,1",
                          "effects" : [

                          ],
                          "start" : 9347,
                          "duration" : 1132,
                          "mediaStart" : 1210,
                          "mediaDuration" : 1132,
                          "scalar" : 1,
                          "animationTracks" : {

                          }
                        }
,
                    "start" : 9347,
                    "duration" : 1132,
                    "mediaStart" : 0,
                    "mediaDuration" : 2369,
                    "scalar" : 1,
                    "metadata" : {
                      "AutoAppliedSmartFocus" : "False",
                      "WinSubProjectDisplayName" : "",
                      "clipSpeedAttribute" : false
                    }
                  },
                  {
                    "id" : 41,
                    "_type" : "UnifiedMedia",
                    "video" : 
                        {
                          "id" : 42,
                          "_type" : "ScreenVMFile",
                          "src" : 9,
                          "trackNumber" : 0,
                          "attributes" : {
                            "ident" : "Aufn. 07-05-19_021"
                          },
                          "parameters" : {
                            "cursorScale" : {
                              "type" : "double",
                              "defaultValue" : 1.0,
                              "interp" : "linr"
                            },
                            "cursorOpacity" : {
                              "type" : "double",
                              "defaultValue" : 1.0,
                              "interp" : "linr"
                            }
                          },
                          "effects" : [

                          ],
                          "start" : 10479,
                          "duration" : 1624,
                          "mediaStart" : 43,
                          "mediaDuration" : 1624,
                          "scalar" : 1,
                          "animationTracks" : {

                          }
                        },
                    "audio" : 
                        {
                          "id" : 43,
                          "_type" : "AMFile",
                          "src" : 9,
                          "trackNumber" : 2,
                          "attributes" : {
                            "ident" : "",
                            "sampleRate" : 44100,
                            "bitDepth" : 16,
                            "gain" : 1.0,
                            "mixToMono" : false
                          },
                            "channelNumber" : "0,1",
                          "effects" : [

                          ],
                          "start" : 10479,
                          "duration" : 1624,
                          "mediaStart" : 43,
                          "mediaDuration" : 1624,
                          "scalar" : 1,
                          "animationTracks" : {

                          }
                        }
,
                    "start" : 10479,
                    "duration" : 1624,
                    "mediaStart" : 0,
                    "mediaDuration" : 1691,
                    "scalar" : 1,
                    "metadata" : {
                      "AutoAppliedSmartFocus" : "False",
                      "WinSubProjectDisplayName" : "",
                      "clipSpeedAttribute" : false
                    }
                  },
                  {
                    "id" : 44,
                    "_type" : "UnifiedMedia",
                    "video" : 
                        {
                          "id" : 45,
                          "_type" : "ScreenVMFile",
                          "src" : 10,
                          "trackNumber" : 0,
                          "attributes" : {
                            "ident" : "Aufn. 07-05-19_023"
                          },
                          "parameters" : {
                            "cursorScale" : {
                              "type" : "double",
                              "defaultValue" : 1.0,
                              "interp" : "linr"
                            },
                            "cursorOpacity" : {
                              "type" : "double",
                              "defaultValue" : 1.0,
                              "interp" : "linr"
                            }
                          },
                          "effects" : [

                          ],
                          "start" : 12103,
                          "duration" : 1368,
                          "mediaStart" : 22,
                          "mediaDuration" : 1368,
                          "scalar" : 1,
                          "animationTracks" : {

                          }
                        },
                    "audio" : 
                        {
                          "id" : 46,
                          "_type" : "AMFile",
                          "src" : 10,
                          "trackNumber" : 2,
                          "attributes" : {
                            "ident" : "",
                            "sampleRate" : 44100,
                            "bitDepth" : 16,
                            "gain" : 1.0,
                            "mixToMono" : false
                          },
                            "channelNumber" : "0,1",
                          "effects" : [

                          ],
                          "start" : 12103,
                          "duration" : 1368,
                          "mediaStart" : 22,
                          "mediaDuration" : 1368,
                          "scalar" : 1,
                          "animationTracks" : {

                          }
                        }
,
                    "start" : 12103,
                    "duration" : 1368,
                    "mediaStart" : 0,
                    "mediaDuration" : 1435,
                    "scalar" : 1,
                    "metadata" : {
                      "AutoAppliedSmartFocus" : "False",
                      "WinSubProjectDisplayName" : "",
                      "clipSpeedAttribute" : false
                    }
                  },
                  {
                    "id" : 47,
                    "_type" : "UnifiedMedia",
                    "video" : 
                        {
                          "id" : 48,
                          "_type" : "ScreenVMFile",
                          "src" : 11,
                          "trackNumber" : 0,
                          "attributes" : {
                            "ident" : "Aufn. 07-05-19_026"
                          },
                          "parameters" : {
                            "cursorScale" : {
                              "type" : "double",
                              "defaultValue" : 1.0,
                              "interp" : "linr"
                            },
                            "cursorOpacity" : {
                              "type" : "double",
                              "defaultValue" : 1.0,
                              "interp" : "linr"
                            }
                          },
                          "effects" : [

                          ],
                          "start" : 13471,
                          "duration" : 609,
                          "mediaStart" : 68,
                          "mediaDuration" : 609,
                          "scalar" : 1,
                          "animationTracks" : {

                          }
                        },
                    "audio" : 
                        {
                          "id" : 49,
                          "_type" : "AMFile",
                          "src" : 11,
                          "trackNumber" : 2,
                          "attributes" : {
                            "ident" : "",
                            "sampleRate" : 44100,
                            "bitDepth" : 16,
                            "gain" : 1.0,
                            "mixToMono" : false
                          },
                            "channelNumber" : "0,1",
                          "effects" : [

                          ],
                          "start" : 13471,
                          "duration" : 609,
                          "mediaStart" : 68,
                          "mediaDuration" : 609,
                          "scalar" : 1,
                          "animationTracks" : {

                          }
                        }
,
                    "start" : 13471,
                    "duration" : 609,
                    "mediaStart" : 0,
                    "mediaDuration" : 700,
                    "scalar" : 1,
                    "metadata" : {
                      "AutoAppliedSmartFocus" : "False",
                      "WinSubProjectDisplayName" : "",
                      "clipSpeedAttribute" : false
                    }
                  }
                ]
              },
              {
                "trackIndex" : 1,
                "medias" : [
                  {
                    "id" : 50,
                    "_type" : "AMFile",
                    "src" : 1,
                    "trackNumber" : 1,
                    "attributes" : {
                      "ident" : "Aufn. 07-05-19_007",
                      "sampleRate" : 44100,
                      "bitDepth" : 16,
                      "gain" : 1.0,
                      "mixToMono" : true
                    },
                      "channelNumber" : "0,1",
                    "effects" : [
                        {
                          "effectName" : "NoiseReduction",
                          "category" : "categoryAudioEffects",
                          "parameters" : {
                            "denoiserAmount" : 20.0,
                            "denoiserThreshold" : 0.0,
                            "noiseProfile" : "JflZQDai6z5WkTM+5TI/PSvvQzzz4s47maunOzs+5zuePzs8pipCPMJINjvS0Bc9rUgWO7YK/jrm\r\n5C47osKTOqUTxzo6wpA6Y1RlOkgA+Tmyr6Q5DhMTOlIFSDog4+k51FVGOpEU1Tl3E486X3YwOjW9\r\nBDpsbNM5Gn+ZOUHBTznTBlU539CiOYrM7DijAXY5XvrjOS6DOjkkYUs5TYISOUyYUTkmDUk55dl0\r\nOa7ChzlUObU4dStLOd0CiTnjSAA5a5g9ORrpVDgga+c4A0nuODKU7zgMoi45U/KaOb/2MzngNcg4\r\nski+OJRmIjkUIjs5eC+aOAbeBzlq6Sw5p1LwOCeZzzjmfyQ5C2wlOSywNzmCEfs4HH5DOUt00DjC\r\nVEA5SWbEOJs9ijgaVsQ4qH4nOQabMTkAZJk4mKTpOGBN8zjNmnc4/ze5OBQBYzi2gCw4TnxZOPYa\r\nkThwe5w401hVOEdQxzhFjoc42rGROK7wVzhMtJo4iGG5OB7CNjmXFwQ5+pz2OBIz6TgL3oQ42DzL\r\nODCFhDi+OCM5NUKSOM+AGzgkOYA4wbmIOL2iljgo15436BQdOB7BDjg0bzw4v+15OBZI8Dc3Y843\r\negnqN2BynDerNd83LukPOKILqjcNqdw3bjr3N3MEKzgVja037BfeN/SmUze2a2M3wKfMN+eU6Del\r\n3sU3tvSMNzB+sTewUsg3E5EIOC/tZThoy/A38pQLOALa8zdwi4s3I1eTN5Y7jTfbSPE3yHkuOI+m\r\nWTiKFsQ3BE+mOPKbvzcZ5QE4aa1YOHzlkzcQWCg44RyDNwahBjhYRIk3hrrON35T7Da+TYA3EmWp\r\nNwdMUTeIh4Y33v+BN+XjcTesfng3SxseOKV5QTemrUo3RE+KN7/PxDd5f7g3Xaw5Nxz+9TY9lmE3\r\nXTg0N4iwgDcwWX43QDduN9EHMjcgB3g3BamVNwcaWDcsXD03lSukN3nb0zY8C9A3VqckN8RhHDha\r\nYiU3zXyfN9QrMjfSqjo3L3UZNyXLUjdzNFU3rKjnNt/1TjeKn0M3jMUnN7ruujZgt+Q2TWGYN5yj\r\nSDdE+zs3WgWKN8VAfzY9png3tA2UN0aZDjf4NZM3TLcKN6VRTjfSjNA2Lf+CN85ZszaL/dQ2tDzN\r\nNhfS1DbvUww3jnQqNy36IzdKYUo3Q+DHNlMyBjdGyzU30xRBN/qm6za4r+s2MaaAN1CqMzdvybI2\r\nx0ubNqHCxzY+0Yw35zOXNrLM6jaIyrY22gnSNi9lxzY0Rk83gWUBN3O8bjfEgak2Z843N22wXTec\r\nZuU2mNPGNt8eOzdDDQ43xjjZNmKlHzdwnlI3NWIaNzEW/DZqOso2WukRNxW7JDcJdBM31pBwNuBD\r\n6TbzDpg261TKNsZqqzZ+O682NLDZNvSJBTeUP1c2RqKzNtxPgzbDRzs23QDfNvYRrDYhEKo2os/T\r\nNra4qTbGd3o2YuTlNqbT/zbHK8Q2rzziNrhQ1zbgYM42SsMRN5tuNDfi7u82jf64Ni01FTe46Ms2\r\nXUuXNpLnPDe74oQ2JBuxNm2k6Tb6T5U2v7fgNpf0Pzd+BdE2mhV/Nj3yOzfcF0Y3aBIBN9efnjY4\r\ntXI2by0pN7c1EDcZ8MY2NK+lNoTNEjac17M2CoPJNnqVlTZwO6o2DGuFNsuSLTZxxsM2glEdN9Kh\r\nyjZeBrY2DnPLNkgl5DZzGtU2UT5oNpZTADdFbkQ2PvSaNgomJjeCGO02lBo9N5I+IDdgks027lGu\r\nNu3nuTbRSfk2mgvSNnIQizaCZKg2lb6DNmjU3DbaHJ42+irTNu/AgjaNYOE2gVtjNu2g0jbeno02\r\npqhwNiIkszYOQpc2ZpEmNxV3LjfVBG82WuXLNscBOzZKI6g2U/OqNgDW6zbyfb020N2uNiDtgjaC\r\nqmk2ZJ6ANmlkKjYCEz02GayINoVCHjcGXpE2razoNlhKOjaYAyc2hKCUNr3VUjZ/izY2tR4DNzZZ\r\noTYw3o02n/nkNhU+izatqjo2q1iPNiarVjaip6o2pz6hNsS4sTZc2mQ26H3dNccYlzZnO5g2CHxg\r\nNkBPVTYsx1w2DJZsNkbngjbbunU2BwlkNls1jDYfpow2Uug1Nl9IETYQ5C42oNAeNr144zaSHHE2\r\nMVF6Nhw+oDams/E1S6H8Ni6WfzbiplU2ZCDoNqO0fDYhDSA2zKKfNkuLyDbEquc2Z+qWNgL6DTam\r\n3bQ2gPJHNm3MhTZiZho2wtWFNm8ajDbDZNs22w8tNp+fNDZshSQ2MrMwNn6WBDaSSIE2PGhONkRD\r\nVDahtYo2eUSJNr76tDZIq1o2LxFWNnG/gjbm+m02tKVvNhXCjTZbEJ82ehytNaXIDzZyjjo2kOu0\r\nNhJGGDaXCpc2gYouNmPbATZTEzc2Ghx8Nqx3cTYdhvA1rfstNnY0EzYR+qI1K3FaNtKcijZBqjc2\r\n7sH7NY4AYjZgT6Y2VrjoNRofLDZGNIA2cOcFNoNgTzaIXAM2hVoENrulczZQEGw2PuETNqyKpTYS\r\nmF02Xg5INkk7mTbpCJc138RGNmb/mDbHyy42i9/4NXeqTzakLSk2ELtaNukECDZCauk15gz3Nbzc\r\nhDVzOcM15BHbNcBzFjbPFws2KCDzNe3ihzVXKAw21hioNYLV8jUG2ag1xVs9NVyAuzVCj7Q1lg7A\r\nNYjVQTZfqrA181tCNVHhpzX69mg1x411Ne7ZBDaYepo1OxuGNQlwvzWYrZ41z0anNSarcTUAIJk1\r\nPES8NbO+jDWiTcQ1BnOMNfL/ujWww0k2aWyHNbYuTjXescg1NZhcNf8sgzXqnOA1dAiZNYVwljW0\r\n7pM1/HCZNeipbjV8Dn41+oqLNbaidDWoxZ01oN2yNYioOjU6HZw1Mt6MNfItrDW0G5o1eWm8NUDP\r\nRTXgLag1MAtANb2yKTUgTsE1xzuPNXGuiTVOvtQ13hlPNp9/FTbB9ow1OIYGNnOpYzVdd541SR+D\r\nNRUdATYYiag1j0ykNW27jDVoTVc1++qLNfyCEjb9gYI1HbZjNel0hTX/gls1MrSfNWTyVzVcKFs1\r\nGvCMNWfqOjXyG7w1k9M9NSc6gTX07GM1mKiCNTLGoDUyHr41FJB3NWFlTjUeDZs1ne+ANUdf1zXU\r\nucA1aK8nNp98UjZ88Ig1EOgKNvOimTX20f40kgRqNdoOOza+lwQ2QwSTNZGCCzYm0qE1qZJZNRiG\r\nnjVeIjM1Xp8QNkpLXzWAGOg1JpcyNneK5jUy/ko14aLFNSjZOTU2riQ2pjvhNXwk8zWvg7s17q6V\r\nNnTwhDY56QY2JqMoNpO+1Tajtq82p9ZMNvt4lDYiTKs2bs8pNqEAkzYRhyI2FLNxNvK+GjZ1IDA3\r\ngB1INo9NcDa3SYs26g7SNehGUTX83v01GM5INj849zY6S4c2UdcMNg6Hljamb6M1+tACNpD0rjZT\r\nFGw1yR3rNe58FjUD42U1LWOINanTqTVe4Hw1OvelNaKigzUMZqg1uccmNa1EIjUHkA81tyuXNUD8\r\n/zV9UzU1jClUNaVaZDXgMxI1Q819NQRYdDXNj0w1a1TPNdO80jUQXYc1JHZHNdxbijVrS1o1r9Ol\r\nNfDOGjUETho1vqB4NnPJ6zUcTeY17vqkNQQ3CDYaRlE27xolNqupIjYxnJ82GQ3eNhYhbjaYZa81\r\nCCLvNQ9Dhja545w1ca2ENZdyozVuwd01y6w+NrksGTYLYKU2moaiNhQ8jzaywws1eee5Nf8EZTUs\r\nuo02TFSGNepOCTblKCs2/HkpNdHalDVybK81QBjfNd3KIzWJoEE14ShdNcMPszU/CUU16zkoNZlW\r\nOjVzfFE1cbCoNeqJcDVkH2s1jEE3NcQniDUMiH01aNohNuD8DDUhHYs1sNidNVSY2jR7htQ1luhh\r\nNc4FTzXBXmI1oKTMNHrG1TVVNEk1VEF4NaYdMDU5Kjg1RRI4NfsQdzX3NZo1PyZQNqeMGjZSiCY2\r\nttTeNliBAjfM0PI2NheFNtynyjaBh402nPkENkOisTYQMEI2hnyyNhsOQDb6a+Y1/aK6NWyzVzaW\r\nnFs2u8GQNpkPDzbCM302zXBuNiVeuDaN4Ho2ib/kNgRHqDZoiCU20rDhNX1GUjYXtDg295kUNvgA\r\n9TXHaUU13dOqNjI1ITfD6Y42HMPDNnJdZjYpsfY1yJUeNda/FTZaKVo3VbibNtnoBzb8RpA2Zu7W\r\nNkdyYDel+Dg2q1SJNgQkpDaKgp02M0GUNhwZ9TWKp0E1fOHeNlEEdDaasDc2yzFdN5LJ+TZ6apI1\r\nx5g+NQveizXVhHk17MOoNUT1ATY/0wo1p90SNSbWcDVFP7c1QoOcNba7eTZ+17c2e+/ZNcosdjX6\r\nHQ424O+mNrAoFzbxPAY2MoPPNTz2fjU064w1OYuENUUjnTVxHIk2zhLMNgQ1tTUqFWU2O1BhNv7D\r\n3zavZPk14SvgNdvhvTRQpdY1ZxSUNVy1VjX6HHk18Hd6NbxtwTRJg0o1NE4rNS4xozUjX0A1qqMG\r\nNf6xHjXygWM1fweANRJPZzWTAyg12RxvNfD9eDWvbB01DMiCNfIloTU7ZQg1VlmDNSeIYjUyg4E1\r\n7/FBNTIsHjWGfJU1MCZONV5SATWK0pQ1O6MANWg1vTU7fg810hq3NfoiizXcsmo1c1USNSn6SzVW\r\naz816AgrNd7zgTXUQTM1u9lFNU9SYDVFvT01eK6lNaQvczVUQog1JLZNNQyIozXUskk1Qnq6NeEd\r\nGzXGliA1xsOmNR1AOzXl7WQ1zx8INd0AbzViHQs1ZLYcNcDrOjXWyyQ1MvYnNZBQHzXuG5s17qne\r\nNYQMiTZomv42xPLKNjN83DV0/KA1/Mo/NarZeTa7xs02YtzcNaGFIDZukGc2n/oLNlIv2TZIxNk1\r\ncSUZNcaekTW5yQo2r2r7NiKX6zbGFA02GhCNNah7wDVXNZQ1YneWNSHZwTXjXmE2gyWVNbp05zUd\r\nzrk2jpWuNvlnETZl8Dw1T2gENTrwLjUnhYg1dVahNY3bdDWs6r00ZMRWNXFLGzUtYyg1Mj08Nd3o\r\nPTUlBy81FZlBNQVSDTXPh3I1k1A8NR52jjXunCk1Q9MONRGXLjV55lg1/n2vNJnDgDXiuPk0bkaw\r\nNFRS2TQjC3g1yZw7NTFlBjVAnxs1/Q1QNURBGjUdqW41kDysNEwMXDW5xig1aKRVNe8qaTUWZI41\r\nF40HNb1p3TUGqU011CQONa4XVjVDfb01HLgdNTxhNTWC1vQ0jpJONUC+KTUlaYo1FqcjNSegKzXB\r\nEz01c0BTNdh6GzXnNJ01FyI+NVIuezX8UHQ1lD+INdpAjjVaAn41+mAkNYHihDVgaS01oJQVNV1V\r\nQDXY4vE0xOaJNPF54zUquW01IRvxNfbmZjXkmVY15A3JNYj1gzWcND810J0xNbhtOTXb1fE00iPQ\r\nNQx0STXt9081ksQkNQPNIDU2hTE1tWA9NdjFKDVT5DU1bZUkNU1jijVwdSk1XhI6NQAAYTWEbTk8\r\nTxVyOrn42zorQ2k6y1TuOg1r/jrTq6g623ivOs4QjToQwZg6oZaeOntosjrq4kc67fOlOgBk4Dqc\r\nQIQ62OmJOnyjoDr2q7w6Td8/OkN7KzpJwZI6yCn+OmGJhzpiKMo62fApOpTsXDp63Rw6M6+JOt8a\r\npjo7trc6RcKNOtuh4jr+5po6HhHXOpLShzonsmo60mUgOu5gdjqdI4w6WO63OosIoTr5K6w66YGi\r\nOgTinDo+Z/g6MPBYOlTo4Dpq05c69gv/OiT2YDrTunM6AlNAOkAOjjpHpEY6LWA3OtIcDDr6WXk6\r\nAb8aOpK7XTroz3863BW4OjCvgzrwSPU5Y8a1Og4TNDprrJk6EasiOu7FZjrB33o69TWgOsNvGjqM\r\nAfU60DfZOkTBmjpLr5w6quGrOjZAmTq7sPk69KZpOvTywzr1Qqo6hOOXOmvNqDoKGCY6UYFvOhTg\r\nmTpL7H06H1pOOkwAxDpF9Qg6kSKROigzfzq/FKc6X2KAOo01zjrxIG06NDNmOsWrrDpqZWc6sQmB\r\nOh0PEjpHyII6wP2TOuJ47zq5ozA6FLCrOn74YTpS81k6L+GDOj0UmjpE8sg65a5+OjOkljpcz9w6\r\nVLyuOuAFaTrEV746nlDGOnIsxzruP3c6Qr6LOg70Tjq8l4k6hbN0OoDQRTqG4Yw6+yI6OrHQbDqc\r\nZPA6V0nbOihNgzpZi7Q6zHYROrIXAjsuVv46k3uPOrVkKDqZrGo6B+qBOlZiYzoSQiI6OY+SOoRP\r\nODpST+A6Kj7QOoe4QToNY546zenFOp1XATp0Vhg6TKVhOt8jJTrdd7Q6QLHCOu9VlTo45s866f/z\r\nOrQ5dTqAqcI6DqvfOmAPlDrYBBE6++FNOnWiMDoo1aw6g3XMOr8LVjo/5Jw6sp0KOxyhIjrmzTQ6\r\n2DddOmIokDpqhpU6g7orOoF7gzrYBFM6QwOWOjYIFjoXHxs6gugeOgQCmjpBQmk6o0JJOpquZzon\r\nV7w6fulNOopgFzr3LOY5txtNOjragDrqv5s6alobOh5AVzqS7qI6jOQjOy6jRjpDp4U6FTuJOkmB\r\nIToTfNg6zAR5OkuDTDoiQXg6uJhkOlbwgTrQcto6QBQRO0hTZjqRjdw6es8POh8rcDpWvz86/E5w\r\nOn3fETtHXAM7U9aIOmItjTqZrOo65rMyOo4cczoI83o6B4UTOgeWCDsklK46Lsc6OrKikzq+YA46\r\nH2IvOnwZMjpZHa06lvUyOsU7jjoQcLI6icVBOjQLhjp8qcU6ueBBOoQTXzpSe2M6PPVLOi0OiDr8\r\nByg60uuZOh6BVjqi9X86Nn2yOlQopTruqGk6tMDIOpQmizohN/45qgNFOt7/izpEB0o6Y64uOg2O\r\nNDr6I346YBNZOj0ZFDpm1oE60Ai6OqPw3DoiPb86KXgNO0Nkpjpp15w6tqhJOrahCTrahjA65mKD\r\nOngkzjoR2V46QIdOOo5Ikzrl8H46XnavOpY2kDqsgkA6MQbHOqQ5qzpvFRg7xBxLOhgCwTrdYVA6\r\nf7tUOglvLjrowXA6+HDdOl7cQTr9gJ06XY8NOsp7ODp7JS86BRymOn7QZTrKGFQ6PJtJOi7psjrf\r\nXSg6gsd4OqRzYjrrmCc6GX4xOsNGmDoUNJU6AQGQOtDPyDqfXLc6lKY2OrW/hDqNTY06AsyzOm1Z\r\nPzoVnZU6HnQPOs3gkDrwRW06v0ObOiYTUTocLlE6U1t+OucilzqptZs6T2OZOlxL0jqg5j86Zpt6\r\nOiDYbzp4azk63yCMOiCLhDqR21g6YNcHO8PjODq2R4s6QLw3OsSbWDodVGA6NbZxOpr3BzppK0E6\r\n3KsMOigz1jnMWaA66t2LOswZIDrld0w6hhM3OsazQzo835k6TZ+WOuKkejqxb186q8YzOo8HJTpl\r\n1ZE6Lp16OpEGSjqgxLg6H4mTOhqM7DmWvg87W5xsOmAmhjpxlZc6KLiBOhRr0TomYUo6UClOOr2D\r\noToYHIY6hBw2Olw/pTrRtq46Oa6SOjwRNzrwN2c6yThAOm6mtTrUxd86DoSYOhyq1DrmFLo6VLrI\r\nOm+cYTrLrI46X8LUOt/ZVjrzIJ86YGpjOsshEzo6iJ469paIOqBuJTq2jsQ6eOy1OjJbXzqoGMs6\r\nXJ6POpwrzzq+qY46drqTOn36ZzpgwZ86VWCGOrI2Izo7ZUY6dwIyOs0w5DqmyZI6mY6EOoVi4zqG\r\nuB46zeWzOvN6bDo0iFs6oKFSOiRuTDq4+4E6sVyNOqr9MTopLJc65F9sOuAvVDrAq2c6Sb+aOt9r\r\nwTqHzx46GnyROsqHlzrJg3o6v6qGOtgvnjp7vlY6DoxAOhWBLTor0zs7QK9fOsdlazqSEJ06FoGo\r\nOg1DiDr9zR06PYKLOr1dRzqDalE6MLN4OsADWzrZdEQ6/LpOOu0aLjq8Siw6HIdrOql3ijpQbVs6\r\nVqxMOhZktjpCyV067inCOkWaRzqQ+IQ6CvFROoTPuDosPaU6soohOw5QKDowQSQ614OtOi0+2zok\r\nATw6wvsvOhpg3zqC34E6vjRgOsi5fTp4Ync6ZLI2Ostrvzr8bZA6RG50OoBhhDrGHEU6LPS3Oly3\r\nODrI2wU7HZhcOlbRQzprPEc6ztAfOpt+jTowAyY6zo88OtceKzrf1Ig6fm+HOsrbyTpq/8k60m+K\r\nOjqxSDoNjpQ6SP9lOifC0Trji2g6qZGfOubTmToYUVY6EMhlOmSA1jke6q064C/BOiAZWTqmlY46\r\nFVhfOlOqeTrQ30E6J1swOumkSDqIJnQ6j+Y+OoQvqDrePpU6B9WZOm60VzoRLDU6R10yOv5CODoe\r\n2Dw6zqNFOvIcMTo9jKQ64GmAOrekbjrPXUc6xtGEOsZAwDqOEME6O/OCOgkfmDptT6Y6cw2KOvAp\r\nVzpgwac6zYqmOmDlpDpOipY6REzhOStcsTrZ7606ZSpFOo+Eizrrtog6P2yEOnDi7TqEeRw79qN1\r\nOrZWozrl2gA6+FRlOmFVVTpaFpg6A6ZEOgwOJzscuwA6F+csOjEC6Tpt4HI6EdBfOmIolTrKqoM6\r\nZIJAOiikjzo+oUc6WeRpOoanazoCX286kMcqOhHzxTk4xsI6o4tgOp7VQDroA4E6SkhSOvppNjrZ\r\nRVM6APxBOs+2Jzp21j86nsOgOhwFajqsTk46w7wpO8hBnjqOyrc6RccZOuT2VDrfh4A68h66ObbY\r\nizqYKUQ6bHWnOsDEmjrmDl86jOuVOg8vdjpzC5Y6osUcOpAhUzoE4so6Mo4xOt7UvzrY3G06zxYK\r\nOteoMTrIo2M6FEd+OinLGDpAthw6oV9sOjZp7TpsvdE5BtI3OpcCjDpRiZ46i2hyOokvozoQ5Cg6\r\ngMCyOcsZ5TnUcWc6XJzlOlRTwDogHHk6Del7On0fpDoycFU66d+eOkASPTqEf5g6ViFgOhZ1Zjq2\r\nIxI6H6pMOkwKizr0BDM6CMPYOgosVjpQ2ZY68zewOnGhTTo7KlI6XNiPOqZepzo90Fc6u9qGOlBr\r\ntDpwkTs694rzOgaaejqxpFs6co1EOrS6Rjo0U6s6RAyhOnJFWToDdhA60lRROhlkPTqVt2c6iQnL\r\nOluRnzr2Y5U6OxYJOklrxDo3QzY6swZNOuDqxDojfqM6PjgtOsc0eDrlJVg63qhROkRpczqgbic6\r\nfNuyOlobpDr83B062DttOnPNITp+Kc46ts1xOu0OFzqg6Ow5OyGdOitXpjqVTC06rcHhOQZ49TmE\r\n4oA6Xk8oOt/aRjp/tt85egfGOp42OTrVc504bC+TN2uKjTe/Ilw39tNLN8MNKjfmZRU3s6ClNtL/\r\nyjYXx8k29vjXNhpjujawcIw2ZmHNNt1sETY+MTk2iOdUNhoNCDbSX4Y2mlVvNs3/3DXqnEA27Vav\r\nNnWbXTbglhA2xEArNkdvijZ1kQA2rFYmNp3qKjYfPO81NksfOnAtLTq35iM4V4bqN1qSQzhvpg86\r\nChcCOvl0pzge0pg4TQ4YObfd3TnafAI6K6NLOUpmYThmVIQ4ZA3vOCpM2jj/uTk4VdEDObT5ezn/\r\nvIA5RafSOIya2DhrVew4PL7lOH+xZzmhYoU5pUZ3Obn4hzlK/1s5z9kFOQiz5DjlZms4ppnPOFrV\r\nETgEypo4RTrtOJBRkjh/B005vXQkOabgZDm5Swo6mE4WOvUMRTkOaQI4J0JQOE+UdznZUQ8675nx\r\nOTvejzkJ1w451FWHOD4PQTn/KjQ58G1kODKCHziqX2E4qeeGOFSCJTgGbtg4W2lnObNVTjkj/kQ5\r\nOdaXObZrjDk2GeE5VzKHOarPKzkpn4Q5AGozOGzXQzjveEY4xG+YNxhYLTlk0W45hcuFOFe2hDk8\r\nnuc51KVROcR3jjbiLSY5alMWORE6oTiCf2Q5qoVAOYAqsDjOhb45mVabObwgsDl+4gk6QOlVORVi\r\nRzn8a9s5+AKZOaF/bjlUghY5JMvTOFi82DQGybk0bDEaNfcTezVP7w013u8pNVSBTDXt0mI1Prde\r\nNdK3WDUwiaU11us3NQVY7TT04Sk1GAEENSbNbjUwD1Q1hLceNUczgTWKCpA1kUkrNZIrTDUWyfA0\r\nJLFKNVMIVDWayN40icAYNauvTDWmi1E1B1ZLNRa2TjXE3ug0xhjBNMmaFjXL/ak1/QQINWrTgDXs\r\nLj41SlxVNVW+czWSJP80DegtNXyqZTVbJVA1NmCgNdxoHjVLtGo1c3IlNelHRjWdz2o1KOotNXUp\r\nQTWr/yA12WkbNTb3AzWz3jg1X1zBNBhtAzVS2BA1Ww5LNZXnIjVSx1o1TBEONcn5HTXOUpM5M54j\r\nOts5lznD5jM5rz3iOZbbpjk0sE84AD9HOHsO0DgWWEk4+SCfOLTjrTnw76E5g01hOaLfmzkb9Ak4\r\n8JS1OaAAETpaYcg5MG/rOeX1cDm4Vww4RRbDNzjTRTiCRF44S34oOEnwXjhDCQo4Ln1rOQcZRDlu\r\npT05HI11OUMtVDWZzoM02qgbNRHLxDREuh01SIQeNZYfqzULCww1DFAFNVZWEjVkwSQ1tCIsNesh\r\n5zRwXBk1roJ+NQySBDX9sms1H8y7NBgiejViOlg1hvIANb1WyDRKtCY1kkGUNdjwDjWsiyI16RAI\r\nNSDkEjVuK7g1WlFfNXVjujSUshs1U1mRNfxaQjWyEjk1lO6+NMzHIzXbgZA0h74ONWh/7DS6gPg0\r\nERnONLWWhTVqDBQ1kqA8NXYvRjVNTwU1Wy3rNMTJ6jQRM840MJoUNZvblTVf2wk1Sc4+NeDtEjUn\r\nNzs1MGzwNE6aADXs+0o1YxQzNVD5JjUgGfY0wRwMNd2iIzWUPio1vyTINA6TzTSUnPc0K7RJNYe6\r\n6TTpOOI0aIouNSxTMzU5iZQ0hQNINTzMQTVxgFw0AMA4NbWBMTUP+3o1VmQzNZap3jRSfvY0IQJU\r\nNU2o/zR7fgM17u5PNQzAZzVR9mo0+A+UNLnnIzVcKTM19mpCNRzB+DRKgDg1AEBSNQ==",
                            "noiseTrainingType" : "default"
                          }
                        }
                    ],
                    "start" : 0,
                    "duration" : 1445,
                    "mediaStart" : 58,
                    "mediaDuration" : 1445,
                    "scalar" : 1,
                    "metadata" : {
                      "WinSubProjectDisplayName" : "",
                      "clipSpeedAttribute" : false
                    },
                    "animationTracks" : {

                    }
                  },
                  {
                    "id" : 51,
                    "_type" : "AMFile",
                    "src" : 2,
                    "trackNumber" : 1,
                    "attributes" : {
                      "ident" : "Aufn. 07-05-19_012",
                      "sampleRate" : 44100,
                      "bitDepth" : 16,
                      "gain" : 1.0,
                      "mixToMono" : true
                    },
                      "channelNumber" : "0,1",
                    "effects" : [
                        {
                          "effectName" : "NoiseReduction",
                          "category" : "categoryAudioEffects",
                          "parameters" : {
                            "denoiserAmount" : 20.0,
                            "denoiserThreshold" : 0.0,
                            "noiseProfile" : "scVPQCttsT7/Y3k+2mmiPPAwSTzHpVs7n74ZO/ZHCDuVCJ87AixSO6xUJzsoDSU77XYcO5yCADtV\r\n8rA6qQQgOva2NjpmzF06mXINOvzblzmfbOU52DdPOXRMZzqtALI5CcaNOaLjjTl8YH45rwJ9OcFX\r\nVzmPEkE5sqEHOc84HzmNasE47pOrOVek0zki2hc5MBk7Od2F4Dgv6wA5qropOVo09DjyFNw48QsK\r\nOR+m7jhLPXk4LZdVOQ8oiDhqGPA4m58fOeEh2DiFcPU4tFaMON5nwDg5CbM50Bn9OKhQFDmoB6s4\r\nymWcOcZvKTkvLLY43DTsOK6GrzjdQU053f15OU+f+Dh8UyM5mqnTONplWTh6D5w4ZaOxOJ56jTj4\r\nGSs4sogKOUDgsTjyLRM5/IVOOcpUcDiYDZg4wjukOBZWYjhe8ug40nNTOGevDzmc+4o4Lgw9OKQT\r\nGTi5WsA4gZ5sOBSVqjjMaRw45iDkOHckaTg2xhU4eFXfOJdrrTjQvUY55T+DOKQKHTi6oz84eGbX\r\nN2gBhziacLI44nEvOFJEPTgwpxA5w491OGOesDjTUBQ49ZNLOF1Epjhxeyo4zz4XOLTuqzeSmso3\r\n+z+ZN26QkjeojpE30ueTN/dwDTj+8bM343eSN6VziDdYGow3bIalN4BpUzcTwY03Nd3YNy0lFDis\r\n9pc3tuG1N8JTcDcCWNU3AE14NyEfgjeOTkY43HWXN3Z5jzc6sVE3ubXvN8ll7DdfVJ84CwIAONez\r\nsDeo6783N83ON3q1oTdg0yE4fyO6NwcCgziIxGE4SsEHONN3yDeR25w3Rz96N1V9LDfOomE3Yu5W\r\nN0rnkje/J4M3MJohNxNtqTdqqDw3aetxNza26zYE0JA3TPBbN4R6vzf4qWk3xfQ6N/R1Pjcu7x83\r\nXwonN2XUpDcWmIY3qWRENxGPKTcAKk438fmyNz9WKzcgQjI3JDBdNzDpRTeeHho4FiIyN5l+kDeZ\r\n/043aFlnNzZa/Da0XYk3pGA4N2GnVjfMjpU2MYWDN0UVBDdEoIg3lbQtN0KVCDc2TsE21k+8N8Zl\r\nojYsZSs3qNChN1e5HzcTpxI3OMKvNl9GXDcIYSQ3c3o2NwQSDjdHa4U3dac2N1pBQTfuURQ3/riX\r\nNqa6IjcMuR83ttUZN/yjYzdP6wU3UJiPNoiJDTfDlm82Za/9NlpK3zbssuQ2MdefNr0NKDedqiM3\r\n5qj1NpPgDjekRbY2hPvCNu04gjcOQkI32+XKNuC9vjZF5fs2PUmfNt2YYDaEz9k2N9ONNve9ATd9\r\nkuQ2NK4nN+j0Aze8jMI2pCpgN6s0IDdjL+E2dONANwIF4TZ9JPY2WBfvNlCz1jbd03o2OGS4Nt3H\r\nrza3l2s2XXx0Noe1gTbDmQY3/nWZNrndxTZT79U29v3VNsQcaDblluY2MmEcNvA7qzYvPag2HX/x\r\nNipt8ja2/0424px8NiFcdDaJ85E21uNtNiAZIzflD+42Gmc7N3w3XDd6UYI2jKueNkN3EDcResQ2\r\nOD70NklvQjY0VvA2yBm/NjybqTYIO0U2APSmNjTcjDb21X827dSLNqDujjYhJlU2EVymNmzZ9DYb\r\n+502IYULNlaT5DZVwtY2UqNxNv5vVTfosuE2UC1iNrINuzYeO642JjLMNklSvTZiMKw2lYUxNqIT\r\nrTYodW82fVhmNiqjnDbchh02/gOnNuIFrjbSihE3cJ+dNuWQlzaKE0Y3lFxTN7taqDfTgf42HiZt\r\nNg/E3zY+axs3HMHHNs63ETcDlNo2iBRJNlrlpDYg9LM2XpysNvTFqTZhzSE2ZwXQNsJ7ZTZIiso2\r\n+LyhNiAy4DYZhjQ3lLwDN0mXnTYuHRo2Ug+ENj1zYzYyNZg29qS9Ng7JsTYUMUA2DwgAN2Y00DZk\r\nTpU2fpeWNl6kfjaux4E2qhlRNlSvgDaIzhU3KTE9NikHhTYLsK82UJqRNsMlXzYwcmc2hGyHNrxR\r\nQjZuNTs2GcDwNoPWADesqTw2BpiCNhgoVjbXvzU23syxNobwGDbSTaE29HQqNtY0nDYbOZY2U2jG\r\nNo4CNja53kI2/nI/No7bdjZMk1E2BpHhNpKENTbT6S02N/kxNkUPRTZ3GC82WZMsNvoRQDYnb/E2\r\nfaa+NaQG2zYWFCc2m55nNt6ATDYxrFk2E4NyNmeDDDbFkHY2mVJnNn8XODbz/zk2tx5dNpwCwDbg\r\nQmI2ujcdNoserTZShbE2t6wtNpJalTZDkxc25EuVNqVqEjZR1lI2uDBDNgJmhzZE6i82P4uHNmfp\r\n7DUYYCk2PiSHNq+LNjZItO41uVVANk6FhTZ6Mj02Jt8YNvz8ATbMvyo2XOOLNbOhDzY3YKY2pOq4\r\nNgLUNDYEUEM2em7YNZYsLDa+hoA252UCNmSbsDXIcB02cS4vNksvezbEMVg2XYogNuM/Rza/ISw2\r\nfGmQNm6wLTb+jkA25B4ONj7NfDayuwM2IFhbNkhtQjZ+bCY2HHI5NlIFWjbkWgQ23/mZNnoMRDZM\r\n5Iw2EwU8NnB9yzajqe81LalNNg6/0TW01os2yonnNeBT0zUtDiM2dVABNm9m3DSlgSU19LZZNbk6\r\nojSwM5019t4RNcI4HjX63J42JYuhNm7NdDVGhY41sKDmNfdnsTWG3n01YpHrNW5QbzZ8tIM1XOxi\r\nNdnGHTYaD7c1L+XLNfBkETZW7So1KY18NaGGnDVf/S82KjePNfDr7DXlOCk1QYcpNpTfkzUAQG01\r\nxMSJNW77aTWOCi829jzXNfKArjXO9cM1w8VQNYZhljXcy3Y13h65NVhvIjWSCbE1d9QyNVn5ljXA\r\n4Wg1VfusNa+clDVXgJU1OFSONSvqkjUFJJs1C/UYNpgnlTV5SP00gu00NdL4WzUQY4M1EuQpNr4v\r\nZTXzS7g2ZMfINvGrmDXM+pY1HqmVNQZ5vDVSAIQ1Ov6ZNR20rDUPljw1NJCINX3YfDXf8do1aLxg\r\nNcun7DRLEFc1SQdfNVrXBDXiZ8Q0qYIeNh4U3zV8nvc0VgNoNbhd2DXi2Oo18MhENY7KqjWyD9Y1\r\nYJNNNYZqnDWf0p01+iO0NUyvvjRgWSg13sIENRrYVDUeRGM2OFsmNrGsOTaB6QM2RxqNNau9QzUi\r\njr41xgzyNVlnmzXgBIw1PiepNZushDVPWbw1gZHdNSmmVjWY7uM12KuYNfC8XjV6MIs149cHNr56\r\njDV3Eyw229SENsrnAzYoy6w1W13tNWjnTjakEs80zLJjNUFRRTWaBKc1+BJdNWd9hzUvKT01iMFs\r\nNjhvrTU1vGE187VnNZwnhjW+GTU1sU7pNE84lDUVPdM1ZLA+NQA0mDXsnX01BsQONZj2vTXjJLQ1\r\nD3yENUJE4DV+2EY1aLlaNW4bWzXQiRM2hPGjNh1X5zUdtRQ1fumzNWr+mzXyiCw1DnNoNaxcADX+\r\nTCU1c3vxNDIvWjXnwzc1ohg8NUY1HTWoF241+0coNRjxAjVGe/00NbqTNQyHHzVWDIw1go7nNEa1\r\nRDU2ns01l/PiNCXhNjXyYh81DKBcNRxm6DSUphM1eLZANSZGPDX2w4w0l4zUNRqt9jRzaeo0brAa\r\nNVn0EzUQUk41+iPQNfA8UTWfDlU1xK0gNrJyuDX0i4I1VGJONTyTLDWJi7k1e79ENbyrwTW0ixg2\r\nko97Nn2nMjUPBzs1gZhBNcidVDWeF5o2Sv5wNtJ3hDUbgTI2cL27NY1KcjXcuV418hpuNrxOmDbW\r\nUIE1NceBNXA97jVpFYU1b10CNTwH4jR/glg1rqdNNpzi0TU8rmQ184QjNc5zDjVgWqo1X6pVNQ5P\r\nNDVnNQE2Em02NtfbCjbqjSE246WfNfdiiDXoynY1C2UINohO/jXYM2413H8TNVK2KzUJfX01hKJS\r\nNS+EyzUrcL81q3OGNSYqBDWU7/80ClD1Nb8IJjVYCTo1MQ8aNenohTUnMek0ZNhiNcsrLTWaA1k1\r\n7c9aNVAvWTVq+uk00aJWNa/XhDU1ei41CI0rNdRlCTWtHrs0M9ksNVYuXzXMh+Y0N86PNfFkizUU\r\nTe80TDksNa2PUzUUBUE1AJxMNRlAwjRvNQU1+IkxNR5uNTVoriE1YC0sNQySFzUa6x01TE4lNmw0\r\nMDcXRxk35NCFNgCAbjYUSUA2v0TRNqIZRjZGplI2UEVhNrlGjjURnS42kELDNvojCjcttEM21EIN\r\nNibNtDUMfek2lBLiNtDhUjZhOpc2dpW0NpiniTZcK4w3Y3oAOBxm6jbgeG82YLw9NvEP/TYi/rM2\r\nbweVNlnx+jVs4SM25t55NRJBwzWHfBY1TYvTNDmK3DSoqQk1NoYENRmtQzX+2wc1yVGmNLRiATWe\r\naS41RTLMNObQFDX6+TA1vocNNWJN/jR8Meg0e7kGNfW9FDWkjvs0QpIlNXfe2DTcpxA1hIogNRs3\r\nhzQgI/A0KkYKNYX7VTXs5IE1D8lNNb3dAjXCT/U0tkyhNUpUtjVnnsc1Nt7zNeHMLTZo3401O/0m\r\nNXoCdDXWxAA27pTFNR7EuzX8Se81Jn9WNce5iTU7mnQ1FY/uNGLLwTWCSQo1gUSBNZOMNDXg4w02\r\n29CfNVS3/DRRb7I127f8Nb54gDUCg1w1wZBENaziqTUyy3Y1NvRMNfT7ZDbDgeU2CFRfNmxsMTY6\r\nuQE2+Ke1NdJ5SDUng6M2SC3sNSScJTbEwds1Nv8JNgDg8jVrnJU1AvteNdv7PjVWlBM206gjNol3\r\niDX1ce00ph7kNft62zVeLns1zgxXNUbukzUCmX41NufYNJqDwDX8dHE2hU3/NTp3QTWgF7k18x8H\r\nNZi0/TQWASg1J6OdNd6dOzWbzzk15nJaNeCZgjUqrGY1TL00Ndr5jjU8wBU1SyUZNRa+KTWnHQ81\r\n2fMCNXjdlzTur8U0JJLONNBUcjXhciQ1KgtvNXZz7zTgmAc1HUVMNVaZTzXFK+80tk31NC/DRTWY\r\nTaM1c7sBNZLMODVOfgM13xQ6NRb7NzX96is1v94oNWetFDVuchQ1zVstNSmCDDXCNjc1TOkYNSKI\r\n0TSFnw4130MgNS90MDWKuSI1oay0NN0OZzVgZ+k0XQpANVGAMDVna880sAY3NUz9IjXNkC81w7gA\r\nNc50JTV3QTQ1uxLUNH0/8DT5Hco0EFdmNQgNBTWMiRo175NZNSaHXTWrV2c1kbqDNVSEAjWx39U0\r\n6LoqNRvBXjWrdyI1SlhSNYKXFDUNXhA1c8iwNInfDzWoLy41QBshNcoTdDUsdUE1gs9DNTOrSjUg\r\nRy81SiPyNI7dWzVCQs00jxIANRgjtTQXOUk1ITc6NapLeDU0onY1ax7lNJzYBDVfkBM1yzRSNQgI\r\nCzUzrxM1xS9vNbLKJzWUH/I0RzVCNc7uEjUnFYs1aMW5NOUr/zTZQwo13ue8NNyjIjV8WBw1IfEY\r\nNSyCCzVipPw0Gx9kNfFSbTVQUDw1urCGNT/npTVc5AY1ZpVCNayX7zQT+4E1sqH0NAAAKTVs+Gs9\r\nyz4XO3AQ5Dq6KZc62DF5Os3ZwjosEpw6156/OkEI4zpG/N86OmAiOlxPzDo7T7E6DhuWOo7MhDrZ\r\n7HQ68+kkOrYAjzpCT306Wgg4OtjIYjpIhyA7XquOOiCx7DnRlqI6aAfROm2hiDqVP1s6tiqLOgmS\r\nlDpAbkY6ycqqOsp3djppyJ06bS2POZSrpzqO44k65/pfOq+0mDpN6yM6H6WUOvy+QjtOiLQ6VVWd\r\nOrkNpjqkj9I6FzgiOgHmDzq08bk6ohJgOgCcljpUJr86N87lOs7ARjrCA0o61IhrOhzhvzoyfoc6\r\nLdaaOlo2gzpsEHU6djWAOsvYYDq0iaI6QiHlOuxTDTuB+q46UDiBOk7Thjr4o1M6XVyEOnzUOzo5\r\nd5I6tgaBOjbg1jrQX/06PDyHOsqRKzrsfl06jhmVOkqXGTqwbMA65jvrOoPClzpNg6M68EotOx6v\r\nOTpfHfw63LRwOk4mhjqT0pw6Iz6cOtyfmDpmqYs6FsgVO0uYvDoV86g6IUakOpLBvDqxUoU6/VvN\r\nOoqXJjp0lkE6MYleOmunpzpX3zE6eqaVOidtPzqu6hc7HLiQOlz9TTo22KE6jOHgOa+OnDos6mQ6\r\nwNRYOtCYRTocv/c6A9O7OmoL4zo1ck46tyoGOqCt6zq9M3Y6H+d/OgbzlTqdBIw6EJ2LOqoZUzrW\r\n8086eIbUOiwLmzpmgFg6SLMuOvZuZDpESI06vcGjOvjQujrGJHw6Pn/0Or0npzpodFo6RzeIOqZC\r\nfjqlWvU6WE93Ot9xXjrvLIs6mpZ5OgLXmDrh3jw6bI9sOgUg9DrPBJE6fNO2Og5GJjry05E6qDhk\r\nOn6iqzomO0s6NcUsOnKdODqZSmM6Vvt+Or/JQzob2x46yhs7Os832zrS+5s6CPMkOm7GHjqY+rU6\r\nGwOjOqnRhjpj9HE6ZHR3OiG+pzryyZU6GilnOrgJHDt/ye85foiUOryPdjoHRrY68hoiOola5jqn\r\nY446eLiDOi78UjoX7Xw6koHuOtRYuDoXq8s6OkrYOq9aUDrZb6w6vD4vOqZfwDoOXl068cAMOw92\r\nUDp0+9M6z3uuOjjwcTrciTQ6WLzOOhuULjrqdGM6pUOgOoD9VjrQHbg6XFyUOtoYTjrg+ok6YeZV\r\nOtkQTjoxA4862JmVOjqnXTpUa8w6MzJnOuIJ0Tl4pMM6lMhHOl1agzoBop86QxLjOi5dcDprJDQ6\r\nuy+5Op/hmzoaWQE6CVUDO17vMDrE4Z46nnJrOpGYSTsqvys6uEGLOlVfqjqWnL46xCJYOrduiTrg\r\nM/85pQPBOuT9yDq2yMA6FUJSOoDybzrswZ46/RTmOjjZwjqeEoA6GhKsOpd+OzqKf/45r4phOgb8\r\nZDplSII6BuplOk0Odjo27qY61XozOoW2Fzrlug86oYNROkc5nznh9og6E6ZsOsTQVDr781Q6T26M\r\nOg7ARzooCJQ6NSZCOig3ZDqBHYk6zENgOvztvTrqfms6ZnkxOumzLzpe8086N388OtrrcDrOaVs6\r\nE3RnOjt0AzuIKDk6VFtoOhTDhjqsF2E6Qq0QOtJsaDrA+p06hh+pOmvW8zrYqAg6ri6GOrIjjzpk\r\n+306EgZlOnxUSDoEWGQ63CNqOhri0ToadKY6vVlnOhsjXTouB0Q6Kmq4OvbNsTquwsI6sIw5OmDU\r\nvDqYKuQ6GqkxOhmuxzo35D06GKc4Oj70ajrMt5M6+pB7OnVDgTpOWGU6zgfSOe5JmToK3jQ6OnkT\r\nO/K1Gjqy09M6BiSgOh99kTqPPJs6KOdTOhyVMjrV9Y06qegiOvfCGTpuaFk6xkLBOeWmPTqYsVA6\r\n77UjOggDejojHp06yQaGOohdyjoe7Bc6VIEVOjt0nTqx8Sg66+pTOqZ5ljr3LGw6gmMnOlp2Ejpz\r\n81U6qOFBOqx0rjr+LSE7RPzEOheYCzuI3mw6lsDJOsyTgzqSJ6s6ZnIDO0gqmjo3GZQ6mrAvOm7O\r\nGDoMKR86/k73OUiG8zo4wqA6X2BFOiyhbTouBMs6BOVDOvL/YTpWTUI6cz6fOlcB9zoiFok6VzG9\r\nOmtg1zqwTFQ6PeDVOrFdfzoybno6Bm+MOpeeyDpOQP46Ui2VOu8ZnjqUWIc6uuKPOnduLDqjKqw6\r\n+NXNOpK0zjqYrn46im+lOq+h4DnGnIc6dBJZOvBFJDqW48I6GJl7OspQCTqczYI6hvUXO7itqjr2\r\nb0c6CNn0OtDKQjoybyc6kpIBO1DT8DkoJkM6j3m9OloiRTp7tVI6iZ6AOqpq5jpL9Oc5JzybOtrG\r\n8jpu17o61gybOjtj3TqQp7A69VMXOsuxNjq39uk6TpOCOi1HgzrUcXg69t0uOg8wgjpe6gU6ZJ9g\r\nOlh0iTpy9OY6YfUHOxbfNTpzVco6p8FqOtIJ+jmKtVw6zMNDOo72YDpBkWA6yPVSOhoNkjoS6Sw6\r\ncrMyOj0osTpEFp06rL94OohrJTr4J6g6WxYcOhawbjrb2Zo6SN5MOrv3tTrANns6aqiEOqLOvDqW\r\ndI46mV2IOiy8bjpciGQ6pthZOhJ/QDrCMKc67eWKOgMwNTpUQ0o6ejrDOg4oEjuRSdQ6anoXOneu\r\nqTpvHhc6v4skOgpySzooQZg6NlgoOiB2Yzp3FXQ6jLJ5Ohh+UTpe7sc6oAxmOkqjgTomX1I6Hz8S\r\nO5asRjrRzZY6OMm2OkRmpDrDfR46KHFaOoK7MzooGK86usZ0Ooy0PToiF2A69GKMOhBMTTp+pII6\r\nGKFoOvOrAjoR5Dk6qRQtOlhTqTrkhW46TsGCOqLcejrW/+Y695K0OsrPDjrw1OM6X+coOqjibjpE\r\nI0g6aVitOtAzfDpIuK46WO1/Os7uWTqViSY6BYSqOhQdqzpue4Y6YqSnOpKnPTqe49c6/po7Oki+\r\nnzp11Eg6Ab7rOjNAhzpq9Ww6/n/dOlCBcTpQ4zo6GqjgOf+0Mzoy4i863No5Ou59cjr9ehk635wZ\r\nOv3YuDqSQZY6uqn4OZZwdjr2U3w6+jRaOuYGoDqV9lI6D7t8Oj4lbjrPgqQ6t1dcOkmtKzo3elQ6\r\nAZ8wOqoW5zkl+Es65yF6Or+kxjqDUhk7qXRmOi8amTrg6o065iiNOqLk/zqJYdA6+2JTOl+UgTpD\r\nXLM6RblwOhwikjoLMP45qtIuOhmGiTqPcS860hgJOv5/3jlK+R06GvzYOSPMrTqYDKI5QwI5OjsQ\r\ntDpdQrY6NZGAOq8skjoWY006Vso6OussIjodccU6R11LOrENMDqTRVg6zSw3OrC8cDqFrHE6HoSt\r\nOvAqHDqxl186FrIJOq3CDDu5KGQ6mKEiOpmFcTo5cE46BV2FOghpgzqJ/Jk6Lj+ZOtXEuDrhQ586\r\noQ2bOj1jjzoCH/05PjtsOvvc/DkRSoQ6tH2jOiN2gDpYYKk6hyWfOqarejo64YI6n3igOjIAIzrq\r\nZio6689eOojqkDouEp46Tpd6OpgTlDq0Dks66JibOhiTcTo9+ls6sBISOm50UTp5Hso6gG6ROq6/\r\nwjo/SF06YXLHOmYEUDq/7Bg6HnI8OsQRNzoByuU5Hj3sOUd0JTqY21g6euV3Or/doToSZok69McZ\r\nOoL5Lzq0zJQ6OB/FOkit4jr2jiE6l2iGOmEFNToi01M6WII5OuyUtzofiCU6XSGUOj5CQDpcAik6\r\nXGSGOptyUzqTJIw6FlGlOrARaTpi42w6bluGOk6T6Tlu8wg6odtJOvoyVDqao0g6LqKCOn4GDjoo\r\nsyM6AJ87Op4jvjp+Iaw6YxeiOs1bgzqVvHk5TL1nOboKRznzCfk5T+AqOUDnZzgNSRk5KwQOOaZ/\r\nzzhrYpw5Di49OqoZCzrC1S06GDAHOkOqQTjxZW05CEJrOeDqADfUjYU3E2YnOZWWTDmp3YI4/ukc\r\nOQBbGzmHDbc4N+p/OCMIhzYXOYs5n8KEOYK0jThdID44BW5aN2yV0DVgbeI1p8k9NrGmlzVgrwY2\r\nalLiNTpA/TWEsco1lqwNNn18szUQ/1k1POyfNfTdCjbg0n01Me6tNWCmvjXZ0/k1J23ENRAbjDXo\r\ne8Y1FofXNbpVxzVEHZg1vWZqNVMI3jUtVnI1OBfYNQXXizUNrWA1mNQLNuNpqzWsmkU58XexOYTn\r\nDzpnquA5q5K3Ob+qxDnaVFk5d4RoOT73lTk9cA46LTWyOYrlXTnoDYE5pmy0OUTX5jkUfmw5AcVs\r\nOZc7FDk8CDs63NGuOi5qIDrjuI06qmRWOh6YMzpg0cU5d5EQOf4FGTn+QQE5C6ZrOU0+xTlOREM5\r\nKivXONCaBznUiTo1xft6NX7QRzXwrF01y8IsNRuOkzW4w2Q134ApNb9ChDVm4HY1lFaoNYZ4kjXV\r\n55I11W7FNKRSdDXMNg01IPEUNSScbjU/ICU1WnBNNYHlpTXQERc1zfIiNcF+hjX2znk1dIF4NThU\r\nQjW4AHA1CT+yNUJEgDWIEuE0pIkeNmUYeziFZJI5qI0BOhhz0TmxL2o5tIT0OOGELTlctZ051kJS\r\nN8NejTjmTqo5xAwJOcUx2TUjQhk3IFlmOE9npzk8D6I5ygTENgbJljjKqfU4tORvOBYMJTnffzQ6\r\nQHaEOumOCTppF+I23/o1N7EblDdCnhg4syVjOROKEjpU54I5nKyGOdCNlDnGmco5VrDFOUBA9ziT\r\nvGY4eppcOTbXBzo3KM842jVSObkqYjl61Bk45gVuOmz5YzrmA+Y4QZqlN33PbThVpY84uisgOByI\r\nADm5aWc5Kl/jOIOH1je53TU40OoPOdLZ6TgLGD85JMKYOcKcKzmuOCg4zA8SOC1+nzVJtDw1QRsD\r\nNVN3LTXQAsI02xQNNW5OwzVwGQU1WiGKNfcXAjV0UzU1w2kBNV5uTjXpDRg1lk25NL/5pDRtJRo1\r\ns7KBNaR1BDXloDk1tKb4NM60IjX+/ko1UeNANUKhFDXoGTE1tud1NUrQzjQlvS012B8GNfDjJjU8\r\nyNY01QkDNXfJKTWc/oo17XMgNQ4zBTVcBLc0/A2CNbdcKzWc2kg1wp4UNSaI3jSmN+E0O+iTNWiW\r\nHzXebAU144UUNUor+TSKrRM1uDWKNfiQGjX1hqk1Yz/fNMx1IDXMCOI0zWMqNeBQbTWAZCA1fNr5\r\nNc4uNjUKrW40d700Ne6vEDUoUMg0O3+JNTLEyTQVRGk1DaynNIkk1TQSCg81D5s5NfQnBTUEwoI1\r\nFnw0NSmblDUBl600BES3NFS1yDQ02i41BoA2NWhjITV55wQ1h7obNTyRHzWjVxo1Ag4nNRHQ/TTH\r\nW1Q1D5MONVPm6TTOlWU1VM49NSFczDRknuI0EJUBNQp7DzWW/740cnvOND6bFDWJuzA1ftfXNAYX\r\nPzUurUE1keFqNQ5XJTVLdko1zJgiNaRMpjQ2AfM0cREoNUng9zQG+1k1+kc0Nb9JjDUShtg0bs6x\r\nNbMU1TRbTdg0vDA3NfrmMzWVt7010RxcNWqyCzUXHnE1UntDNflvRjVQXBU1AEBSNQ==",
                            "noiseTrainingType" : "default"
                          }
                        }
                    ],
                    "start" : 1445,
                    "duration" : 1360,
                    "mediaStart" : 51,
                    "mediaDuration" : 1360,
                    "scalar" : 1,
                    "metadata" : {
                      "WinSubProjectDisplayName" : "",
                      "clipSpeedAttribute" : false
                    },
                    "animationTracks" : {

                    }
                  },
                  {
                    "id" : 52,
                    "_type" : "AMFile",
                    "src" : 3,
                    "trackNumber" : 1,
                    "attributes" : {
                      "ident" : "Aufn. 07-05-19_015",
                      "sampleRate" : 44100,
                      "bitDepth" : 16,
                      "gain" : 1.04260814658002,
                      "mixToMono" : true
                    },
                      "channelNumber" : "0,1",
                    "effects" : [
                        {
                          "effectName" : "NoiseReduction",
                          "category" : "categoryAudioEffects",
                          "parameters" : {
                            "denoiserAmount" : 5.59999999999999,
                            "denoiserThreshold" : 0.0,
                            "noiseProfile" : "dkJqQVkmy0IW5gtBgxOyQPbEVUBhFIVA4YjxQHDRJ0OkXf9Bdf1rQDkA5UB5s5RAi40WQbKcJkOa\r\nAZxEVPJ4QmaheUG/DI9Axpz5P0fwbj/gjyRAcmIbQggVh0GpxR1A1ieHP0LVSz+EhqQ/fZHmP35k\r\nYEBu9nQ/+5xRP9UsAj8KJ+4+aoepPu9ZLT6avyM/SL29PtXWDz42yAc+43i2PtwVRz5zlCY/3oDW\r\nPQoKxD09ZZk9cuQTPoj8jD5f12M/LoQHP1P9Fz/ZE7o+9UVsPUTGoT3rB0Q+kFgcPu42FD+03QA/\r\n4nVFPwia5D62/00+nNk5P6QYZD0ZwbA941vAPvoZKj405tg9RXtjPRQcSD3KETY+ZcLUPYftRj79\r\nAoM+2BlEPlmpLD40ZfU9CEQOP4ZGcz8BPrc+5OkRPzbS8D56cII/LvrCPua/AT+mCIo+E7jvPcbc\r\nsz0yeU0+YVUxPtz9Bz58TX8+1wtCPu2EUz3M2Yo+6AYWPq8ROD2Y0fU8hxrXPIh4ED1A6pg8M68M\r\nPpgTuT2OX9U94q5MPtDwQj4SVl0/6R6VPgys1T7+RI49CujXPdtLIT4bfa892BPYOwatbzye6jA9\r\nglH+PJizhTyWsXc94an6PQiQbzw2tyA+vEMmPll9JD6tZAk+cFmhPKOLLT3g5WU80zWmO8GohD1G\r\nIYc92hWuPe1Xqj3QJYk9lkCNPYoGGD6GHjw80QzkPPabAD4dbK48ulwpPnvCrT5CgOY842afPbz6\r\nUj1RjYY9IovePTERkT46dJc90Mc5P/tPST0accg+ObOvPj5YgD46XhI+LFggPtcGmj7bM1o9mNce\r\nPwEQ7EDnmJxA5QKBP5W/Y0DFRaA/PQXwPnMKkD8wwVI/PAPKP49G0D/SHBk/N+cXP8fh8D/juAs/\r\njou4PpbyET/IcN893KDUPRNQPD0Rm6k+ZiUFP4o0tj2IunA9rgl6PHpWgDz+QGc9aRQDPqqiUD58\r\ndjE9pDZoPorB7j7mccY9pOy6PA4TAD2csuU8ee+qPd9G9j2/lxw+JHPTPCOyoz1cb9w9OLaePsiP\r\nzD3OUYE8bK8lPajMGz1a6DY+1lPhPQSoaT7/Pl09MHMxPJ8CGzz0yjg+CGgUPnhGCz7xTJM+Ptgk\r\nPuSGsD1uzmQ+whUIPprGYT7SA8g9SmYKPQcm5j69dDg+JxirPJywhj6ugeY+Dg3GPgzYEj6E+gA9\r\nrEthPLb9DD26pOU8cyT7O6aK4D0umzk+Gz0CPuk8KTzctPE7mgV2PTalnDzAmqU8cA2cO5bnCz2Y\r\nA9U8TFAlO6qWGTxj5aw9ZxI8PffWejqSfUI7qyUNOzdL9TzG0vU8vJu5PETHwzwlv647TmWsO4zT\r\n/jxg69o8tIzlO0KvljvaKhc7V2dGPD//wz20dg4+NukwPTiMKD103NM9rBEEPov9fz1m8EI8rIdT\r\nPNWh4jyya7M8jQWxPAvUUDv6csc9Iw8sPvTgfz3IlKk71pjRPE6h1Ttwf8Y8bJohPYLh0DzNXMA8\r\nR2G0O8p3/zv6X1I8hQ8PPVCJ1zrlXbc7ibQPPOnAQjxS2hc7WGOgPNdwkzvSG588OYDEO3Df0Dsm\r\nD0E9jKu0POwxxT20s2Q93GsTPZtlJDxopXk8J447PRddxjzB21I9NrCkPW/qNz4yWaY8I3tqPT4Q\r\nlz5zikg+qYupPSm6Yz25s907v72RPLUSuDruUWc8uqGLPKhKej2TQ9k9hRXhPRwVvj0PZ089OFQJ\r\nPZwNXD3Ev2M9KmiRPdlFsT0hY908RIEhPZLThDvfiek63HnKO7Eg+jusPa48JqlbO0GmYzzC78Q8\r\nDlPqPLafVz1OQNM9/ExOPcHRJzuEfxA7vc/JOw4Ngzx2agE9uiQPOxtWdDzAmXM8oPNnPD+MmTyY\r\nhcI7bAExPNyTDDxYLoQ7W3iEPOyyGD2MOD49WRGBPEOgazxL9aU8MtddPDs1Czv1fRU9StV9PYqp\r\nMD2KxR89A9gdPYXbIDzuQ4k8EY/qPHST8zyPvj08aFFuOgcRnzsO6gk8QpPYPO73FjyyKwQ7MkE1\r\nPBhGZjyFvnk8MDzbPCQJTT2iiEc9rv4oPUoVkDyJaAE8FwGkO27drTweERw9adKcO/EQeTw6zt08\r\nrioDPYPLfDvtZzw7hvHpO9H42jpWfvY62o+eO62pcTvR6KI7h7ylPDdSqjvW/EY6lFunOn2w/zpc\r\nToE8doGmPPUQATvu3Yw6vCXaOqDhCTungaw6ADtLOxl7DTvflJA75KdSPNG8Mjx8K+s7u/vqOZPI\r\nIzt0fhM7i2aKOn0iLDqcfzw6ZVc2O4NGLzyqPlo8EH4vPK7a1DtZ6kM7c0S9OhFuWTuefz48vBqk\r\nPJ9z/DsouvA6P9bTOiHVCzyEk/w6/jaoOhY34Du+iDo8UsP3OzUvjTrxSFs74epkO3O6+TvTdkg7\r\n5gYvOyk/6Tq9F1o5HL5uOQiXMzoYeis7ngASO+wRBzpigRU75ds/O2L+ODtsaD47/tUeOmO52jqO\r\n/L46l8iAOlt6XzrVik07lwvGOfu0iTuvP3g6DgZOOoKJtDqsPA87ulpEOoBoMTxvwhc8gnnUO86W\r\n8zrv3RM8c3jjOZ8klDufmyw6xnSKO/Lm6zt/GsY5xpIdO+5fQTrA4zo7u7glOmjDRzuQuPI5K3GX\r\nOg1KVDvIZd86vZYQO2ouxTrlGug7QkfeO6ZiqzqbW3c6GQytOkknDDyuigc8ixKwOr5MkTsSMdA7\r\nXhtKPFfrdjxL1tk7tIsiPDMHJjzyPrY84c98O+QGSjw75A081OyVPAWEDTz5PEA6cmu0Ojo7STp2\r\nc2w73A0fO5vaATxILJ47mOFPOxh7SDpaEBw74TwROitBgDvshzE7ynIuPCaJ3Tt1wAI7wQ4MO7bc\r\nHzx4qTo8VGF4O3+NLjpDPDg7pr7yOQMkdTuvHbA6Jk0hO1HY+zrYsyA5LNjHOfQAjTqITOc5i0Aj\r\nOxk9uzvLpCA7eC/QO9xqBTvzIXI6245zOSUviDlGJDM7674BO7cHRDt28/g6HwQdOkMKQzt3m+Y5\r\nWSutOre+zzu4Dwc7/PAnO37Y9Tl2VXQ68zKzOc0NBTt+uX476gVbOQFHjDoAQbA5gmMlOSBNgDpE\r\neSk725YMO0VjzTrx1Iw7NnpqOiDklTpUGfA438W1OwfoJTzCBPs71VppOWo78DmagXY6Mc6IOoIV\r\nyDqMEoE7svkmOwr+jjrldzo7OBeuO7YEgDu18BA7qRmUO6xH5Tmb0lA6O8K5OlCPazsHiT86spqE\r\nO+B3GTunwOs6J4NjPF7z5DzGwEA9gdXyPIBLfTx3vEo8ABN3PHPyqTt8RQI7eIpKOsaPFztC+2Q6\r\nTjNIOzt0wDsnYA88ot08PIw8VzyfMwU8KlIHPDx03jtPaEA7+yrpOk88fTkGSCg6CKdnO2jLHzvS\r\nh046VWMUOx6qYTumYJ85rjVUO32ysjs0y5o6cFRbOzVVszsTl4Y709P7OmzQdzt0Oas7bBhaOnZI\r\nhTvmRR86oonpOr4UHzuXnH87pJAgOfZ8LjufM5g7YWkKPPBgFDppRmk6HmWJOot9RjtUJ6I5yE4G\r\nO5KlYDqqV5E64KHqOkjcRDvqgJM61Zj5OcKioTq1uWE6IqK1OgI6KjqHNAg6Sa2AOr5LJDr0FDg6\r\nAYaKOcbBAjoPQ9U6MJ3rOYA6WTnYSoM75NCHOnCuCzwJ2Yg6V3v+Oe0DMzqMnQs58yDSOQp+pjoA\r\nfN86Qu27OEJ2Ejr19fI65eUcOo4IRToXWr85Q0LgOarc7DhXHg85GhuvOdP2xjocPHs6dBXhOB49\r\nOTqsKBM7CfyHOn+cojnHnsE5zFnMOG4ZOzlLO8U55daIOTBDdjrDrBo5YMl2OWD/3zoh8q46NBeQ\r\nOmte8zkeqSI5k18pOmtyWzpiMzo68lO8OYT/PTkMcwY6MOr6OGy0tzgbF/o5P2yjOQeglTlCqcU5\r\naLXROgBqljk9nHU6HNidOTElFToctcs5alBGOIAagDq9AGk6Fv01OZgWzznj1oE57H+oOYRjmzmx\r\n/rQ5N0UsOaC18DmyCZs6bbmLOrE+qjlYggY5AuVlOs9RjTlIhh86e8ebOqdZwzkbgzU6DL5wOb73\r\nBTrRk9M50ksmOjycYzl6HaE4tm42Oj6rnjht8Cc6hU11OmHM+znDz1o6W588OX5A2zr0N6Q4lJMh\r\nOSvLRjkoyQE6U0/HOYoLtzmrmDY5v9E7Ov/q5jiOjjk5AjD5Oco2xDk6XTQ5rtqmOT04fjmNdFQ5\r\nDrhtObophDnLjy058p4sOqKWXzngAQQ5vScbOuuQDjkIfXc5XWgqOfUfETo55dw59O8zOY5xljky\r\nNP04xVOIOgz5RznvVGk6NBQEOuCbCTmlQiw5ysrXOaRLBTpQJt85eRWfOO5OhTqBTbI5m5LrOOKr\r\noTrqEJc5NTsYOgsDJzrUDvM5GizUOJMkjDnXrCc6sDTpOdMx3ThAMx86za6GOCBxGzqxOAw5XEkV\r\nOsXC8TmMLiY5EeaeORamhDlc1GE5FUhoOUU7TTl0xhA6UczWOK6JlDme7Rk5HN4kOqo/KDnb0g86\r\nONYGObKbHjogp+g4ndr+OZ5sWTlD/l45htAGOiYjMzmgvTA6fYkPOTEKbzkeBVk5YVBmOWvvbznT\r\ncmI54OduOc6wbTni2Gc55rp1OagcYDn1EHA5SdZ9OYZydTlUuGo5NB1oOR+tYDlCRnA596tjOQlY\r\nYzk9HGI5EAdrOWU/YjnTGnM5w2dqOT1nXDkC+mk5dGFnOe0razk0yWk5msVlOVQKVDme8V05mjBq\r\nOfJXdzkd+no5MhFfOcyjXjl/tWQ5Kf5iOWBfUjkkK2c5JKpqOcWqZTmSjGY5H6ZnObOkXTkyNVY5\r\n9rNrOTEIXzmvsmQ5fONkOdVWbTlBKnM5Yw5nOWv3fjn9WHA5VippORoLazmFR1A57+toOSIOYjku\r\n7lk50/xQOf1/YjlS6GQ5/rldOXQ/ZzldGG05lNRoOWLOYDk0Hmo5tX9tOUD0ZTmplHo5dPlfOSnY\r\nVTmW42Y5PJdsOXMTaDnavmE5W45jOQg8VTnpeGA52CxZOZihcDmZn1056VFnOcMGXjnB5GU58q1f\r\nOXbtVTkUHl45k1VcObYmYDmlS2Y5E+FrOYuwZjm3NU85XmdvOZZzYTk9eWs5VixgOWyxYTm1UWQ5\r\nY1NTOfbiUzltDlY5pzhgOd0MXDlbalw5eeVbOXHRWznjk0Y5y75nOaamaDloG2g5jjVVOQkgZzmh\r\ngVw5Ny1qOVTcUjnH3WI5IopbOY1CXjn0nE45uY5hOcWjZzn6Zlw5P1dpOQNbWznXWV85FS9YOcVd\r\nWzkKk1s5+89kOTq9TDkOPmc5DeFoOYDLZzkzb2s5GHRXOWkEYzlDgWM5URxbObzcWjnLG2Q5EYFt\r\nOXfnWjlBk3A5GNddOaICXjlEHlo57N1dOdERWjl582c5I0FhOdkjWjkwdWM5A5FaOUD6VDnEZxc8\r\nVJmfOqe0QzqWK/A6PMqSOgKI9jotxS86sOexOhCUoDpMuJE6pTOyOpjN0jlR55o6CCdWOuFUhDpj\r\nYKM6eKggOt8QADssOBY7C5AgOsqAhTpXpZY6AxXtOmi0sjqCjPU6PfnBOoVwVDp4Cs06UWUhOnwu\r\nJDoXjWA6tFjyOqOV2DqmySI6u7CNOsIOgzpbp5U63eqZOtD9yTosW4I6FhmCOnJLgToG8pg6AfKz\r\nOomnDzqwLlY6HCOOOkB+XDrZB4Q6iIijOigJNDpXqDM6pNj/OUK6BDqtaUY6mEBGOlvNTDojrOo6\r\nXqhnOozMfDqs3bY6uQhdOsjz3Dqef9o6pgvqOaUgbzomvhY6hmt2OiorfTpM6Ag68A76OaIxYzqE\r\nJlU6/j6qOnstkTr8opw6TjQuOrDFzjoByL46A3aYOgq6cDruTaY6DdWSOoSqUzoXbh07OJXBOrwH\r\nKjq0Ugc7GC3ZOvT5cDoemJg6THGrOnv0Gzq2abk6TiltOg9X6jpCMa06jvpkOsJS/jnSx6Y65IRO\r\nOuww2DoYY5A6Y1kaOhB/qzqL/sY6etC+OnD/gjoRxY86ZXWWOuIdizqweis6nsZzOoNkhTq6hS06\r\nPaA9OoI1YTpz/jw66Dx4OsJfJzpX90s6dsmrOslBYDrhq4A6toe2OqJIkzq3a3s6srvGOTYaCjof\r\nlrM6yRMhOgUoTToUi4E6MP9eOmn6TzpJqPI6ohZKOjWtkDr2hBg6Fa/IOj83yDoUWj46re2tOjh+\r\ngjp24Tc6UxLmOhg9Vjrs1tI6mpSAOoG/rTrTgLI6FjPYOkJ4dzoqyjE6ftT3OidzXTq2uG06qnyM\r\nOtS6VjrusBY6jov6OopFpjoWI9E6Xb5QOuyyijp/dz463KBFOiCnmjqjfq86XD0NOoYvFzpLq4E6\r\nyv/2OgAAazps+0k6SJqLOsEnuDri6f85Teu+OrAXqTqUzWw6iqAtOl1JJzr5bjU66qt7OjXqCzs2\r\nEeU61XO3Omj4UToW4D46WlVXOm3rZjpLu1k65obNOmnZgjrl9Uo6RO0eO+DkmjrztKY6wmBxOm6s\r\n6Trz2bs6TdOxOtI6LTo3ens6o6g0OsDPwzqNXy86GCj5OTDiqDr7FZM6x1A3O0VRXDrMnWg6eM0p\r\nOlDoRDqySss6iIC5OvBJEjsiUq46PYqbOmdUdTog72U6u9JfOvcshDqysig6VlruOW4Rljrt5Hw6\r\nDVBcOhoStDrrOww6jPgWOsKmeDrUUUg62uXGOiYsETqhr6c6dV6VOvyv7DkCkU86fsGcOjYKjjrz\r\nwng6bCc5OvbMaDr0UJw6ekurOo7TjTru1tI6lPmbOsUUnzrPYTY6GRpUOj9xZzq4gKw6USyTOgPn\r\nPzqFQ406vcTAOvDXPTpk8ts5yjeEOsEauzokDpQ6dnyDOj9FAzokKIc6yh9DOkvtKjoWN4Q6UYLQ\r\nOgbWmTqf+mM6vTY+Os1NCjqbj5c6NejeOXAmzjoW6r86UOCTOmGnFjrAAaE6xjOCOr2PeTpcx8M6\r\nW+beOvDAYTpaAJs6oCk9OvPMtTo8MdE6SOOGOtlLhjoCTFg6bAm8OiCCujqKbKg6iwuZOimtTDo3\r\noCM6b9/HOr1mgzqI+FI6SWGUOrpiXDq8xNU63ShoOrC9JjqkxF06VBA1OsRrJzqdyqY6eD0ROrTj\r\n8zq3xU86oMg3On4eqzq73Q86lRQ5OlRfFDqcv4Q6dQ88OlgXLzqu5I46gZwAOjAd1ToAizs6EfU1\r\nOnW4YjohLos6tr2TOo0tpzp3DiI6+sNaOrB3lzrcsv85bd4aOpakrjpi5ZU69l4OOtaeejotuN86\r\nq8o1Or6YvTrilBI6g9nWOldHVzq7XA474j19OkAtpDpToIs6KTigOjU1tzrSzV06LsWKOgzC+zkK\r\noKM6RqtpOgjyXDraJWA6r4mHOj49izr3VMc6MAI+OqJbNjp2hXM6sueYOlzHODoKvnE6w6EQOohS\r\nrTpXooU6zH4oOib+qDpVZaU6VPWFOuDp4TqwfdM6kWxDOrd7BjrPK585M3aTOs2mMzowUEg6PkKP\r\nOrpbCDrCJuI6bk6ZOvLCnjoXOKA6csjWOdj6Lzo8Eyo6zEVKOpNdljqCwK06/MlMOho3izqU/nU6\r\nbKtBOrhSBTuxJoA6EmFzOg3KdTqBwZY6vzi1OlG9TzqeMkQ6477JOjWojDri+zg6NKV2Ot5wQjr4\r\nWc454teKOt9WUzpEELI6QoIKOm0dXjqhi2Q6VRLOOjdv+zpeGxY7DI2GOnKEsTp5Pmw6iID3OnDh\r\n5zpaFKA6QgJ/Osc0ZDqY3Eo6ONxZOtRfyTr5wQ86YvjNOn6oFjpPDXM6iFC5OneevjqiSys6TpmM\r\nOoPFmTpMl0I6BD5wOv0HgjpWzVI6v/EkOpqxBzt73oo6d7rvOU4TBTrfOYI6haEWOj+mgTownio6\r\nu3nwOsAZzTpqr1w6AoAdOtO7sDpaFBU6eEtxOhebkDqsY5Q6Th6EOn/cMjoz9gA6/xGJOklaiTon\r\n7CQ6tzxWOutuLjr/vVk60yYNOn8ulzqNLJg6juyZOtjukjqSQIc6CtOIOifvOzoKHl46XVN9OtCS\r\najr507E6u9DEOiaCvzold8g6RvIDOuhgYDrCBzA6YYPTObFILTpTZ0g69zW8Oup+lDpjais61Sht\r\nOtVesjpR5KY6TKuwOq9g9TkmDo860L+pOn6gwDq6ukQ6xBAfOv5EtjqjdWw6DbWHOhAkczpbvx06\r\n4DY4OnZSUjpx2qE6wfvDOh/8aDr0zIA6gkaDOnTAUDoHQFI601eNOncOmzpK280625ktOshzlzps\r\nL3I6gt6eOtKSazqYuvE52urmOXolOjoXks05NUGJOgLoMDpuZIM6jNAuOmWc2jnj92g67ZToOoC9\r\nfDp/U7I6UqNMOuoftDqwnCA6CUa8Olx7bzoABRg6ihJDOiXn7zn/37E6QhJ2OkgUWTrjV7w6mn9J\r\nOib5jjp4nXA6sioYOte3ZDrFez86Xv3aOgaa4jpAlO45JYhfOkQncTqzQZ06CSaYOkdAhDrfG3I6\r\nEKuZOmzKaDpAvoI6JDhbOiJ8ozrGcG06nJe3Oj57hjot31A6B0FTOsoG9jrlmBA6NyiEOu9Jnjpw\r\nrFk6KTuBOtIysDp9O7o66lyTOsj8azrEGco6h7xYOjTfXDqH/eE5SDgHOvAXyzq4qII6fWJtOlDo\r\nVjpYgzw64fAaOlpT8zn5ig46znqWOvPmMDqeaFA6PtKHOus2LzquqWo677ivOuTt4zr1X4o6S6i3\r\nOtABjDpjoxg6Q22EOuEVHzr2cv85XPlOOllGWzqnkCM68uPYOTZPAzo6x2c6Z4zVOgzSkTo3LPU6\r\nyPTROl2JQzo7I4Y6qDdvOmwTajrsZDw6c+0yOvq+CzqL4UU6+GszOoq2ozr3zL06lfcvOmlgmDoF\r\n+406VjNROhrXYjoalXM6RJ3DOgPvsjqbSa86WPiaOjGvbTsjFsg6NZWkOp1ZNTqKd2Y6TJMSOpxR\r\nbDpP3oA6BHo2O6c3fjp80jI6r+xmOu5B7ToUUro6QWy0OXx0KDoO4Lk5VpCXOiIdSTr0Q2c6gUqK\r\nOq+wLDpkhcM6cbVAOlxGKTrRTyk65mKWOgYWgTrAqF86fx2mOgv7JzvfKv46mhCvOpkONDq6LyM6\r\nAL1mOhWqlDpnq6s6cZefOusdQjsD8qY6RkgdOtH/PTqsU5U6otsYOirZRzoX+4s6hzoIOwCFVTqu\r\nlCM6GDMmOs2WDToLrPA5fYsVOtdsrDrhbAc5p6+GOun8Xjpmv4c5H65hOtSAAjp6Bfs4we+wOay7\r\nlTnF4q85PneMOCwU5Dh3FWE56axDOPOfVzk6yUA5gA7qOKNQbzoOj9U5BCkrOYkNUTooEwc6Qf56\r\nOOurSjgqbNA2uW+LOlXfPDql/QM6QxWMOb7AbDgfdMQ43Dw5OQa58zlVgXg5tIj5OZ+xYDmVyiE6\r\n/u+9ONHbozn0tsM4L7ImOHg+6Tmx9kc50nMaOiujxDlmTSE5mtWnOKRWITk7WA45CaaSOcTMyzlV\r\ngPY5vZRnOnY1ATrTv2U57FxOOcyTrTlCzms5+xUaOVJckTlvN9Q4H3QZOTwhhTkkNDc59iplN9Gb\r\nRDggf544nWkmODp4Cjglf5A4pAWdOfdvxzhGqdM5Y+XXOShgSDm3NCo5u+60OcqCozhQ/gA3q3Rn\r\nNh/skzijoug4DOYoOBYiMjiW1T84HqNgOL+PojfORxY4rpZ6OH7GZjiU/bU2O7sWN2YKoDVZ4lY2\r\noMpJNyFZqjjpsGo4WT0/OKQncjiK8jk5RCUVOjAHiDpdjKY5yjrxOHfiIDmdgeE5zV1tOpgz8Dmz\r\nqh85ZjacOKTFRTnGi5I5IfgCOdUV3Dh9nBI5GLHgOM0FlTn3gN05gKJsOagBxzjKEIU5MJ+sOWJX\r\nnzlEers4FI0IOR0FBjn9KrY4Mli4OE4S+jgLRUw5fY3mOFiN8jjDcE85qOfFOIQmfDlXhhM6IwPY\r\nOSEy8znyAFk5XAZ7OXhdxzmD7jE5O9BcOLHlEzlo8085I4GIOUafwzlznp45RFjoOAF7ujlNsEM6\r\nUnKYOW2IuTkmed45RLisOMjnyThOLdo5eoOhOcoa5zj2SjE5FkiyNcnMAzb0SEo1XQ0JNbmSLDVJ\r\naUk1tikrNUu6sTWu1HE1Zvc2NRzcBzXWuZg1uLjCNGoFCDXQZiE1rn7lNJuwizX39z01naXPNCtG\r\nEDXIQRU1GbFmNT0h5zQmjSw1Hq10NaAdpDUqVFk1vwCHNQ8yJDVUDTY1cRE5NRlg7jQXejg5kENF\r\nOcwMTjnkGrs5z/mHORl5zDk5MYI6ey6tObmchjmM6Gs5YwbtOfMzxDk6VKs57ZTdOVzEaTlsxaY5\r\nXFWtOSH42jlymu84FP8ROM+oSzi+BIY50jhcOQQgJDXfwEU532afOSnCJTiD+js4LBxfOP6fUjnn\r\nDVw5d7pQODI6vjRVJ0A1rRGpNfY3kzR9/sU0WGExNXatCDUsodI0n5VUNcjqgTXBnyM1Ui4KNeR6\r\nQzWCmis1MFw4NUnyaDUA5Pw076AMNdYiMDVwBhg1TrwJNcDG0DQKpdI03kWpNeudNDX7PhM1G15r\r\nNaPgbDVQPU81dLoENS4f0zQM5R81Ze65NHukVDW6A/Q0ezNuNY3HATWrjDU1DonfNOMolDQPFlw1\r\nQF8dNXFNtTSCPAs1u4ETNQiSojRBtvU0RjUiNY7hRjUp3ls1YlcBNSizPTWG+5M0t2GcNHS55jTP\r\n1sc0IITINMM0wTR6Txo1oQk8NSOM9DT6kEw17JMTNbG0zjQM6AI1rBdENczdJjUD/h81A0ZqNVU3\r\nIjUk9MM0Nl8ANbhx0DTS4Xk1q7ZpNe1yajR4HQ41i1M+NeuE7zT+bKs0qMyENY9gLjV6ijQ1TOhG\r\nNWGeojSE/8A0cKbYNB3PGjWes/U0LhfSNPpFPjUXDD81mpqFNEYn6jRSKtc0AIC0NA==",
                            "noiseTrainingType" : "default"
                          }
                        }
                    ],
                    "start" : 2805,
                    "duration" : 1811,
                    "mediaStart" : 11,
                    "mediaDuration" : 1811,
                    "scalar" : 1,
                    "metadata" : {
                      "WinSubProjectDisplayName" : "",
                      "clipSpeedAttribute" : false
                    },
                    "animationTracks" : {

                    }
                  },
                  {
                    "id" : 53,
                    "_type" : "AMFile",
                    "src" : 4,
                    "trackNumber" : 1,
                    "attributes" : {
                      "ident" : "Aufn. 07-05-19_016",
                      "sampleRate" : 44100,
                      "bitDepth" : 16,
                      "gain" : 1.0,
                      "mixToMono" : true
                    },
                      "channelNumber" : "0,1",
                    "effects" : [
                        {
                          "effectName" : "NoiseReduction",
                          "category" : "categoryAudioEffects",
                          "parameters" : {
                            "denoiserAmount" : 20.0,
                            "denoiserThreshold" : 0.0,
                            "noiseProfile" : "lRSBQICWJT9UFZk/8I7nPqW4mz6oCvo9ePsoPFycZjw5zzY8+UKgPLsaHjxXNiY8BwasO+wFPjvG\r\ndb46UNYMO/EULjsST0s7pE7iOoKexTof7c86fyNxOvxeqjp4FJs64rgvOqVGBjracrU59R0SOjIh\r\nRjoq7i86CHZ+OQa50znzqo05Ww+lOZa/oDl+Zrw5bHgBOgIrqzkK3o05msJMOYJ0XDmsYeo50q2K\r\nOumjODl00qs54JSfOX7aPDlvuxg6zS/COcfSCDpwimE6iEGJOfPvZjnsZFk5MZqLObD9HDkqGlo5\r\nT+RUOUysaDmslxw5LKxvObuiDznn9ns5BnkOOW1Rzzjy4xk5Pi1QOaJ9rjkw/UI5QE+dOefPdTly\r\n5dk4p+dNOe4sXjlyHKw4jYBDOiS7mDpTpSY6NbTaOQul9znq9aY5YVuoOSi6nDlNXb04bgcmORGn\r\n5jhC6xk49OgNOUTfKjlkndc4UjWaOZY3yTgehaU4jwqSOS4bKzkOXXE46n0wOeNeFDmVGWU48uny\r\nOExD/zhYCTQ5xBtNORo86jgwlGQ4gKaaOEFz5TgQ+J04ejiLOX8HWThI/ac5idwvOYZPQzkamj85\r\nCxgBOeJKhDjxQxw5ChhLOPSpTDkEWAk57tU7ORyQhznZ33I5auKeOPCMoDjh3OM4QiWsOIKQjjgx\r\n6B05ggCoOOjrqDgR9Zc4hW/GNx0XHDjMzeY3qrOeOOG4FDn6Kvs3JF/2N81Eyze830c4nDgWOJJi\r\nNzgMQ084cFzoOAjYjzhdMDs4djvkN82EwziM+XA4e0rkOPtaOzjzkCA4QOOhN9rFaTixRss3zw6s\r\nOMZgMDhl0gU5Gg34OCkpIDgKras4ol7MOLtzETlxoGM5uBaFOAsRlzjyvrE429bKOO9SFDmFPFk5\r\nJufEOLGBCjmzJIY5xnHtOAddVDk5xwM6O6mrORv5yDmf+lY5gbSiOcJvmzmyQhc6SKQGOqzeMToS\r\n1BY6yJP0OWtxkTn0gLI5FhAROUC1RzlOJTc5sLIkOOnc4jeLujo4Hjt1N03A4zerax44yTTZNyeP\r\ngTdW/pk4UIMZOBuJADi6dhA4MJKkN0OtVjdTXAY4mL/uN6/QXDgxZ4U4GDlhOKqBBTgBnVc4qdYW\r\nOAJ1Vjh+TM43nNyAOH2nqTiecN84bauPOPZPuzi+d3w4Ofp7OIAtJjhRRJU4pm4BOWx66zgJ2vA4\r\nzXmQOLrNnDhegZk4RixROPsHlzhiEjQ4nAlXOOO+ADkk9Ys4CZ+MNzj7iDh8V/k3rR2jN1g5zTfU\r\nz9w3McxpOMOfzjgBE4g4KxixONC8Czm4FJM4VLkHOUGn8zh+3xs5T0J2OU8FazkXftI4lQ76ONQa\r\n7zjsDno4sPCjOLOITTgiNTc4lWp2N4B6mDjY7oQ3Ns1xOBKrATirSCM3fMuMNwzcnTdR6Fc3WJCr\r\nNwbFXzcwXwM4mcY1N1xblTd7/hw3dGFINy0tAzgo/Uc49VWzN0Ay9jfT9TQ3xmwwN61ZjDfoBUQ3\r\nVSVJNzaHgzc7HSQ3x66ZN8CosjbqsYA3IW4INyHVJDcQkwQ3xGLoNk5MLjfYXP42FwXnNmSihDe2\r\ndvk3Pn37N8A9zDe1nTI3i0IYOFBLRjjgTlQ4DgUDOLe/ITgHBCc4s8RBOHcD2DfAKt83xOiGOMWr\r\nljjtrF84Bq3CN/cRpzcqhlM4Ok2uOGa6aTjq0y04xJznN894LDiULRA4DzSFOK4hcDgLlgY4asg5\r\nOIY8mTiOi4g4HoFpOC1H/jfqNuo3gZxpNyl71jeHQwc4QnbTN7Lgyjcfhdo3zOYTOEpNojeHpH83\r\n0nGCNyc8UTccfDs3sQ5JN6bnWzeF+B437rTnN6cWCjdDXrI2VdQLNwU2uTaJOAs3pT2CN+ycKjc9\r\n1Jo31jm+NviABTc9R8Q35ExXN0rD1TeZZL43ct11N6eUwzfi4gE4pAp4N07j8DePd7k3xmCFN3J0\r\nYjeJjLU3w+uTN4peEDe/8x4471tKOGTBJDhyoAI4GEj9NyykYTizex04Sj4FOGJxyTdq1CE3uwoY\r\nN1TyCTdcVSg3PfEEN6pCJTdiEbQ3vo29N9Zf2TcjMrA3eVmRN0ZCATiPXjg3+nKCN9xVXTdFAsM2\r\nroplN1jdCThetTQ4Z2bFN7T/3DctRko3tM1bN4aM2Tc3KJ83PvzkNwg3xjZp3tQ3AttmN7JyAzch\r\nCh438NlqNiCb/jYOij83K3ggN/m9Ijg6nMI3ecWnN+YK3jbLA5A3qh+ZNyG0DDiQFQ44rvEHOE5A\r\nCjhNi5o3NYbQN2oIgTcI96U3JSxGNw5cyTfB0ww4t3G1NzB2wTdHYXk3RPBdN5Iu2Td4URc3FmVD\r\nNzNVsTfrQJc3W9ytN5rzKzioaQg4KvuiN3mvTTcCSWM4v8rINoHEHTgKVTU3b+IvOGOaODfu2tY3\r\nTuS6N+641Dfc9hk4MGeIN+EnOTdeZ7c31llZNwh//zeRHdc32aTvNvjusTdWO2E4PI9KOOd6ODeI\r\n0mo38iQrN6KTgTc+wPc2dSh2NukFlzbG9qI2Sno1NxmRnzdZQQI3gCtPNzXDRDenMYI3RU0VOB78\r\nkTe6fBM4ttL/NysHrDeNZC84iU25N7oHhjdEBVc3I4RhN5APTTdmDGg3hcyINvhEKjf5UVY33F1N\r\nN5xF1ze93bk38jiKNw88ije0coU3FAYfN19jtTfwD6c3G3giOHS85zeI1qk3QgC+N2BBPjcAIC03\r\nWK7cNiIdrTc2Grk3/JCmNzRNyTeKh4s3RFRMN2gKpjeKFm833WWcN5dNJjiQL4U3VliFN7ZsrTft\r\nvBs4KlJIOBHeZDjwsWM4vBgzOBZJJDjl9PI3SvJMNw1h3jah4rE2GlmaNvB6iTaM0qM3sYW4Nhsd\r\nBDboPrA2IoZlN4hltTYDVb42FZ3pNu3MJjdPjpQ3IPi6N181MTj8eYY4uoDAOGo9tjhN1HE4+EwT\r\nOIyxLziPXgc4V0CfN/ihNTc5WKE2qSk1Nx695DfcsHs4sIugOA4JnDist844h/W1OB0eITiMeDs4\r\nKT9VOH/7IThT6DM4CLDUOCVj2Tjj/rQ4Ql8WOMbnVji9XJA4OjaLONhBPjg4YhI4jbWqN9t4MDfa\r\nwIo3xIntN+ivzzdbjdk3aYIcOKzXMDhZaw04AjHRN1L5jzfeYCY3ZqmgNw2VfDd+z/o1kymSNppZ\r\nyTZThLY2+FkMN4FAKzZM6DU2HAMvNuRFUjYC+tQ3ajyLOLlllDh5swc4+po8Nh4B4Tbk4ig2uGi9\r\nNrgPGjdoeRE3H+hBN78zbDcy5Co4f0OvOAgnAjkJdA45CH1OOXwlfzkYuHI5ip8fOYAR8zh4ios4\r\njajKOAA8tjj1DGM4eOtoOL5O0jhPAQU5jSQ5OfYyfzlq+HU5qHWCObWYeDlslpQ5QfCiOf1qUjl6\r\nAiQ5u+sKORtBxzikhOM4Vs9lOSAThDmeBoE5ptvKOfIbwTnpnpo5U+FJOTmoMzne3c04MIJmOMvU\r\nrTjTS4E4XOAwOKJBIzg6GMI4VM4qOXSYHTnTNIA5Dc7COc2QsTmepow5gf+mOViarzn49Z85mBAu\r\nOauxQjgJEZ03f7PWNyn2HzgJi2U4PgEkOVlmPDnsWZA5QZjfOXe08jmIDts5FO2zOTDBljlywFs5\r\nEjedObm1wznV2GA5hjkSOfhkZTkZRKU5OwefOWh1qDmu3o45jbq6ObrToTlsjcM52fOROf/9azko\r\nOXc5YHNfOQLkNDkj+iI5sm/iOMKzgjhjUSk4wpIDONhLnDd/GMY3kIRWOOVOrDi9f9E42aXyOPWa\r\n+zjp4Qg5gvuvOCvfgDgwYFs4+UrgN3oMCTeZEQs2im9ONpUuLjfhWgQ4jPh9OBqchDjqbWg4cPKL\r\nOJLrjTiN9Co4bLq0N/ESgjfaDN42J+z8NTfSezbfUBg34L4BN1oKHDcnWwU2KvYvNgGNuDYg/ls2\r\nSEzKNg3CZDYaQVo2OQyINtaZBzevgsY2GEgjN81kVzdSjEE3M8g3Ntb9MDbcpQs2BN09NuADNDaR\r\nbQY3ua96N95ngjeO7fk1XxsJNiR+2jbe43I3kNMhN3o3LzfmRAo3ZhMQNn5u1zUygbo2em+cNqjX\r\njzX1m+s13od0NTeKzTWdXHo1dySSNXxKgzWG2+U1OeDKNUT1EjbmOHU14cKbNdA5pDXVF6I14Jib\r\nNfbWlzU1UrI10MQ0NUTImTWMJZE1ob9KNZ2kmzX0c5M1L7moNTphhjVIhNU1/peXNdCPiDVWkwM2\r\ntgzLNUyHoTXZUdw2T16ENuUVMDacFrk2GjDANlo/ZDWAUJQ1DjeVNXVIKzZuoMI2vRxlNrzNTjaH\r\nZU02wS8/NoSzfTVmoN02lWESN08ajjXZm581CYpBNT7q0TUaxy02qqv8NURwzDXexsQ1KC7sNYxZ\r\nqDVfSeo1WSvjNdzByTV1+YM18vQVNo56ATZiMts1K9AHNnrxMza/44o2vWuANRIxGTYH/ls2EUyE\r\nNqztEjbO4UU2cLG7NcR5jzVTsHw2DvkCNt/7+jVmxps1c39iNQyw8DUCCPc1VuPLNXmjqjYqLzs2\r\nC5UONpbTbjZDFjU24pfANVjLHDaY2Bo2j/OFNRy4lTYTHTs29VGkNWTL6jVva441wUJwNbNzBjbH\r\nL2Y25Ji7NfcV9jUmPbc1SfU+NXcT3jXLDo42duVGNlHoPTYBuak2cUOqNTd09DX64Ro2EIrnNc18\r\nPDXM3cI1oqflNdavaTWgUGI1xIpuNSxmUzXx3XQ2gdtGNnOXpzUUM6c1lHaDNVy1TjVGxMU3anKX\r\nNzWtTDc4an03SGMpOALBwDjsvkI4+AcmOBiHdTg9Tys4VXybOP8efjjYu603rORvOFxLTTj/MI83\r\nl+T3NlO15DZU6oM2ukBIN4tQ7jehb4c4Wzj1N2OGCjm2Bi45xZ3pOJWtmTh1bZw3rFb2OGJmxjjJ\r\nhAI4RlHqNwRPVzdBOpk1uYuoNcSvmDUVU5M10cbkNYDKpTWUMcE1CuVvNd3LuTUTp341euKuNcaR\r\nqjXNWao1kQqRNRroVDV+Al41ZkkWNfdHwTUUPWY1xekMNq5AUTUFzpk1endZNaDTTDWnpbI12iDD\r\nNb1ajTXoIFI1aDInNUKUTTWweTY1EH2FNexwFDWdCw81mVizNSswxDU6EZ81IUiVNTmuXDUoULo1\r\nKVBpNV5WizW02Yg1C5fFNZBRfDVT6YE1j6+GNbceszUwpZs161JTNXAklDXqgbk1/06WNROv5zXl\r\nHgU100uSNUgCATZ3Np01yY1cNRj8pjW1RVI1uq/FNRCJojXawIU1viakNb9DyTVubEc1I2SoNY0c\r\ncjWb9uY1yCM9Nb6sWTXMwZY1e2UANW4JITWGL6Q17o+DNcOgPTWNIKE13JEmNUKYbDUDBSk1MkaK\r\nNUAEZjXfz0M1WfSQNeTyvDUn2UM1K08XNSbBPTWuvno1bLC4NfIPqjUJmC01RMR+NQAAyDX4VjA9\r\n8EMMO0TZUToh9146OPhCOqspjDp1/TA6tGtXOtH8oDqq3Ww66E1ZOnJXvjqz5cg6rAhhOhzjrToK\r\nPwE7vNemOgQzxTpM+ow6Gjm7OrXF8ToxiYI6aLRcOqeRRzqOjY06/9V0OlytRzverUs6PDSCOmvd\r\nhjowJ+U6yaxiOjZIkjp85uU6nw6pOnV8ljohmZk6lB+qOuAaYzoTY0w6PgG0Oshk1zoyLLA6kgqq\r\nOmKnhzoAIu85Wc3SOWJUDjr4Fu46kM7sOoYrYDrpCnM6QCDSOsghzzkqsD46PCeoOv+jDDok6Ik6\r\nVm2kOrOYmTpjIZA6jYWnOnMY8zpfXpI6Nxh/OgpGGDpveSk6vl/bOgwOFTtXLcU6aGcAOsI0Hzrq\r\nCbg6gGE7OibupDrYAkI6Z1uYOg9DkjpJIhI6LQ01O8S4SToVQSc6jkh7OjIbjzq4TJo6FQCmOmSp\r\njDpUtq860bchOmatBjtwzH86AtuKOjafWzomdPk6QOKqOsQ7/TlZKCo6FVuJOtnEgTpUF5069XYI\r\nOgv/cTo86Gw6tP0COjqXgjqZmwM6WA5zOpqjFzu/yzw63XHIOjRjTjpLLRU6IuhKOvsBiTpivlU6\r\nUr8yOuDfuTppUWA6SspyOlWenDrkS5o6UM5ZOvC+ZTo6hJg6GYuvOrHacTpcghc6hbhJOl9a+zpE\r\n99E6GqI9OqJoSTv1IIk6bmCQOpwsajqnBRs6eFBKOqRWMDqbz806WxVwOmp1+DrBeDI6p2P8OqQW\r\n1joRg4c6buKJOu+y8Tow7x06NO/rOjTDtzpqlHc6lbNHOuTJTjpGjzc6YsjgOqSHJDtUeYQ6r7oo\r\nOorVLTr37gc7rvxROhG0iDrCH9k61cRMOiAzpjr8TNY6i4swOpSquzrcyag6ddimOuqcQTqI1io6\r\nsJhEOmid0ToOpHA6qG/vOrpj4DrVjH86C5yNOib0RToBXiI61IrEOkTKgDrykk86INi/OrrJgzpl\r\n99U5LtaZOnR7LDoqq5g6zbliOoFgzTreJ+k6vGApOvp+zDrLDrI6ohbZOvXH9zodoT461u3jOkkE\r\nnTrw4Vk6Pl7MOtOQsTpSWbc6ck2eOkAq4DqoekY61CSGOvoCkzouUL06+f2/OnZBcDrc2Bs6jJBp\r\nOu9Xizpk73M6xp3nOq11gzoSBss6qs9FOivTkDpvTz06vQWvOko2rjpxB7c6wVwCO9SsRzrhIIA6\r\nDSULOhHRfTpKAsk6hsDhOjCAPTp+Puo6R12IOpgvdzoavYA6ihoiOl68jjpAGT46JvDdOmVphzoV\r\npWY6LcQEOpBL8zkyWC06lIkcOqt9YToZIAw6qfmFOn5f4Dnkl/o6HilZOifCkzp/KWA60AAiOj37\r\nljrMt5o6hxenOqjfwjocr1U6ppGpOtWP1Trtobo6QeAhOof7wTrX6MU6UMRfOiSxhTrKypc6haiM\r\nOgxYiDo0azw7qOVtOjpBhTqi2G86aH2IOqRYQDrUro46xl2xOkj0zzoydhA6FC1gOrBcqTp3scY6\r\nMF/nOs0CnjruoMc6qK2JOvnfHTpv9Wk6LOaGOgqunDrC4HU6TNr2OTQHizrFiBc6mJEVOieuGTpk\r\nEZA66vJIOuzsWDp/Xpo6IuM4OgksQTpVNsc6+CFtOnfkpzpIfko6TlFTOsjUqTo0rjU6R7GaOgiJ\r\nkDpvugE6ndk+OoLujTp0JYs6/aeBOhqpbTpaPJY6CJPLOvsZSTqNIbg6Kk2cOo9MBzu8Dok6suxk\r\nOmTyRzp0D786j1G7OjhIsDpD61M66hS6OjWVUDphTR86zmuPOsggnTqi91M6TL8mOrFUqzq8sGw6\r\nwB6FOvcEiDpyW5c6wCLSOsOwDTsWYzM6HxFvOtichDphUKQ6WA4pOt3TfDq7r+Q6EmaJOi8KbzpV\r\ngUM6+luJOrBxjTqHaPc6IlGfOuEbiDpDVR06sTDtOe7/5ToS4Ls67oR+On/NWzrun4k6Rp/6OSBk\r\ngTp2Wco6D9eFOuHRJTrxj5M6NgDfOs+DnDoyHZw67E4YOubb1zrxxJI6/4mhOt+R1zochO06zGop\r\nOkrbNjr9t306XNerOrNqwDp8VJk641gsOouz8jqtGIg6yGifOmTbHTrEKsc6H7l/OmfqjzrAth86\r\nVhMVOt1KDjs8gXA66AiOOvStpTq8m1A6XkaLOqLFhzru8Tc6wLpnOopLYjqQkUw6LA8xOhDv2DqB\r\ntDc6N76DOuPdlDqiEJ0644XoOvpkhzr+FIQ60y6wOtpUhzqb3Os6CIS0OrwyfzoojGc6M+ErOp7G\r\nJTpq50A6YgiEOhpcnToqkpE6eahtOh7cOzrBJDA6AVXGOudiuTqdWRY6YZBCOpCFrDqGyHo6WD8L\r\nOmvsdDqj22Q6CZqaOn9IcDqnQVo6tbqbOgxjZTr0c5U6VJ2FOkI7XTr7sS869KsVOggcbTrIrYA6\r\na+V0OgUFoTpKB9k6bWZvOmKrbzoX7S46t9BKOn7MFjuuyV86CO0mOjJdQDranVc6g896OoypiDoh\r\nLSg6hURtOvSTUzoXVhk6+FCSOozeojoqUKM6stotOjbXZDoxEHA68yeIOnJcUzo+w5Y6sI65Ome3\r\njjo4iAA6hnYJOkZsoDqhvms6QunYOlirhDp2FXg6hvOeOvQAjjoqIpQ6xQyAOjp7iDoX+fo5yaOm\r\nOvYgTjqhLKk64MVzOlainjq/J1I6FC4+OqtoZTrzoko6Vrp0OsgmZjrBu0Y6el1xOkAnrDpy0606\r\nI0hSOgrMazpKuTU6vQ4tOiDGTTpOAmo6mYGNOkbkgzr2c5c6mhJHOqotxDpsN4c6UVzoOnIEIjrm\r\neKo6AniUOt5Xgjr6WGU6R1GBOvNe4To8dn46AqjOOjsP/zmAzB86xDJ8OpFuwzoki0Y6ZrF3Ogp5\r\nTTov1fU6XIG9OnGcGTtwVl46PyKQOtahkjqAsqc6UNICO2SV5Dl+ESY6iREPOnY4mTrCRac63qpe\r\nOngCxDo71JY63kmhOjf9cDrRyiM6FCGcOiB9cjoM/Cc6V1RpOixxezrGd1I66KdZOlRZMTrC9ck5\r\n7W+VOrF3UDqE8UQ6a3spOhZl9jmh+Fo6u7kROkCFHzoS3Bg6KJmLOhXNRjq2z3w6zzOUOuykJzqc\r\nm2U60HI/OkPwrDq0pwM6sBolOoR6dDp2c1I6qMmWOqbbxDqMfJI67yuTOorkZTquWps6dmN0Ovje\r\nMTq5FqA6gDtDOov1XjoizH46VwKDOsfcWDpaG6c6oZa8OU4RdDpA3H06XceaOoFSNTqNDWE6bZ+O\r\nOj6Llzovmkw6+W5IOn8YxTouEpo6oWI0OhGeDjpLJ0I6EouOOgKwLDq5F985+GUOO9h+uzrk8NM6\r\n7L62Or+ngTqinLY6V2AWOgVSqDo9Ti067/9IOlCtyzoFlSg63DEMO0T4YTrFVJY6NMZIOsI7Szr1\r\nEFI6hA8wOp7BazpF8ao6Nr6YOorcDzr6/zs6FJ14OqlOnjozN4k66Yc/OtlOfjpKjtU6CWQ3Ojxl\r\nrDo9RhI6priDOn0ejzrcx0M6QCaYOmy5izopb4c6erKpOmqu9Dk4Uw86kXehOpTtdzo38LY6262u\r\nOrUUATuQXGs6HWVcOuVdqjpVDyw6EZMnOuf0EDq+PDk6zHFgOmE/jTogukM6amk3Op+dCzuCC8k6\r\nhHWSOkQ+mjqivl06Q2jAOgcWVDocs446jNxTOgSXrDp7j8w55EvEOQzIlDow6U46shY/OgQ6jjo9\r\nmIA6XQCaOvJqZzqyKSE64X1GOiN8ADp+3S442/mdNwBAOjd9ryc3uWEdN54qFTcypNk2SUXONogu\r\n0jZ24KY2wbepNsF8mTYgrLk2zpmONryBmzYoPYQ2ZbGUNrqxOTb/X002GdtENuiYQTa6zTQ2MI9G\r\nNlf5STZOSyI2nZKENsS+vDYH4a42FDrLNnKCFjfottc3gE5jOdmqSDnOtMc4N6VwOcdKBToSC/Y5\r\nBlYSOibbIzrCcVg6ehCqOU6A6jnmtJs5QqeuOZQBFzkkSTw5MQJNOXOriDlk+Ho5j7BGONHOuDi0\r\nMYA5uvh0OeDAwDhZ1xw5niYQOhtAETrH8Lw5mrLXORj2kzmA1ko67MIfOpEBNTm0tiQ5xKTeNkyK\r\nzTVRBCc2PJGmNf1qBDYCYxE2Lse+NfGeoTWOHKs1GdC7NV8xwjWrtJo1Kg1DNjkKmzWWYBg1yBiR\r\nNQUcRzVZF6I1TOOFNQoxojWSVKc1NkKWNZbrXTUMzpw143iKNbqIODXbaBo1//WGNeM6fjX6Y3k1\r\nBNMiNTtGwjgCsR050z6bORoexjkvzwk5MlVxOJyzUjhDOyA4IOhcNqy2KjoI8kY6nDSFOS2rMzmc\r\nfZ45KJTOOMJU5zmBv9k5TDVTNTywWjfAh+o4FiFWOTlBjDgFk8Y3o4ZoN6/XPTdW4Co4zWBwOdLS\r\nWDlkb5E4v5XYOEJXaDlDsjc5DcdZOY4mjDl4Ywc5O6QgOZ4Q+Thw7cM3YgMZOsgAVTprBqc54BP1\r\nOB0hwDmyipA5G13IONx/iDjH3AA5qWQwOfb9XDm5Q2c5XdadNwPOaTfoceM3Ju/yOAFglTmeFII5\r\nHRW9OIIinDnZrpk5ekSjOK3BRzhUeWE5XWeqOeX1kzlrw6w5QUX6OSA5bTkBU544Kmh4OP35Ijg1\r\n+U04GsAhOYADMzmkFt04B1VROfH9BTkMhfU5EhvjOfW0yTjuWAE6ILQyOjhvqjl27gE5ZgxYNQI2\r\n7jnk7Qw640ygOHAZeDiZlq04T+vIOLRLtTlKamo5y9E5OVHHZDnZWWs4noG3OISfXjgk5Xg3yU9H\r\nNyD9ljf8xic4CE+HONTUDjgVJgU4vHdLOIZ0wzfIGTw4bHdaONHiqjeeRAI4DvoKOML2eTe4Mik3\r\naNnRNVLEeDagMFA3Fm52N3VQPjhW2xA46FPcOMRoKDmKSvg4Xe3POCkCjDdJCQU5Ahz/OOyGMTiq\r\nYw44cPV5Nx/AGjUqu4Q1Ama6NeMWwDVLwEY1I8QuNVBEMDWhIcI1qOAWNcWsNzW+IT41zENLNVZY\r\nEjW+dio1Cy46Nc314DSKlgc148hWNW0BqjVQ25k1AqwWNSdgHjX59BQ13x6qNRUVaTX7D041n/wV\r\nNUrBmTWjTQM131iHNSFkQDXrL5U1yJBKNW1t7TSO9Yo1RJAtNTG+jDRorXQ1xLQzNVtmMzVe2nY1\r\nnKBVNXgGnzVgEEg1TRo1NW7JBTU0tRQ1P8m5NQ8uAjVhC1I10yNJNcL5ODWS6kU1Z3RdNbGfMzXy\r\nJAs1Wz5QNVpkRzUGJ3w1b+eBNRJd9zTY9ok1aGFJNbxWtDUrnyU1hYqzNXeYVzUYxVs1OTFDNZDA\r\nUzVPzgc15/urNVpmkzXVMz81M1wUNYONZDXEjIc1fNpINXcH/DRZ6BE10mswNaA2UDUo/OE0NpkQ\r\nNd+iDzWD6WU1VI5rNUgaPjWpuz81mNX/NCOVKzXL1os1UZ9BNX8XgDUqI4U1AJAvNg==",
                            "noiseTrainingType" : "default"
                          }
                        }
                    ],
                    "start" : 4616,
                    "duration" : 1330,
                    "mediaStart" : 39,
                    "mediaDuration" : 1330,
                    "scalar" : 1,
                    "metadata" : {
                      "WinSubProjectDisplayName" : "",
                      "clipSpeedAttribute" : false
                    },
                    "animationTracks" : {

                    }
                  },
                  {
                    "id" : 54,
                    "_type" : "AMFile",
                    "src" : 5,
                    "trackNumber" : 1,
                    "attributes" : {
                      "ident" : "Aufn. 07-05-19_017",
                      "sampleRate" : 44100,
                      "bitDepth" : 16,
                      "gain" : 1.0,
                      "mixToMono" : true
                    },
                      "channelNumber" : "0,1",
                    "effects" : [
                        {
                          "effectName" : "NoiseReduction",
                          "category" : "categoryAudioEffects",
                          "parameters" : {
                            "denoiserAmount" : 20.0,
                            "denoiserThreshold" : 0.0,
                            "noiseProfile" : "j92QP3uwBj84eHw/1PNKPbLqNDyIWRk8RwDkOzQPCTsMkKw7SUoUPCyURTvWA+A7V/dBO4Cyazs4\r\n/dA634WjOk+L4zre1HE6Bx42OpBBBjpaEwU6FBAROpsT3TnKptA5sD/7OZLysTl1Ks45iNPNOReh\r\nejkWtcI5ATF5ObcnqDluDUE5xHZWOQvijDk4VGc5o+0SOi2naDlOdYQ5TJ2DOaMuUDlitcE4qygF\r\nOUhV9jg+sBU5qmbkOPgBFDnhK1Q50H+BOTbCBzka3do43yUcOV4NQjmZu4U5tGvsOBVGAjkNerk4\r\nCEngOHjADTl1eio5ZjChONgt3ziSn2E5RwYLOFzRATkYYwY5QULIOL9XAjkiNEo50zQZOfPXGjlW\r\nTrY4IUE/Ocs0FDkp6804yFovOThbIzkaOTg4ODFUOC0uszi7VF85+WGJONMy2ziDA7k4cutPOOYp\r\nmzjucxA4mzZBOCwcfTi2ML04sH2TOHw/PDhMpu44nNaeOIa6GzlaMFg4XM6xOJ8k9TdR3cc4g7CN\r\nOCLcsjiB94c4opUNOMo7YTjfqao4y0m4OCtZiTibUgg4rSDqN0oQBjiSigg4CFApOCGo6je+pCw4\r\nwsUeOHwl8zfMNsU3B8SjNywEcDetnqY3yhWGN9Tv6jfsX7k3rxvXNw7Cyjfzeg84hIWwN1uDljf1\r\n5XQ3MK6bN0jVgjfEMF83OCuAN3v3szeHzLE3EHMlN6ZpSjcqfwE3XI/YN28niDemyLQ4Hk8wOAYN\r\nATglrFw3dEqaN8qBMjf0x/o3bj5SN34PpzcUTHo31sBfNwjr2jes5Kw3e2AzN+/+EzdJa+Y2+pEv\r\nN9R/UTcUYSc3VohHN+E9kzcqpKI3UyZLNy0tkjfolLI33ZaIN25+PjeRhfM3HBLJNx6W2zftb3Y3\r\nlLTJNpN/RTeM6nw3uWO1N7o7mDY75E83vHDvN38EBTeYijk3NY5lN9vfvjf9ckU3+lX6NrHIKDfD\r\ncQg3jvh0N1pAfDf03MI3n9WVNxJwezf4jLM2ZxaWNo+qtjYKIZc3p93UNsI1kDYICBo3NrdwN/jY\r\nfjesM8E2O5MgN1n0XTccdOA2+jSPNwXFdjZW0L827/T7NpK/ljYPLOM1r52uNir/IDe/0mw2vqWU\r\nN2RgEDcWRmg3C+PbNmhwpDYPN9g2Hq+eNh1sBze2pBo38fiPNqNX2DbxSYw2TA8jN4bQhTals542\r\nWBQQN0Z9kja/EaY2CmFMN2mI/TZV7y03oybXNjtapzYaXi03PNBuNuTv2zYrR+Y2+xqnNrFsiDc4\r\n/Xc2kHYdN5novTaKQbM2eA8AN/SNqzckxRw3MrK2Nng+BDfpypw2wZEGN4r4hTaeuug2u3nLNkIv\r\nRzbrzXE2dPt9N4/7MDYYeoA2MZeyNm8F6Ta4Q2k2pmGRNszsRTZEn8c28hLJNgem1DaJMQQ23OER\r\nNziG0DYh9eA2bw6FNrrG4za/qfg2z1sUNlH1/DYu9QE3kBhbNxN7EjcNUM82hIvgNhywKzeoHZ82\r\nIomtNpH9QjZd1fo2n3rQNmRcoDZJ6Ac34noCNzy6MzaiDJc2BXOJNqAzeTZd4Wo2emytNsoDDDf4\r\nBm02k7QIN+y4mzZWcGk20kqNNkrvnTal2iY3N9SRNve7cDbuXog2bn99NusDmjbKCmk2wIOWNtQF\r\n5TVai+k2mFRvNiyaDTYs7Ms2YeXjNoRM6TZo4kA3QNyUNkf7qTbgyuA2PHWbNs7czTYL/mo2FjQu\r\nN1aJGzdOzbY2jBRdN+ybFzce6KA2ajmBNrPhWTZvkmk2BJu7NsIWezbNUlI2vExSNrK4gzZf3qU2\r\nxERwNsrWtDYowaI2mi6fNncbJTbPWlY2/YkoNtUqqDbs2oo25KQbNjbDGjbMV4c2e1/FNk+dgjau\r\nwOA2MpGTNtk0WzZyZI02paH0NsockTaHkms29DkJNrLf+DZKIZY2KOaZNmqnyzZSz1c2aZhRNk65\r\nnza8bXI2LrFuNmHsfzbWvtQ2T6qFNkTbkzZw6v41VmsoNtJeADZQsVI2wnNmNjihgza+npY2HHXR\r\nNWxZ4Da268I25cWUNgR24jX5Kbk23mD4NljeMjZ+WCA2sEKENnDLazbcxQQ22viWNoeAgTZAFUY2\r\n/+7MNbI2rDZHAlk2HF6mNgfJxDXz39w27cx3NhyVizbmR3o2yTgxNnV5kzbH95Q2WRBJNpNzeTao\r\n/y02ccYvNtTbzzb66xY2vqd2Nuw0QDauP842iP6ENtsNNzZ1bpI2IZA6NvwenjZRH4s2JnvgNXq6\r\nJjaAsTA2xg+0NTefOTbEASw2vPErNkC4Kjb5qHI2DeygNjNvHTam95s2iD+hNYFoGDaDbZk2xLMo\r\nNrafbTbK3Nc19pAgNmuKDTaUh5s2dpSNNtzs6DV+hk822A4VNlRwzjXe9aA1oSAQNtSHzDUfooo2\r\no1cmNveVkTbVnnc2kKfPNZbXKzaHKo02TH2aNry33DUd4WA2iaMrNlyWWjaI/kg2SW9PNnO8iTYG\r\nplI2ZyNxNkaNLjZPxLY2ahBnNqlyTjZdlCU2sIpKNs7hnDbSGzA2xjjmNQiWczWsZ4k1sL2ONVY1\r\nwDVJJrQ12uycNYoebTXW3SA1zmiFNciXYTWLV2k1Vz30ND07FTXnhQQ10LlqNbidBzY0OJE1j2Js\r\nNS40gTVafaY1rsBmNYBDIzUE7TM1he9DNbvbYDVW3XE1WKlqNaB5hDVUBVY16MCKNbZSSzUAgIQ1\r\n7J5jNbjqgzVbIJc1/cgBNryjQzUrdQA2MEd/NRFzRjWOHQo1dDdrNXVOEzX490E1jjVxNQwDEjXL\r\nRWs1pByqNbZ+UjWEdZ4167eMNarzpDViZ2Y1fYqMNQpGhTXQg5415J5hNRTsSDWeXsw17zZWNRZg\r\nFTWIQAc10zgPNd1yVTVGYDc1UgncNawxIjU47MM08oX3NKpvjzWjj1Y14YpVNU/vjDWbbHo1zdcv\r\nNTzkSTUBHyY12jBINVgd9jQCdYg1i9MMNdX9ozXXWSw1frqBNWQVTDUxQ4o1GXXoNXS8IzU4kFM1\r\nlmulNQtzOjUi5JA1bQ6RNTPyITXMRK01L9ZINQIw2jVDmok1gLajNSFORDX44oc1JDlENSZycTXN\r\nzZQ1TFC0NQ+RjjW2iCQ1r3YbNdiCSzZDgh82HrdYNT+ddTXtEw82nlcdNtzVSDVUGRE2z2ETNv/r\r\n5TVTKvc1FSWaNW2OSDXqM7M00BxFNUrGLjVgzCE1bzenNWnmgDVtpaA1nPY8NfNhjjXMVS41cNhD\r\nNY4c0TUndag1QsoiNbdTlTXraLQ1C5iYNVBOXDWS1hk10HVbNR/APzW72FU1YnuzNbtZRzU/bpk1\r\nDIpNNV4X9zWDtKg1orUINfpeazVOU1o1DkiaNSHc+zWEDXE1aP4INctsbzWeQzA1GG4/NV4PQTbg\r\n+r81CQAxNYi3Gja2TiU21iP/NaP/CDbOMMU1AVuYNWzHODb2mH824bu7NWFgATeBRVQ3KyegNt4D\r\nSzUJ2aY1da8nNXIvjTU3bkA14h4rNUwxPjX2mqw1EUA4NTuikDZmBaU2maoiNirjdzVgMmE1Vbt1\r\nNnSaDzfa75s2C6SANaVAMzVUYAU2W4kjNUU34TT838M1NBIwNRF/HzWZsqA1b9ALNk7QqzXcOwA1\r\ntbiVNfRLgjZVCm82w8mYNVMFHzUlFWI1bb0eNnfb/DXdrAc2zisoNRaxczW+osk1efvvNhyhcjWA\r\nT581bbyONTZ8STYZzxA34kB1NrhAaTUA1ZU1L5D9NHZGVzUWUg81lLCKNd6d8zS3+wg1rJgMNd0F\r\najUQDfs0INIONUXHIjWO4LA0cIn2NJHyODU4uxY1rjMtNZARQjV9UlU1UqoHNYLMHDXnMjg1wstt\r\nNbhYLzUrUt80MHOFNQQbLzVwDDk15NG6NOSKRzXaz/I0sHCPNd7oCzeWIqM3lD+6N91XHjdi67s4\r\n89eDOKhQlTi3Zck4fcdKN7ft4DeDXcA3MXywOO9RjDlF5ko5Wh0LOFLzgTdAIZ83xRLPOJZA7Dib\r\nRYI12RxMN86emzjlOw44096ROPA2hzgnbZ433qw1OP2YiTj+Kaw3cMXWNqLu4zZJ+R44tRMWOORS\r\nSjU+brs0F2OfNUJKJzU9xrU1yBFrNZ4k1TS3w/E0yYrXNGSHhTXFKx814FS+NMEYPTXrS4g1LTG5\r\nNOYlYzXS4IA1rNUbNQmJiDUVzVc1HLxGNf+CfjW3zj01Dnb3NML2UDW0WlY1glgWNRcRkDXeops1\r\n5iEzNfeg3jSwELU1ykekNoHnLzYDVeQ1rGKQNWOxKjaCVks2xhyQNuafXjXEM5c1EZa+NtgDwTac\r\npbY2E/MQNrgFlzXKxdo1VuYWNiSLHTYkY7I27g+lNgphjzWlrsw1L5YlNq5d7TYZZqk2QK+RNl7n\r\ngTZXbM81cdU7NeYcfjW1AdQ1XhQ1Nc0YCDU73OI1HGYUNhkJ2zXNKQ43C4zUNrLSbjYHRhg1HTrZ\r\nNViDSzYGPGE28WyLNje2tjZ+l0k2pb8+NWfEijXKKFg1Ra/XNfJz5DYABQY38LF8NqeIhDb58aY2\r\nRycTNuPMDjY9AA82nkSqNeKazTYmRDA2OBjpNXRDPzbXMJQ2fuDUNvzwIjUu/0U1fCgSNSW5SjVW\r\nGVY1jrPkNPTSMzXudTE12X+gNe7NITWpmmU1vTFHNV7OLTWhFQU17pYrNXUvDjUuKAA1MfFRNZjW\r\nIjVU91Q1yrM3NSXEgzUIRZM0AfTBNFFRKTXYZAM1jIADNcApTjXRtgM1vOENNTIJIjUQFos1pcfa\r\nNNORYTUeyng1CTp9NUWoOTVdvvE0isugNSykDTV54Ec1N3U6NQ17JTVqyis1k7RWNVR13TTaj4M1\r\n+427NHg9xTQeUec0hPK7NC/yOzW3pQ41ljkFNSLdTjWmrlQ1loTBNJwhZTWp1Tc15PV3NVCx6DTW\r\nuNI0vRjZNLeATDXEGBw1KJLjNEB2+DQkaa41+lpANfrHCzUcxjM18MwRNYnTXzXU/Bc1keJeNZDE\r\ngzWMNEQ17WmkNZ9o/TTwSlQ14OdlNcRVczVnHPc0H3O0NKoLXTUqYE01jOGlNGa/KDXBRp01ZkTL\r\nNO2bpzRh/gU15CofNdgRGzXefTQ1WanQNL2zSDX3cz01PIRyNaFiRDWndus0Ltf6NLSREzV5ytU0\r\nOcEbNZdrnTSw/go1jSmfNOUlADUGD0g1fca2NLou2TRWrEo1sSjPNBYGzjR69gE1ExBiNTLVPDWA\r\nWXM1gc3CND3ukjVOq2E13WGGNTqNxjSmkA81C6IjNcDeTjXHl0s1ZnKSNd4b6jREyxo1yZvgNJQQ\r\nFTXKLWA1fOs5NWhNkDTB5RA152YFNduZEzXPNUk1GfoINTnFrzTX/ao0nLPyNIXtDTVqKvI0Cdoi\r\nNRXX6zQougs1KV4jNWTVIDVQRvY01PKtNA5bHjVW1cg0VTLkNKTPQDWTzsY00IkkNQAAyDTyHPA8\r\nWm5fOlXxcjqmK5s6pZcAOwiWgToMCvE6GqeHOpzGSToz9Iw6UAOMOr6JFjpB7S069KDFOrC5hzrK\r\nvQA7yJGEOrXqnjrr3ZY6sBs9OnKylTqzbnA6attyOuqcijpnaaA6VtcnOj5U4zp4SS46fZWBOqM2\r\nAjs43Ys6/cqROvYjnDqayGc61IFiOmR5xDrl+N865qvWOhMQxToR3Dw6yGVbOspOLjtbNAE76QVE\r\nOpb6XjoI44U6O30sOrHhzTr/oZY6QBWnOi1tEjooiMs6tk7COk5vgDqqE0c6KnHNOdCQaTom/Yo6\r\nOEc0Ord1bTo8gGI6bJD8Oo7srDogZcQ6UtFYOorZsTrFyZ46+XGAOvFCxDpqQAM6i7NQOrWugzof\r\neIM6sFMPOtWhTjqPTZo6rwJ8OnIdxDrKkGk6VGBNOnyKtTkP+8U68ds0OlKHDTvtZIk6QEGlOqw6\r\njDqqBsQ6SCGeOi6QXDqpHm06dDLGOonY2znUGMo6AvzQOkJ5ODpLUz06rGfSOgvmCjpuH5g6PWUt\r\nOu5SODo63Oc6NPp+Ov+xLTrpINI6NTeUOrBFljot24w66W0wOjOYrjpqipU6khSSOtXxcDowsqg6\r\nlAmPOh5ZVjrWOiI67uVhOns6tDqrXY861Qa3Oj1jAzsGSnc6G3e9On0xszqB8E46JMlZOhSKljq6\r\ncoI6b9N8OjubWTqwnmI6/fupOrXVnTqK/ys64fD6OXjXYTprnNw5aI0UOoF8RzoVaEs6dF6+OqVp\r\nkzpGCoA6Ysa4OkJ9AztI1IU6c0S2OrpasTp2Qow6675dOt+UeDpNAlE6HIBbOp3vkzq9+qY6PO3f\r\nOZB7KToMP8M6l713Ol4++DoJz2E6GFxpOlANSzrIJlw6F6EyOsrdgTo+VLg6bn98OquYTTo8FZs6\r\nnO/tOaJZhDr0pU06mIFuOqL1kjq0QKY6UZ40OphhiDr7Tpo6wALmOhjIdTookIY6OeqtOi1XgDqv\r\nHmg6rDWxOgCTATvH5IM6r1mwOgsmfDoW2p06n+yQOrqRIjo5qqo6Yk+DOjzJkDrcjYo6tAMmOoe5\r\nsDraqqU6yABQOmZ1Cjsm+SA6S5K0Or05pjooeaE602imOuZpujrj95A6e+qEOtFgqTq4Vmw6KQvS\r\nOs5FPTpOc7A6WBaHOpTnVTpIuAY7cEaWOr7IlTphmWo6it6dOhoJZDopKM46oIrvOuZSGDoRIpc6\r\nFNJ3OilNgzrnKjk6fVJ5OtKlWTp0jLw69AeIOgBCCDswKYY6SfSfOnG+uDoNarg6NhYxOhCsgjqx\r\nunw6IkVCOvZJ7DoGeqU6SghROhm92zqCVY86zEQ7OnfLHzoyTQg6UEhbOjA3lDqIbGU6lAk1OppS\r\nEjrHN6g6eqJTOgp2yjrmB5U6joOuOhK9RjqRRaY6+7ZqOmibUjpNsYo6AKR+OkkQfDpXA2E6ypBW\r\nOu7hOjqlXo06WWyFOhKMWDqEH9w6vGOaOrHBEjri3FI6iB+cOvSRajrucFw6vrR/OrgBUzpElIk6\r\neWt8OioyfTpGBqo6kweMOiC+TjpZQtI6hCRMOqwGXjpqzTk6C8pHOgEGMjpLuqI6U/6bOu5GATp8\r\naIg62l3lOmY4XjpzrVE6GML7OksgoTrYuh07GHBIOgdasTo5vGo64A2dOmquqTqv3aE634rFOkRg\r\nkDrL/0U66XhdOrR6JDti07o6V3JkOi6dmjov/W46eFu3Or3OUzrGk8s67DcOOqAKhzrzNjM6IXM1\r\nOo5frzrwzBQ65pA7On0nAzsZh4k6NftMOhlHczrfvpA675NZOh2YkjpL7W46HXWmOn2yHzqCwN06\r\nhrVBOrzwsDpeGLY6H/HPOrWVzjp63qo6wxvNOjESnToIzKA6WMnIOtJwFjqqaZs6w9lQOr7xVjq9\r\nT2Q6tBmgOgKBPjpZWbQ6GLNyOvgAhDrDHyw6iAMZOvCdJDqavyA6oKjdOqrjMzoEn+Q5A+EoOiSI\r\naDqrEog6aDUEOiKITDoSr4A6NvQzOmwROjp2Uog6SjQ/O9LRrTpyrhc6ahg/OtLijDqN6Lw6O0s+\r\nOsIxsjpM2Z06CRCEOugkZjpKjbg65u0/Ohad4TocY5A6JqVFOlZuFzuIP3U6j1qJOq2EwDn5HVo6\r\nNkU5Ou52XDoOvZY6DFWjOtnXSDrB1KE6uyWNOg4ipzp5v6w6BaMzOjqNZDq310I6Xz0eOm5Rgzqu\r\nSVE6mP6EOq8l+jqSvAY6KnKbOlUOXDoLkQ47K7khOwTpEzrzYyE6oA1COgrbGDqC5ZA6b1C9OZRp\r\npTp2irY6KRU9OrwkODqEmTQ6F2nwOeN5Ezo2wF86NPsoOji2FTou2W06OOcOOpQKGjqeodg6Dk6f\r\nOjQSwTrcVSg6vdprOlCoAzruXh06UdZqOiRiNTqXiAE7Hi9NOsgG2zpSQqk62lUROkZ/kDomcm46\r\nF0KlOo9MSzqOC8k6ItJeOhoaqzogeEo64M0UOpXuujp3h/Q6fMmMOoozAzqvLB86ocGXOuKvoToz\r\n7Gs6VRWxOvTWQTqUlxg67fhIOq5tLjrRfDA6v3VVOh7HjToOM6k65AktOi6r5zmcBYI6fogPO3Go\r\n3zrGVWE6WGT0OkrEozqR0Yc61BtcOvjXrjooBsc6yXloOg3YWjoYwOk5ijsMOgEeYjpvtQM6Q4ZN\r\nOsjZyTlu2z06MrWzOptAwTpEEZo6RDWIOmojNTpf2x86gSW/OlMdtDpI1WE6+oknOgiwjDpoKmI6\r\nthzKOlCw6jpIC8E6TX6LOmRyITqgaEU6Avh8Oig6XzrGkaI6z6qFOm4Jmjrp9Ik6sU1yOszjwjqp\r\nBIs6y6HnOiQ7djqVEog67CdNOukonzrjpzw67zEpOhmwkTrBFGY6FzBiOjq1Nzp0TBQ6ms24On6E\r\nUTod93w6rIutOo7MiTo4SJU6yzn7OiapWzqMTKQ6ebM2OlihDDsVelE6TJ2LOnBYvTkjmcQ62bRN\r\nOopEdjrcAi460hejOg6YQzpzeQQ6S0e1OtBnQjqypiE6Ay22OnhYjTrzQJM6VqmpOiwJRTqkhFk6\r\nUnfsOo3BoToQTUw6ejIoOi2DVzrtmgA7m1lbOqw6KDpYDmQ6ZLDvOjhSiDr1J346sJ4mOvicpjq1\r\ndjg6H1MlOkUObjrA4X060nnROgfrqTrEWV06p2M8OoXWujpgYkE6iNxIOtyOyTonyTM66oQnOoJ8\r\nMjo9z1g6pbiMOhY1ozq2aFg6tGIUOnO7qzqrVoM61LLHOSvYFzqKgAs6v5mUOk65nDqI0ew6CHGU\r\nOqIIyTqGkGQ6U1TVOv/BSzpS/TI6+GGYOiusTzr0w7o6EDtLOgTeTjq0Onw61IFqOs33vTplKJw6\r\nu3yYOqUEgzotjvA66nJ4Ou7rujqlzj06TTWVOg14QDpNymk6cG1hOkmeUjpKZlw6Irw0OrM9pDot\r\ndJM6UrdWOp54RjoaD4k58j1sOioqLjriF7I6wD0rOuLGhzpco286wZCROiZemjrw2Yo6kR+wOi3K\r\ngTomRW06vrOVOs9NjzoLvD86WafMOlIGXzq0oIk6gtbMOrzbhTrRZ2Y6GjgCOyOY2jpleZY6cV0D\r\nOiazDjoZi/U5rvOpOhpJYTpi4HM6XJo9OhTSTTpXtI06v+HJOreosjrEdZI6/PkbOvZcKjoMBR46\r\nf/87OnnzVjpXG7E6cLFUOmqNjjqU+yI6oAIvOkDvTDpgHF86imWKOqlkizoGbQQ6B8FiOoGDKjq5\r\nvKY6rpe2OpaPTjoMcZU6MWAGOmJlNjrshUQ4mHSgN1Jjgjey/0M3upUAN9DdCzccjeo2WF2cNnaR\r\n0TYUXa82zsYnNqP6vjZEghc2Nk88NlHWXzY6Yu41fIoFNn1QxzXAf1k2jiM8NuL/HDaUWs81zQsb\r\nNrO40DWrwsc1Q5sJNgDs7zUb0cQ18wjINYYTujWPCbo1zR5SN9KqkzcXurE33xtDN9AnrzghioU4\r\nBw2lOJS47TgqqA43b5uvN3zawjcAJKo40ACZOZDHQzm+fQA45zWCN9b6zzezv804xp/cOKBChjUI\r\nQTs3T+2aOCmaDzhF8m8434WMODN5qzcMwzY46mqHOMy42DevwR43EUcYN1gp9TcGsQ84ydCqNbmh\r\nZDVVXN012mIbNWdegjX8Zq01Q+tyNTbZczVQ2vs0X5SNNaPZxzWOYUM1xTj0NRBnaTVAgck1UeVR\r\nNWpTbTVQIjQ1zB5LNb6aOzUO9XE17Q4XNYCuODVzbMw06+uGNdRATDUKyKM1QQuNNSLzZzUWDCM1\r\n1awVNaPm6Df2v1Y5zTwXOYnkczkYEFI6NyT9OWnc1DlRico4YN2XOFsEsThIv0o5sm8bOf+2Xjga\r\nO584F1fxOVHW9zksKr44em3HOCnitTmaL8k5ZmK6OD3q9jcFs0c5bqXROSMOgznJHVU4mAlgOJOv\r\nADieEas4o8YvOYK9fDiTDi45AnZuOewNcDkDgWg5f7dvOKyW+DiMyNw4PDqnOXlPezkrnTU6/GGg\r\nOqP54Tn02Go5Vm4uONuWbTmFzxE5qLseON48LjjMUpk4FudxOEIyxTjTQ844AIbjOfBXBzpKPAU5\r\n3V4ROYrXmTlZMr450BRXOQh7oDifzac2xYe7NqyRazc+GBM37hYINbV6iDVWmOs02tdDNb1yNTX+\r\nFdQ0366PNQhl9zSw+PE0NLziNLTcCDW2XAM1R3a9NASXlDStCyE11JgqNR1PBzWUEEg1uKIeNbMY\r\n0DRgTdA03NyCNFPMADXQ/QE161QNNbtqwzQWxBw1IsAtNb9VOzURX9s0ho0LNQo2dTU09+E0LHYV\r\nNTA1jTS7OR81gL4NNaTjGzXIikA1JxLGNEKAuDT4mpU05U12NGJ2wTQPh8U0lXOFNPyQTTUAX8Q0\r\nnI2INYax7jRcbC812BJgNFwl9jQqDpU0Wp6yNLaRtDT0P+40ClpANSqjJzWo9ME0VFbWNGCXuzSh\r\nyBw1nabaNBUDBTW2gm01Z2GINeXmCTUVeSc1qGyJNYE99jTILgs1GwT3NEv53zQDhwk1/EYJNeRP\r\nkjStuX01Yqz6NKplDjXorow1YEjxNGNE8TSsCc80cHDCNFxb8jTG4yc1ToAxNduVBDV8sxw1spke\r\nNYOP4zQYMAU13SgMNXSYwzSZ0dE0HFSbNG8zEjVn9dI0XsyDNOFOATWyVNI0owUsNQjMpzT1SQU1\r\nLUwfNdBtHDX6CnA1bsKTNNS55jQ42F81kolLNbqbzDSk2sY0L8gVNfTA3DQ+hd008kAHNb/TazTa\r\n2gE1AOwpNQpjtTRMs0I16DHSNGgYzjTELXo1jNP7NEOFIjUa6iY1LhDCNJXQeDQiEWE0suN+NWEG\r\nDTVmThc1XZ4lNUWA6DTqNqc0YmTONKNU+jTf5nw0FtJVNS7/BjWQhpg0wCgJNceO+DTA7pk0Jar5\r\nNGOg2DRS8Jo0cCr9NEzEDjW7iFY1C4KHNLwoCDXd4Yc0j1rGNExztDS6kNk0AICQNA==",
                            "noiseTrainingType" : "default"
                          }
                        }
                    ],
                    "start" : 5946,
                    "duration" : 981,
                    "mediaStart" : 22,
                    "mediaDuration" : 981,
                    "scalar" : 1,
                    "metadata" : {
                      "WinSubProjectDisplayName" : "",
                      "clipSpeedAttribute" : false
                    },
                    "animationTracks" : {

                    }
                  },
                  {
                    "id" : 55,
                    "_type" : "AMFile",
                    "src" : 6,
                    "trackNumber" : 1,
                    "attributes" : {
                      "ident" : "Aufn. 07-05-19_018",
                      "sampleRate" : 44100,
                      "bitDepth" : 16,
                      "gain" : 1.0,
                      "mixToMono" : true
                    },
                      "channelNumber" : "0,1",
                    "effects" : [
                        {
                          "effectName" : "NoiseReduction",
                          "category" : "categoryAudioEffects",
                          "parameters" : {
                            "denoiserAmount" : 20.0,
                            "denoiserThreshold" : 0.0,
                            "noiseProfile" : "wTwZQLt/sj7Kt4A+gGz/PAOgcTzhYGo85nobPJgbwDvEKQw82WkiPP9IRTtpfu87DCsPPCKcJjuI\r\nmdw6HyGmOw1uuTsyyLU7aUuqO6NNoTvJcHw7NQ62O/vBKzsMqQ47BKb9OjIaRjtCt1Y68IaWOuTP\r\nYjpA1xw6cGeNORo7MTmCVtw5UGD7OGLbnzk4B485eRKkOTpWdDomIxM5528bOn7kuTnL/0g66hso\r\nOjSjTTqKqbY5dmoSOnowjTmGcTU5QvlAOScfDTn6URA5qStiOQisnzkBe0U5rS11OZu4pDkyRaU5\r\nlkfLOTOAOTqUK145FmOdOZUMuTlj8gQ5vmK3OdZCFzmLf+Q47ruAOffc0jhDEoI5Z7nVOHBIFzlA\r\n8CU5S/v5OA47zzhPjPU4QCplOR1llTjfXu84iL8xOR1RWTkseaQ4ZzJoOC01yTj+iJA5Q6eHOLGA\r\nrjj2yQk4brkFOcJiizj0dXA4oN4COZoebDiGhkk4nosAObrShTm8NBA4LN1ROEg8UjhDXq04c46B\r\nOHYejThZjN445FMpOFCt+Til25k4eR6yODpf1jiPMY04Fag9OHTpQjhquxs4f6EFOD4wDzjflB44\r\naaMrOPQGADixIyc4ah3QN3bl3TfqZgY4CizpN7WcTDgc9y04OMo+OHvz7TdpRhs4cAduOGw44zcL\r\nDw44eut8NxUwYjfPRgU4FJyKNx47ejcv+Ks3iJSdNxGDxTfrDxw3VjSkNyB/7DYe06U3iMSnN2QH\r\nNzhfR3o3FTpzNw4YezfHeII4WKOBN8L/4jeZBT43prkMOIquLTg3LcQ3T8AvOB/vhziRFls3EFpj\r\nNyfJojcgDYA3F16TN3evgTfDBAw4joa0N7tAjTe9m583UNeZN9xgBjhmK9836CjCN2UIrjc6Lrg3\r\nmxhvN0TfaTfUA0w3QHAoN5N4Ljeo5Nc3GGsRNyl70DcAOsI3Duk+N5DE7DZW8UU3nncbN+twGzhU\r\n1Fk3/tqzNxZyhTcnBX43pyMlN2EUlDdfDME3toYaN+w51jbOt4k32DjvNq6eCjezvA03wJ9NN+NB\r\nKzeXwIs34sDcNuF/Rze1/GA3PvYXN1xR+Tb+Mgo3UepCN+XWbTfOf3w3z0MiN2JhOjefO1E31IXV\r\nNsvl9zbWseo2fZcoNy+aDTfEDBQ39ikON9OkVzd2MNQ28eVCNx5R/jaqB5k2jJcoN4Ku3jYDuKU2\r\n+vzTNmupATc4P642MIwFN6is3jZg07s26JonN9zX3TZ0Jes2VPcMN+ID1TbKIgE304gvNzXI6DZl\r\nofE2ptIPN4ZVEDc3V0c3w2c8N26GlTdBNlM3PnwsN2XwZjesORo3ogRlN8exAzfXjRw3tRA0Nxws\r\n/jbGCkI36PyrN8rpOTdzwxc3PZN3N4bY8DZmh+k2WRCMNjCkAzcffYc3ca5cNyOL1zftTZQ3QKU5\r\nN9sgezfdS043suxZNywTWTeOOew2oBApN2YSMjdnLqc3wpiKN2GCgzdKBRw3DfwYN9jafTeT+gw3\r\n35S8Nl5eQDfjAgY3dyL5NpRVkTbahbA2eNgKNkKlFDcKiJw2TxbENmV+xjZcLPU29XyxNqZgqjaz\r\nw/E2SGqlNm5DwzayvZ02/MA0NiOIDTd4M8Q2FwwDN+Ss3TZhgk02exv5NnTvpzbpZ4k2YdQSN8Yk\r\noDbAWhE3G9kRNyzjizY1Dcg2B2x4N5sG/DY4vRQ3tp3aNq3YGDdY1aI2JmWLNqL/SzcqzW03FBER\r\nN/giATcSEJo2Ew8XN7H1ojaSAA03VhJONkjRkTYQIyg3H5bKN4l04jYxLZI3OKLMNlTLvjbbio42\r\nISfINha3CzdO3is3hcmRNiGtFDf0nVA3c7ysNsA4IDbUEig2A3DqNuy8ATeVq2Y2OC8NN2KFljbZ\r\nfvg2jYiONx21nzax7q82iRpyN4FeZDZq9+g2pGeLNlpMuzagtQY3XKG2NtvpPDZIQ3E23wr/Na62\r\nvzYufX82QhHhNj7EVTYP0nw2652HNhi9fjatLoc2hVqcNvVVcjZcj5Y2ve7TNnrfFzcoP6w2GbGZ\r\nNjv+KDfQCJQ2T9PONpNngTbggAc32lgRN2RzXjZUKKg278ZGNl7IXzY+xS02AP+BNuXsrTaMzno2\r\nercTNl9gtzViEUA2E/7aNm0uLTeGYYE2D838NuslpTbmiBM2NlEDNtrj6TXRjdA2LDNDNvKfJDYv\r\nObo2Zf4qNpV4lDa9ZLo2/v+ENtNIyjZp0Mc2N6OQNgjHbTYaOCQ2ZqeANijxfjaz0yo2lvpUNkVu\r\nSjYcKJE2xMoINvlFbjYSaQQ2SdWDNiobhTZSW7U2si4fNhNhbjb7gGs2Y6kqNqXoKDZi9Oc1FbVY\r\nNiKVPjaB5uI1AB4INjLBZjZqHIg2siuSNYAyiTYO3Ig2dPqbNovn5TbwmdY2aiWgNupjZza+9B82\r\ngGKbNtk+ljY8Ufk1zZqKNmtP5DYZ2wk2r+VSNkXDhDYbJbs2LShRNutDjTaX6nI2siyYNgqjmja6\r\nY9o1f85DNmxDszY9RY824DmJNrHbXTZl4gg2/rxINrZDIzfzkww2gHwbNhz7njXgWmo1NQqrNVHM\r\ndDWIE6Y1SpauNaN3kjWImlU1g2+BNd5GLTV6ai81Y72INbs1qjVm01o1wOl7NYvM6TQc6Ig1jKM8\r\nNQH1ljVyqCU1QRqMNQ7dTTWZeqg1ZEy4NdyOFTWYEFY1LjNXNZJDkTU/nio1olWsNenHYDUAIAA2\r\nHHKaNfSfADYcIG82Jt2NNo/1vDXK4Do2XMccNmapNTWhSAQ2CVvnNYgf+zUxhIk1oNckNjboTTYM\r\nFdY1wKoKN5MuNjZjnIE1DBe1NeI8sTU9OQM2m4baNTzPWDWs5+I1qIyhNSAA0zURCBA2ap8pNkPL\r\n/DVEH3013eqyNYSKazUBU2g1tPNaNUbYgjWH+z01LsZ8NUH13jXzs2Q1O9NJNQqxDDW+u7E1MPZN\r\nNeEccDXIMVI1otevNWihLDXskS01mMecNTWTdjX47mo11jhwNZAKnjXcx5Y15KOBNaMDDzVuGVU1\r\nioLhNHYggjW43bs1OJg5NUYJVjVZgWo1ERAcNXqn+jWLb501mcVMNf1zazVBMaU1lGV9NfXuhzXh\r\nHMU1TlIVNrLfhzUqrT81ncKBNS3sjTVWdbQ1EAf1NUGyaTVIfyQ29HCxNsFHcDVSXVw1kzedNTM1\r\nDjUYYi01Nex6NWJkWDWEreo16+lQNjR8qDZ5j9g1Uo9vNU0bhjU+N6w1NvGSNbadOTbChUQ2hcjH\r\nNSfxOTZsdSs2jFEiNiYz9zUXJr41Sq7VNc0rAjaCu7U1iRA5Nea7BDZZYa02BGhcNdqOljUJllQ1\r\n5KS8NsA5KTUSWEA2J0dRNuagbjYijJ01B7SMNQ5rozXiyYk1JS5fNZT5MjY6c5c1lHGWNjjppDZq\r\nlh81phurNab8TDVgRSo1qeAlNSAVMjXwxXA1vtVENenEBDUQkxY1lPhYNVh+VjWmwDE1U8RHNStF\r\nxTV393A1MmsNNV56ljUX2VA1LcCYNGqFZzWiaic1SFT/NFFPZDUZwzA1sCA5NXE2GjXAjUY1EeTA\r\nNUKSTzVUrtk0bgsaNSEyhzXhm+81ZnMWNzJh0DWB8C41xte9NkgavzYmdI01Q9Q4NiGfADeEqf82\r\nU4ZrNU7hGDXMwgo26KaxNWXwcDVS7Cw2xkWhNVxoKjW65yI19rZ/NXdiDzbTWOo1d32RNl7HVDbO\r\nv3g2mF06NiMX1TYS+Gk2pu08NtN2qjVf/9Q4OSmDOcSJJDm20AU4QJgxOKSaujUXLaE1AuBlOI+g\r\nBjjMfPk1/gz/NZpO+Db1hSc4ZwrZNwS5PjeOhO83PEw2OHVM8TgiBqA4bgTnOJCjODmPVLU4J4yg\r\nNS+2FTcQGVA4ll0oODOOlDehDQY4n0MsOCoegzjeIFE4EKqnN1P1sjUE7K42ZjnANijrvDVlU5M2\r\nYJjsNUWNRjYDFyQ2iJc1NtPY4zXLGf81rYoBNkKP1jVAx5s1fOHQNgAStTakqlU2Nu79NY3FFzbb\r\niww2S9eKNQtfPzXC02U2Bv0PNofFtzVNXTQ2g9sNNrLiqjaXDXM21pCsNiqyeTZ536Q2A2gNNmnP\r\nFjWkzNw1ykfaNd5HlTXWpjI1TvUVNufsKDa+HG41M1/dNERi3DScP2Y1yCvYNaWRGzaUSgA22UYG\r\nNnWvmjZFBrc2bedPNSndjzU/mxY2bCuxNZGp4jaU5YM2l6C1NmkTHTfUdAY3LL0ANjNt5TafFqo2\r\nwrWJNna81jYPE0M1+DwENlT+ETXmNsM1aG6xNVJ2QzWhydk0BGcnNfAVdTVKnzc1sYh1NW78CzWx\r\nWMA1Me+xNWkTGzVs7yA2Iz69NTnGpzZUOtU2gF+qNusbjjWd7AA2mEF5NaZLzDVW7KI2gHSuNZDT\r\n2TUI8xM17rYsNbOLajV2Z4w13sq2NTJi5zWACi03c7EcN5S8Yzbl/1s3Xyd+N20VuDakEzA3aOxg\r\nN/LxLDd+inw3TtzZNgpShzdm6Pw2jbUXN2PCjzb0ASE3ncF7NyFwhzY4yAE3RLdCN3A0MDdodeU2\r\nDFE/No4WoTaKons2JGEdN6Aa/TYYWvI2Vmh2N7y1mza2LpA2DkShNXBlczVeuDA1mGRgNp31gTZX\r\no0M2QxOVNVMzATYzpVA25whJNvJVuDUwsIo20gyNNkIF2DWORSk22o+BNvjBXDYkAKs12oYfNoyQ\r\nBzY0kBE2i+mrNot1pzXFzJk1rGPENQmkfDZ84yE3+u7TNdbAkzXznwo28gXhNqLPbjaS3RE2+Cjj\r\nNTmS1TV8yDM1hoxLNn0xizX2ShM27hqFNl4wzzVsDlE19PJbNlYZ5jZ6JNE2FvEFNsQdzzZYYs81\r\n4iGXNZoq9TVB6fo0uIOZNfwOkjXMdy01Mc9VNllCRzY/bzA2Jt/ONs4lwDalY8Q1qKw8NaGCxDR1\r\n1vk1FpQwNqB/0zUBKx81jUuJNQwfRzWfTEg1jNJhNaaATjWtgz01MSwcNbRFGjXZch81WnM8Nd+R\r\nbTUnphA1c/l3NbhwHzX1ipQ14WQqNUqnaTXRawk1VEwLNeWV7jQSO1U1e6cWNSn0BjWRvQk17JVd\r\nNV2OKTWvBso0B1+INSYhDDV2boY1N3pNNYUyEjXvMXs1TqUbNTiFBjUNNBs1YqZXNT5mbDUMfHQ1\r\nysEpNZqH+TTEQfI0r5ZoNfAlHzVG6CI1u37+NEMRizXO7Cc1OgUFNT8VjTTYQjk1pLc6NbHDFTWn\r\ntBc15c8vNfKh7DQoYj01Bm7KNFB57zTCpgc1ss/+NCk+HDVrgP80uT5KNTGKzjWjwgk1uHaQNWw2\r\n5jR4lS81rLoMNesThDWZ2Qo1LFcCNeNjUDXdf900pHvVNGJLGjVqNUk1Xa4GNcoIFTXT+FU1TWYU\r\nNXgmXjUEPMM0XiFTNa48EDVWQDI1Dq/nNFqNkjU0dxQ11oeQNWckFjWEH0E1OwYPNQAAYTUggIA8\r\nbEOiOnDHBzuWT7A60+XFOqoySjsOlzs7tG+oOq+3nTpH3CY7n4JMOhlF0jrZMLM6lBMOO/5EgTqF\r\npWI61SS+Oj3EYzqW4KU6AGKqOrKEWDrlYrw6QRg/On3YiTrgbok6eg3COkfFyzpj6RM6Ma4QOoxE\r\nmjqpdLQ616h9OnQbCDsDKpA6sMBaOkYPkTpoo206erKZOnUpqzr0cWc671BROiMrgDr61sI6MoYT\r\nOrCNZDqbyWA6kExWOn3jFDtQlFM65q4ROggQlDohnIU6CIeZOsUeJjtzq3s6c8wdOi+Puzqui0Q6\r\nVQy5OpQ9Jjqku8o61LazOmHwRjqeZIE6sHyROro7FDrvjOg5ygNSOkjgwDoB8/Y64jeXOsOjrjog\r\nk9w6EZM9OibsuzrkoX86tW6FOvuiyTlPqVs64/plOpYGiDpAYbo6VXF5OqvqpTrviac65r+FOslJ\r\nRzosJac6WAMGO77wtDpe8F46GY6+Ojs+ojpHmkI6LrkcOg5HSTrJoJs6TC5JOlmojjoihJY6IJU8\r\nOoofqTrQcME6Dw0vOqqGRzqH0mU6y4G7Ot3HVzq4urQ6Kcy+OmsTrzpOu7s6WA6NOtHaSDpWp6M6\r\nBAk6OjKYkjrM+206kbRKOomThjr8Km86kk5UOg62yTrdaSo6vn6rOoeJmzqTVbM65mF0OqhHkzoN\r\naFQ6inqvOjwfRjpKGpE6KUnSOpKn0joVnAM7+h1+OrAkkTqxKYw6BB3MOv/dJjqPQv06rnG4Oja2\r\nKTqPVSA6oUVROiZARjrC4kA6TAeDOrkoqTpdmPA6WQTJOoixyTrmEtQ6Y2IaO1HEADtOOh86mvCC\r\nOsEykDrX+rY6dh5QOp0xtTqm7DE6MNSYOqLJVTqN0+s63OmzOonsGzpuWDs6eHSgOrfhLDod8cc6\r\nk4AeOmD3CjuAacs6rlW/Os07kDr4foY6grqaOr0HDTolYmE6dFGYOphokDrLrCE6V7dvOgjjPjpI\r\nM6M6d4HjOnWGiDrUKnU6IMypOjJN4Tq5BiM6dzMpOnm3gDoqO8Q6AFDHOmMpWDoyW6E6TL8mOnjE\r\nGjqDI7A6nkDCOVeHlTpkeC06s+CdOkZHHjoikoU6pMGfOpsIVToDY6c6YTCIOneSszp9OcU61so2\r\nO13foDp0kwk6FJ5kOhKthTpDqUs6ShuGOka0hzrAM086HS6dOluvpTqPY5s6/+KlOkzcpDqSRTY6\r\nI1gqOggjpDolFME68N9JOicsLTpcRJc6KxrJOpU5kDqSndA6RdJuOkijIzo7E3k6nZnROoqGeDr6\r\n8VQ6M3sKOwxhQjpoxlM64wqSOpWQvTkE5Kk6yL15OoL6wToiCHM6FD7AOiOKaTpYl6w6qKyEOh+8\r\nojr7gn06vr55OvkChjogytg6+hSwOiEqJjp+mmk6PjFbO8Yigzo8bTo63dWQOgwS1DocbDI6Ovmg\r\nOqsqVDrr4m46CrgQOigmQDpTSUo6+AuuOpWnhTqe1M46zrM/OglWDDs2M8o6HOl5OtfdXTrExS07\r\nKm9JOsw0YTrOx5s6/EalOi2TWzq/fAM6khVVOsg33jnwtIA6SOF3OgbsrDqyXA87qL5dOoagKjph\r\n+xI7OOrpOpTA0jqYslk6pre6OhK+nzqpfoY6RpS9OqhEODrXesI6dBOfOrR/gzp6l+c63zSeOg/A\r\nzDrBLAI7SNlROu6hIjpxsMg6FbcmOhH6jDqMoTQ6cOZYOnFuczqSrcs6XGhROqO/Kjo21pQ6enML\r\nO1yLVjqD+VY6w7mkOrewzzpAASg60NI1OgYXczpM37c6Z6tQOjaumTpb8JA6GXKjOgKoiTqKLa86\r\nfjpOOtDFgDp7cAY7vweWOjjQSzpHTnk6EMC2OmfS4DpVd0o6WWhBOvTT4zpIVgo6H6y9OlzpxTqw\r\nRpU64ql/Og0qCjs1GRQ6RkplOmjdvTo89Jg6vamMOqAEnDpB2zg6utVzOkW1XjoSwh86uY2fOi/h\r\nSDoIyYk6BOJ2Or/gkTpXx6w6oFR8OujbmDrhP6Q6NlqxOlr6uzpqcUw6Y1F6OvNwYToK9W86XWSI\r\nOmqegDoCilE6AJxVOjMQtjo0fDk6mMeGOlIJVDqRSg0692SZOmBRUDoE0ag6VhjQOqgdljrtS6c6\r\nIzRSOuFlrToEB/E5HXgMOrquiTrItjU6Vk5nOmIOiTpv4n46JpuKOs9tWTo6tm06kwKtOnZv1Dqv\r\n8eA6S7JcOjQLZzpbZ7A6CPFxOirwxDof4Q47RfCJOvBmKzqzpSI6R2Q0OgwqejplSsI6x4TGOniK\r\nTDp3Rao6EPojOjMdQjrI75k6hbRLOhAkzjqiRow6dK5yOgF/VToYmZw60kWgOi92kTry93w6lBQP\r\nOvUtTzrBF0o6XIzbOhIKwjrvVFI6fMqaOiYKlTq6ORA66LunOjq3jTqa+MA56sjIOvu1WzpP0OA6\r\nCeilOiVWrTq4oKc6P59KOqSjIzpHbCM6Q7ZUOj6UmTq4H2s6Q0F9OrLAjTraoaE6Xo08OoSa+Tne\r\nmQs68QsXOoRHIzpNS0I65LgGOlEbjTrLEmk6Dv9uOmglLzpFYrg6YuVpOtXTrjrvw6s610cFOiWv\r\nFjrPEWg6gB2AOt2jUToQwXU6kcDxOi5ZejqgmVQ6ve8uOmoQgDrS1bI6w2EUOo8gWTrs0lc6NkMu\r\nOjjxpzoUWQA6waCaOoxhljrfF8E6Y7yCOlzfPzpa0Uk6sIBnOsFajjp5nYw6msk3Oihxnjp6n3U6\r\nEpibOnAzWDp11FU6oliwOgSX8Tnusak68hIvOmRqjTrBkgs6wJgsOl4bhjq7pA46oJDzOQJoTDrG\r\nF3I6U5SyOoZvNTpcXIo6tSLNOmgNojrDkto5uDqMOkErejr0U2E6+SvwOjDYAzrwcYA6DX5TOnQm\r\nVDou00s6qtg3On/uSDoIbic6AimZOsHyMjqHGIw6PEmEOvPxTjoG5S06iJlEOvu1hDqUhic6of9Q\r\nOpIrXzqgqj06ohfgOYD2RzqNvFc6P6uQOrU80jq67t460On1OQ8rwzomG3Y6iGnqOunQnzoDlA46\r\nyi2BOlzobjrxBw065dCCOikJmDqJvog6Lg4WOueDjjroKBs6BheVOkxCZzp8F306Hb2hOk3MVDp7\r\nvbk6tTUzOsj+wjl3P4A6nuoHOni50jq+Hyk6ALLyOpIt3DpMzZk6lQqWOoN7vjpMa446U3cjOvZv\r\nnToWam866gNWOtjXgjpUpmE68DmSOnW5Jjqhsuo6FANcOmVAYDousWo64Ry6OkZG+Dkm2Zo6501b\r\nOn0NSTo7k546/6MgOmYuIzrEcL46RTBkOsTqgzrmfVM6pIyTOmcWEjppwrI6RCYQOpC1kzqd8oQ6\r\nm4nTOnh1TDqKM6M627lKOguRNzpjdHQ6GFRLOraehjqh7gY6JxOMOvM4sTq2gIs68HazOvGNSzpH\r\nrFY6uhWSOj85bToIeJY6Ec2FOrfJqjqqouk65Cj1OqePYDqgEG461p7VOhKhlzqAO4w6aquBOkvn\r\nRDpuQq06LcAVOmTaATpybB86P7F/OmSrLDphozY6TCmYOmd8hzoh/4U6wUKDOscgnTq2/zA6qp6s\r\nOl10bDqUfgc6Iqa1OmQ2IzqjA3I630edOujnTDoMXE86jnmkOtQhGDqeT986eMCFOmZnfTpp/Sk6\r\nO1hIOoYcYjrxpXI6MuKJOliYhzqs1e4686fBOo+PpzoY0DI61V5JOpu0IjpXr6c6uoubOtGTbTo1\r\nVJY6VI8JOmXEwDpjgiA6PI6NOm1Cezr7YxQ5DHg+OeFZRTjOJjg43gjINgbRyDbVnp04xLk2ODwL\r\nlTbQyjs2hJfVNiiJITguHQQ4F8qdNtoG1Dc5xgk4TQm6OMXqhzjW99Q4rHRKORphsDiUnOs1YnFK\r\nN1/ddjg6mGY4BTYSOKAcYzhmByM4tGFXOD0llTgsgrM3Q7kDOgvtTToUXv845KbOOCa9VzmXfVA5\r\niMgHOjyvpjk6+Eg5p/wwOgQ3HDqGZlU5CVpIOeclmzjVsz45TyULOma5CjqPCCA5vdMDOekjhDk9\r\nJ7o59r42OVO/WTltwBU53riIORqYgTowXao6JSLYOey+3Tm+2AU5TpniOOD3RTl0lA45n3dbOVyO\r\nZDlmWmc5WbCBOIzVbjf+XGo5cLrhOcFedTivQIA5xxZ+OWjoWzm1Rwc6PvmtOVloTDg0+Ic4Xkxo\r\nOaPbJTl3i3M4pOX6N/p2tDjG2iY4pTU6OIayZThVxTo46CxwOfEFgjnvz1Y4nGQTOqjVaTqMMLQ5\r\nt8LAOL3eBjgy9j44+NqHOPEImDdm4OQ2pYMYOUYLQzlOVWI4Nc8eObz2sDk/J2I5w6IXORh+njg6\r\nj3c5PnWSORtidTkvSQM6yCavOZABXDk8D5o5+qwtOTuaXji0BwE6HeObOpEGAjoeiZU40UWCOGXV\r\nyjjZrHQ5IksmOvYrGDq2zQU48BfaOP0nXTn9qCQ56sS/Ofg+rjj/a+Q61iYKOkOQXzki6o85PIlf\r\nOfV4Zzn4es05+yQtOtd69jl5nJU5SPKLOag4VDmfU7s56wfTOTZTuTmMbMY5onCcOdmM+jrEHkk5\r\nhYWPOeCstDmFu/Q5fHXDOUndjDlPxo45jm9cOrX6yDkSJRA6NgyjONbhLTgQMto4kP5zOc06Jjol\r\nhvA5Ae0OOcWPpjhww9E4Zj2HOGJ0gjnWtXA5avJtOerz7DmqKqE5dprPODYYzTntsyY650x+OWIB\r\nUznJG3U4ttL1N868azgGGQo6bbt4Orog4zmnjp45RmVkOT9vfTlFgpQ5M96UOZqpIDn/7T44JNef\r\nOKaGUTjCmrc3OV8TOFdzNzg7mwU5ukAXOfTAmTiqcNg5TZjuOZKGlTnBlZo5PNp5OW/9HTl5kBo5\r\n236aOFtYFjkG3+I4ILfEOQQDPjq/jOA5ZifoOIqeGDhQJC44B3qGOJ4qSzl0nlA5oxt+ODrDgDlA\r\n1iY6IsmuORW1NTUbhbU1qGanNYvgRDXeJUI1QusVNUBneTWZn0Q102hMNec0/DTkM5Y166cfNR0i\r\nLTW5E8Q08itINU7HWzUylRk1/NAeNUIwxzR7rkg1ZJkdNVYnLjXj8tI04SarNMIXMjWfQTY1DgYb\r\nNWa3gTUXEaM1u30pNV/oaTVS40w1PnjfNLTHTzUFr+k0tIxlNSK8CTUlt9g0C848NTV/HjV51f40\r\nvnUZNU7xEDWusm41wNI5NXufWzX1uSw1ngB1NSgsvTQ6CxI12GuLNSWwLjUgzBE1/WsfNSiX/DQx\r\nETI1eHlmNVKDjDWlEUc17xQtNZ17IjWvxBg1sK8fNdNHBzXvqtM0cydONUTe5jQLHxM1aEYgNeFF\r\nAzWpCjw1JHsyNausdzSh1uI0H7jJNILfFDUDHTE1Viv6NJpz6TRGGg01Hp8FNV4cIzWbkw810FFU\r\nNdZgHzXDNjM1U1ZWNdYF1DSAMW41YVU3NSx3yjQJD4g10Z0XNVVLPDXegA41AADyNA==",
                            "noiseTrainingType" : "default"
                          }
                        }
                    ],
                    "start" : 6927,
                    "duration" : 1003,
                    "mediaStart" : 30,
                    "mediaDuration" : 1003,
                    "scalar" : 1,
                    "metadata" : {
                      "WinSubProjectDisplayName" : "",
                      "clipSpeedAttribute" : false
                    },
                    "animationTracks" : {

                    }
                  },
                  {
                    "id" : 56,
                    "_type" : "AMFile",
                    "src" : 7,
                    "trackNumber" : 1,
                    "attributes" : {
                      "ident" : "Aufn. 07-05-19_019",
                      "sampleRate" : 44100,
                      "bitDepth" : 16,
                      "gain" : 1.0,
                      "mixToMono" : true
                    },
                      "channelNumber" : "0,1",
                    "effects" : [
                        {
                          "effectName" : "NoiseReduction",
                          "category" : "categoryAudioEffects",
                          "parameters" : {
                            "denoiserAmount" : 20.0,
                            "denoiserThreshold" : 0.0,
                            "noiseProfile" : "4hJ6QeCwoj521QA/CbiePZzQ2z3C4Is8dwPfPAHiKTwO0vg7WSdoPCo+hDz1FdE7oELRPEKgVzxH\r\njKU7uVChOmrxpTpsOJE6sVmROuiqrTq0MzU6pYsGOox1Zzp4p+A6xhmtOkCA4jpU/Mg7qfauOhL5\r\nfjl3+Y05j0ADOkuNfTl9/rk5i0KyOcpE4zlirhI5I9uTOS5IETktrpM5ujhEOZ5j6zkjkhk5qWIx\r\nOdEj/zjLdHw5j/5ROTjwwDkYv585w52NOTqwPjnH5pU5WNUROUqrijloX0c5KKMXOSyAIDm+ChY5\r\nIVsJOmNaVDksCFc5e9wHOVxmBTkE3T85vTnIOExrlDjhh8A5u3WfOdo9KDlWtIs59rkDOTs/FTnC\r\nQzA5VEgJOVRDBznllA45G9hFOR9MqTjOonc4ORMoOaYBRzlgOcs5Z9zgOHtMLDlqf9Q4fc7mONb3\r\nIDlcvdU44jtzOSsXpTgs2ps4J5wVOecckjhGuGw45nPjOMgSlTgTeZA4GuZ/OE2TkzhqHRw55mi6\r\nOcbU/zmyGzM5KptIOFb6MjmKwms5uHhVOXH2rzgSeHk5yxGROBbuiTgfJys4NZbLOELZaTjOTsg4\r\nLM+OOP8RkTjV4DU4859OOFiTITmeDgE5vEOAOBKS5ThDTIk4d39+OB1gVDjSwYo4J0qBOBoC/zdX\r\nZ7c4dI4VODOBDDhIj7Y3pC20N6ksJTh4sZc4WQoGOFgoVTir8eU3GGCyOBMMLjiNxqU4xT9/OMI9\r\nYzjry5E4cAgEOEQg3TdShT04QKrqN2biOTgjXhY4sInWN7wOhzcm5MI3yATwN+BK7Tgh/GE4jPjU\r\nN4U8oTfnrRc4/TQIOKmXCDhL9803ZEh7N9X64jeGqVc3FcMkOCQArzf01xY4cqjeN+LSZjcE/jg4\r\n2ZIBONj5yDeoSNM3sq2gN7T+djesCJc3hMykN8tLxTfimOM3WLryN/xOqze0ei44ET6UNzxdqze3\r\nL3E3vHOGNy+Gvzd21ME3T7a9N4pPnTfbzE83YaZkN9cgnTfochk4AnybN0h+Azh8dUU36lDWN4Q0\r\nADjRDn83nO5WOC3tqDdT84I3g6GHN+jEezeEz3g3wFanN4b4MjfkmOQ3FZR8NzeRKDeCgAw3km2n\r\nN+xihDdFjTQ3aTtEN4L+Rjc4h0s3wMgSN4Riajek7o83jSWJNqJRNTeW2HI3Wkx2N1I1UTe0bGA3\r\nVtiHNzeGuzbVFKA3FEEPNzZiEDdI49Q32Bm8Nk1SMTfrOaA3MMlENxXYCTc4pDU3fc04N1RZRDeo\r\nDK83ey8oN0XxEDfFIl83eASSNwi0/jY4z703zjSLNyWhxTbiqHU33r05Nw1MhTdSuOE3as/dNyeU\r\noDf1Z6M2zmt2N84D7DdMTwQ4DA5LN50EWjdah+42dpwENyRS8jZveJk2xfzWNinUHjcaNLQ2UvV2\r\nN1kqSTf8VcE2LgCKNk/cgjfEKHg4uQY+N8yAOTfoaUE3cq0DN/iE2jaxVNA2cDZWN/JC2DYaw6o2\r\nOuw1Nya6mzZwSt42VBYEN8gjDTcs6uk2STK5N87EHzeA3BA3DKUjN9PeajcPORQ3JHWLN8fGIjeW\r\ncIU3irMJN0RWIDcgGgU3i4G0Ng+9FDeivfk2z6ZfN1yapzYzycQ2uusjNy5KWDcZTWI3bE9YNy0O\r\n7DbglQ041Z6TN6GqTDfyEgQ4iM+ENwsdFTcv6TQ30HoTNx+3fTerxOY26UBXNyjQ0zeANGU3mR7L\r\nNzIs6TfTSyQ3hWXDNxtvjTf9GeQ2qxP3NtyEPjeLtOE3/dnENhLWITcSql82dOvnNpLf1DYSlOk2\r\noJ+2NjfXKTfZAuA28vZcNpJ9dzarRrk2TlawNlBzZja4wNM2sejyNnXVFDf1MwM3LoTiNobrkDYd\r\nvVI38scYN53UyDae99g2nIFZN/ribzYKvXo2JEuXNq2fMDf6uf82rozpNq7nvDYN0DA2ykuINngg\r\n1jYrOck284RTNzCHdDZ+bOg2c8omNpB8qzepwII2f9u9NgE+sTZq2Uc3jPE5N3ND+TZyAnI2Cfiv\r\nNtLG9jbzRbE2mgwjNmYImjbB7Rk2aIrUNla9TTZQm5E2Lz8fNxg4uzYgwbs2dBhINrrPETbuQ4A2\r\n70BBNsSk8zb1xog2zszLNkWaNzb9TdE2MwDvNkDkkjbJWpg2+HT+Nk0ZJDYhg442Gjo1NkwcSDZF\r\nma427ebWNgy1kDaAj582zuKRNlSRIze2+Js2obkCN7lQgDYfH5U2cOJ9NjA/xDZApms2MuHINpBG\r\niDaadYg2RkV9NrrMszYlc042qBXMNtPogzbcnlc2nrKUNj2ARDb0u7028kykNniQMzbs3pg2chVh\r\nNjAQiTZ6+EY22vKWNtuyejZokK02gX+TNl88ijZezlc2+7OCNvSStTbKeVY20jx+Nr4gUTbJHcw2\r\n/E1oNlbivzWEFz026EdxNrfjoTYxpUQ2fR4sNhp/nzZQbXs2tP+CNtjlIzaRpCs2SJYnNnw2NDci\r\njJQ2dnVANoO3hza1dkc2oWxbNioGpzZqDPM1dXqXNuidizb28zc2PcJWNs8EgDXMa6s1EcM+NvwM\r\nrTWyQAs2KhYlNlyvAjY9aBY2LZzjNVqELjasfLA1O63FNaf/ezXchuk1yVmhNpKFBTbwk+w1tw+v\r\nNi+u7zbPnGM1nvZeNmHR4jWuwbU14GXqNQQh4DW/4Zs1/U9jNSqCLjZnABQ2nYkONkh7/jUA0AQ2\r\nVY77NWOfrzY4tM41QjWONrr5zTV4E9A1MUjeNdUyAjbIegQ29jpVNvji7TWzHiU2RMbcNRueujYh\r\n/YY2zgh3NgbI+TW6rxM2RBNCNmtjszXr/JI13BRGNkAn2jXWgVs2k9LANnPA+zX1LgM2kZJANoFP\r\noDbrMso2nvsNNgWohDbvBgc2EMqpNfuCEzZ7WmM15kDsNdqXhDYGF181T0KkNdJhiDWTeYk1ywBy\r\nNptQAzeIza01f+6PNeiFDjZZkeI1mxJpNmwaLTanDXI1Ij0hNpwo/jV0T+w15owqNlsewzW678E1\r\nMVaHNsKMjjZIc9s2TAtGNrdbuTXa32A2dBERNky0vDWrZbM1nmyjNZF9djUlAYA1+XqkNVwhszVn\r\nDc41ICx4NbybsDUwb4o1RimlNejQUzXS03s19uKfNStWhTWKd5c1XOS4NbhBpDVIbLA1hSW2NdyS\r\nojVSyZc1F0peNfMngjWr9q01UQGJNWqxijXyAp41BJmQNVpZXjUD54A1VEO6NW7J1jYmr9o2Ezbt\r\nNZdQqjXd7os2bG0UNpTmQjX9Dic2wmwvNn1UbTbTnuQ1AMKbNRz9tTWSNxU2n9kzNjCdsjY2CgE2\r\nm4jkNeUwwzXB+J41C8+nNnlfHjb+5R41qXnENTIlXjbxCvA17RTQNRQ75zUmuRE2R7egNfWilTVm\r\n2rE1/4xyNRyoqjX6s6k1arcbNZneCTbQZWI1DLR7NQRimjXYxEE12pVVNZ0CzDWIplA1Wq5WNbGT\r\nPzV5QmA1F9hbNYaRgjVpBjI1G//WNYoajzWylHM1AXM4NbignzXgMpY1jIyPNa92dzXbwUo1/x1p\r\nNVXImzVI+1U1sjSpNTvi9zV1EIY2cN0QNh0FbTbpgPY1G7L5NdMjgzYy5DU2DqLgNTLJDja4b5U2\r\nfADeNb+xtjVVIvc2UX8JN4yAejZW+zM2k/CWNuUsAzckk+I22OpoNgTCxjVQPh43E7y+NrtGNzfe\r\nk4w3HKW2NTBSuzas+Ok2pCLqNtxx3TXjUAQ2ogZpNcbK4DVXUFU22vLKNiBPnTVrhak2xJ1gNQKc\r\nnDXrFlc1+2DiNc+wFzY9juk1PINtNuDvojYMMMM1pgu9NcjqBTe15ZA3eC3MNsTvBTYEHfw12wI6\r\nNowdiTWTWI42HIz1NoCt7zY7zhM3EaYkN2yr4jYbmO016dstNdyG3Df2Uq84xH8qOQoUnzhmxTo3\r\nZAiEN4/usDe7zpo4tmVOOBSzEjnJ4hQ5FaFwN7JEHDiY/Uc4FpJ9NwmmPTf9ZVw2HrpPN2YyNjhA\r\nGHA4wPjiNxo2CjifEnY4cAYgN79TUje4yRk3pSndNwVAzjgkeKA4YNyTN15VVTd66sg2pD4ON4+G\r\ngDWyTbA11SGYNYEghzV/hzw1dVddNRC4njWSVIw1g5+DNW71uzUcIkA1ht8aNUA/YTVGR3Q1ij0T\r\nNUk7zjWYU5Q1Lh2JNb9iYzVSbhk1v65ANV/WdjUyRCw1egvWNYWVhDWnGVE1v2wzNZQKLDUr06M1\r\nA2MyNRFIkTVDvCQ1MHQ9NWIgZTUGtQo1nDp4NYL4jjVelF41r+4+NdOGWzWV2K41Gtt/NV9sMDXN\r\nlNc1fachNdgB0zU2yjg1t/tbNX3KtjXCTyM1DCUtNW8JhDVqPTM1TmdvNT8keDWfz381y3JLNTm/\r\nljX8FHc1aPjENWswXjUivVo1nrAxNR1bRTVfvfc02i4PNroXMDUdoYM1tpVsNWw4UTUOHQ41vm+Q\r\nNbjFYDVfoEw1jFk8NUNgbDV35ZM1a0WqNRDEADUKqq01NV8vNf5xcDXUzFU10RhGNefbNTXWmbI1\r\nIJI7NRcAfzXCe5M14w2VNX6HIjUfuck1Z6x0NcrZJjUwKjI1X88MNWFRFTXO4YE14XODNdLHRDVY\r\npIY1CkKbNdXpBzXixY8149k+Net1UDXkDw81HJixNfmmWDUC82w1+i/+NTOkiDWYiUY1x96VNSq3\r\nfjXCp4U1fD18NbvvIDbplDM1I446New0BzWPiGA1f84aNfmMWDV6qhs1yiqoNfXEVTW/Mo0139gW\r\nNeo3cjXczTM1D8guNbYiLDUZzJQ1dPkdNa/SaDUZhik1F0NyNe43jDWiOZk17TlhNWuZvTWw8m01\r\ngSo8NaruODXKCNo1auoxNaOpajVePjU19mGWNdCbjDUoYcs1XiN2NQbstTUR3I01rzR/NZN/hDXq\r\nvkQ1aK2ZNQeXhDXPiFA16piCNUBiezXTFGE1Zkk9NVTiljWOFH81lme0NcAvFzV484A1/EVXNZrG\r\nzDWlaiw1qn2KNepSaDWYWUI1CrQYNct/jzX6OC41d/uiNb5ZRzU6b601qFxzNXaPqjX0lT012JeJ\r\nNeCIIjVDJnQ1qudANWb8sDVD4j81K+ZANSkZGzVAVII1Rm8uNQSLYDVm/5M1QctFNcIHmjU0X4A1\r\nmAWMNfuygDVApj819O8jNZlJAjUmg401Kb0yNciTmzVvUQ41ta2NNUC6PTVl5HY1pNUGNa4vgTUn\r\n50g1lLc+NerQjDU9pJE1mew/NbvcqjXXGy41xNqGNUe4WzUwwD01yxAjNUwIazUBnxo19tE6NTif\r\nUjWUC4U1oW5eNQzlYTUWHDE1MJCSNTtOBDX5gJw1Ytb+NPFRtDXdLQg1jgBoNUBJITUfUJI1SiAl\r\nNctlSDUTnE412x0GNgRIHzU0r1I1jKhyNchaVTWfsHc1RtpLNVpEVzWwpUQ1Tuk7NQAAgDX02rc8\r\nQ+hXOnL2pjrkqJI6+P41OlNUdjp0E3g6lEevOosToTpnFlI6X/qKOr2FFzobQq46C9mrOivcVDrC\r\nJLg6NM3hOpDq6Dq0Y1I6mD2oOnRTmDqR0lM66lxmOvB64jorGoE6WqmPOnEpgjpXS2M6M9eeOglj\r\ncTqP5h47HAmJOilrlDqzBTs6O5c1Oju6PTrO7IM67pYkOjlJkTr2zgU6QlGdOjw8vjqvkbo68DQ0\r\nOh8oDDqtjW06X1//OiTX0Do/6Yc6VztgOh3tvDkMDfw6kFeNOsTgizoa8UU6GqhIO60wVDrotcM6\r\n1yD6OX1TaDrccYQ67NF6Oj31mzp0uYc6RNzFOprDwTpqqBc6QjZGOsUzhzrOULI6ICDlOgDeVjps\r\nEfk5bb8BO6sFuznDp5Y6TDCEOlrQODqMi8E6whuYOkB4+zp5ALA6LlddOkFrjDqTuHI6Xt5fOvkG\r\nQjp42HY63LGHOmoTuzohY0Y6aRy1Om7l9jrKSHE6NESiOliWszpqCoU6QK0RO9et7zqJhcA6lkP9\r\nOlgQyzrg5q86jj4COt5JETraO0I6DSYAO4d1CzoqUsY6ICWCOuyTnjpiAZs6rDHlOZr83TleoWk6\r\n0eFaOuqQKDq515U6FVcUOp0qgDphQKY650ZpOpSyZjpOIJE6eutROrXPsjoB6nc6iNtnOhPWjjr1\r\n0mc6EFGROrT/djrTO4k63EKhOrbR0jq5cOI6q/B2Ov2GsjrViHU6ZoCyOlDzVDp4o7464eyUOt7V\r\nNjoyTgY7t/gBOhTLiTpLVag6gqdrOiB6uDpco6A650umOjDzmzq7B1o6v/abOkedhDr8wOw6W8RK\r\nOrSAszra7aU6YOMsOiC8Vzr9Mo460h+HOmpAoTpBVJs6uYUzOlfYaDps46I6vKkjOhL/gToU8Yg6\r\nKBVTOizsiDoQs6A6TwCCOptlOzptx486IHeJOmbbNzq90jU75fkiO3y4gTpCRCk6WPWGOsivbjqi\r\nogo7t8sZOiF/bDoe3746IO3jOVr8kzpUXrs6+LSaOiDQFToOhdM6jqS6OmwomTpUk3Q6k+xIOjhT\r\niDqo/BY6usGHOk7E4zrDvBo6yMwVOpwrpDo+xJ86dgFbOmjWjjoQfNE5PguDOoijFTr2RjE6mxPC\r\nOgKMfTpetHA6bFovOrE3mDqwaMw6whWrOlWIgDp/WbI6nxbzOhU2lzr63qk6QGzPOoI2nToS/GU6\r\nAYCUOhHeTjpZAJs6S4PoOdYXDDo9Ds86LM/hOhAznTpUraU6lE+/OiH4cToCR1s69BqYOrQBODrI\r\nkAs7VDcxOhuGPzq2pz86aVnvOjH2fzrHjK064kp+OljORDrqf4w6XYAHOj4Zizp3gLo6BHagOop2\r\nCTpAGzI6V6+FOjIuHzoui4M6NoxlOsLmIDr/glk6bSgqOqnXIDok+1U6xTBrOu4wlzq+iPc5epIy\r\nOu3lijrGEP85m6swOlxDTTpqOy86kIWNOsNGoTqs+6A6ekGTOkyMNjqwNoI670e8On1DhjozgB87\r\nNs+QOqVxmDqWfio6fpQpOhba9TqV7dM6O7YYOodjSzrkXGc6XrqVOjad1TrCALo65hVGOtE+ODqx\r\neK86+B43OqNXwzqbBZo6sYCjOpH4Yjo4KsA61siFOqxHFDqSIU46/gQoOlULhTq8v3E6JU5yOmHT\r\nNTpLAlU6p/SdOvCOTTqwWK06y/x8OipfUjrA/4E6GZzZOiOPrjqyPJw6DW1YOqAo0Dpt7LY6AZ+4\r\nOmIVijpsUYc6FWqIOugaazqc0IU6vjJiOgcdmjrjN1E6dp6MOhaZSTqL2lo6nW66OuoS8Do4ZGo6\r\nlYV7OlQhKzq0iXI6CZuHOvE/mjpgInA6Cb8jOqqGdzrWMN86TottOiDHJDrOZWU6RIReOvjNhjrx\r\nups6bBlxOiVobjrCVJA61X9NOrxeUToXCkQ6jG0VOsvYgjqPelg6Wtq6OsZHzTp8yFM6ltUuOvhH\r\nGzovQi06grIIOgJSSTqiKJ06Ol5bOmSacDpvbsk6upw0OvDgWzrjI6A6IuhHOqxGyTogkR466Iie\r\nOmmPJDr2KbE6UqUGO3tYGzqjRD46lNs3OvRYWToqzLM6lBIcOiBAVDrW4lY6ofqfOsGzjDrEho06\r\nr0hJOrNmjzrScIA6/ScBOyIlmTpPJo46ralQOkYt/TrRHbo62k9EOjtsizodW9c5LvdXOg4uijr0\r\nc4M6E3szOuNqjDqB+646NpelOhRalDrPVMM67EUoOoH90zoTyUI6VkvIOodfdjpwIXA64FpROjJz\r\nOzr8diA65a6oOkIG6DrWjFY6molZOt4ATjrRUhw68BhyOiGjNDpfHRM6IEhMOrNthjrunYc61V2e\r\nOgugmDrWg1E6JqFOO4dpITriPNY6GMv/Or+9dDp4I/A6ohc3Omz7SToSJ6I66bLSOuDkGjoXu2A6\r\nGuRBOgwAWjpAGpw6wY1hOq+gFjo0NJQ6EPTROfqmnzpj85A63C9mOilHHTrd81c6xYAXOovUTjrt\r\nu5E6KxygOjdgqjpqmik6dEYTOmP0iDrFiRs7BM5HOjoVgDrtvb06s07POp1mNzqonsY6quS5Oja3\r\nrDrGYbw6MgSwOkfPyDpq1zo60uSxOn9jhDpj/EE6GZtjOq4pgDq7EhU6QFKpOtZPpjpQHwE6NAzy\r\nOcvZIDo8P8A6/4c2OgIRpDrYT7w64hqyOi5y5jo8rJI67F+bOnSlQDr3k+85B+7kOiC8njpQZAE7\r\nSq6wOsfVyDnH8ro6luo8OsotYjrRt4c641qMOnO8jjpY8UU6ThIIOt8ByDregxY6IoUlOrU6IDqi\r\nwdM6FvZDOqNHyDrz5Yk6RlpLOq6ZCDohQm86zL6AOgsYFTrt9Wc6SyuVOtzuojrToBI7lIc4OoLl\r\nuTqHDkc6lhaaOtJOVjqnyxo6apmHOrR1fDqMXno6NhicOswfUDpOjX86fmNwOtkarzrLBOA6bwMh\r\nOqC2HDps4446xG+kOk/QfTpv90k6POsqOpzwYjqJM1Y6+0erOgksoDoKYmw6hpNvOrvhRDrwyl86\r\nxnuMOom1djprgDo6AHPZOeja9zm0tE46rjYoOu/nHzsEoqA6BPU/OuhjbDoYw2k6GdPSOhaAsTpE\r\nxCE6KLBTOnsdgjp/fa06of0vOiPeAzoyioo6vp30OU7wOTrIs3w6l2Q/OomUWzpjBRA7KwSPOmHn\r\nTDqbvJs6kt6QOmwBCjosmqs5n7uHOrWkGjosmSM6iyO1OtE+YDrwbkU6G3ClOm0HuToO4Xk6wF/D\r\nOnE8bzpY1mM6eFmCOvf63zkyASQ6oOdyOr4QZTr9eQY6P+uLOiLzqTrMlDI6Ax0xOq0fdjqoTDQ6\r\nT/SROopCXjruvsU6FORiOsrebzrsJIs6YVF5OqwP2zrTLKc6SmBNOs8pezp788w63wVJOgYPgDqU\r\nwTI62LfJOswunzpUN+Q6rMVJOnkMxDpTdIU6l+OjOhDpyDrf1hA6WaF0OkhcNToFeY067WePOuZH\r\nSjoEK506JD4COknTIjrUgVA6+DEfOgWtgToM48Y6NWsCO/xHUTrM0ZI6WN08OsLbczrx2zA6MiI2\r\nOpCEMjoPbxg6BAeKOoOD5TncZ2o6VUBSOpvCmzrDiiU62uq/Os5GNjoalIA6ngAFOkaR2zmBrYs6\r\njY9tOuj2uDn4ly06HCSHOntsJDqhK5A6z4NSOo5PEDoio606fcybOgRiDjs/CZU6k4GOOoO4Zjpa\r\n2U46+GRCOsETBDoYkX46igUqOrJhnDpFJmc5cADNN95ZlDgUKZs4zHZNOIldiDgLIjc4op5yOBVr\r\nlzhHwSI4FpjUOEetjznUvLA5YF3ZOHwzRjmGqAE6Q7P9OWkwGzkrs7Y4DM2AOTB5AzmKdLQ5lJdK\r\nOm7Snjlkc7Y4RVYzOroqmzq8OCA6lXuzOEOVkDhzIgY4xC66OBp5ADo84CI5MhyMOgjNQTkwZC06\r\n73UOOYbi3znwRKE4Bt/lOSQaHzm4cWE6dOBGOMEnzDh2ahA4mkHpOJwPATnypwk5BZwMOarUpDgQ\r\nX6E4XEKhOOtR6jl+I9U4xiDzOF7iDTrXNF06CipmOfDxXjq9suY6F0iNOuYUxDlJedw4w08fNo5S\r\nETYuP4g1Qq6MNWT5zzW6myo24gUfNWnLeDVrUsg1zGjVNVIsqjW1IpY11IOyNSUAfDWs6XI1Ok+r\r\nNQHp1zX7vSI1NYiTNYehkjWAmQE2PKuMNZJvETUCcFY1DnrYNY+JmTX+sWc1aOqMNZ2ySzWGfkc1\r\n7vR9NTqQiTU0ED81J5KTNV4WlzXyywQ1i6pANVwBaTWtT1o1jFY2NV3lgTXa2y01cb+KNV9waDVo\r\ns2E1xY9NNQ6vrDVt1ys1CG4DNetHWjUNfYg1uuv9ND21UTUcLxU1+PyNNUzWWTXgQ2g1XLBGNR8I\r\ngTUFDHE1P4+GNZJZcDWSP2o1c1CgNQDRfTXqTWQ1rrUWNR3VTjU8+q81sHOQNTm1JTWCAFQ1uIC/\r\nNOz5aTXagEk1I6y3NXGjQzVKmhM13G0sNSzfADUbS/I0qihWNe6g+TQ4wBQ1pisINSv0EjW0jAE1\r\nbuG+NZxjRzWVdrM0VYxXNWhtsjXjJw811ORJNbcRYzUxU3o1aNfvNH4O9DTumXU1L2eENbdPYjXu\r\njPk0AvexNWzaOTUYHug0c/ISNUHuITVfsiQ1V5bnNPnR/jRA+xA1jk9hNaB/mzW+lyc13KEjNVfD\r\n1DTOIRo13ebrNO2uDDV1Bz81wJozNRksYDUBmkc1O41MNfZEojXPrk01gG9ANdWl4jSHz7o1PqML\r\nNVj33jS0VU41DrPVNG0BGDWSqoQ1MnIvNeRfTTWgD8E1T6cjNVj6QjU6pQ01Ri1PNSzDyjReCKo0\r\nMAHvNGCCBjWtUug0xODWNPUhXDUoE6U0jXILNdEqxTSmfnU1TAfGNExxbzU6gQg1PCEKNbxOAjW/\r\nz741k5rhNH10PjUWCpw0DWEsNaXJaDUW+i019taDNWpZFTUrVGA1ND4QNSkNFjXI8CM1IYoENdqd\r\noDQu5aQ1WmioNO2DADW3dwI1u04gNf2pxDRVYfg0X9NqNak0IDVPbho1WJLeNFpUozSsPL00bh40\r\nNQyQBDWYd0A1EihKNeXVzjWSavA0RK3YNEC8djXwlJM0USEINVygtjSHZCY1WBRJNZcQwzSPzvw0\r\nyn8xNTA41jRkY181DbAwNVcN4zSx9/Q0FTgBNRKMLDXtNBU1ed7VNABAHTVw9PI0lSGMNZ/xkTXi\r\nSiM1JILVNEa9TDW8ZA81iNJuNYb19DRTu+o0R8kWNVaooDWhow01Gj20NLc5LzXTYzo106ZFNcg7\r\nqDR4gvc0zT48NSDfEzUKzIE1kUX2NJrtFzWEgLg0KTxrNUIJ5DR6IRc13vvFNDGREjWrM0A1hQQR\r\nNai1izVSm0E1AOfFNR0TTTUryog15IQiNbSUSDXCPps0OFcGNYcWADWf2uA0AEBSNQ==",
                            "noiseTrainingType" : "default"
                          }
                        }
                    ],
                    "start" : 7930,
                    "duration" : 420,
                    "mediaStart" : 51,
                    "mediaDuration" : 420,
                    "scalar" : 1,
                    "metadata" : {
                      "WinSubProjectDisplayName" : "",
                      "clipSpeedAttribute" : false
                    },
                    "animationTracks" : {

                    }
                  },
                  {
                    "id" : 57,
                    "_type" : "AMFile",
                    "src" : 8,
                    "trackNumber" : 1,
                    "attributes" : {
                      "ident" : "Aufn. 07-05-19_020",
                      "sampleRate" : 44100,
                      "bitDepth" : 16,
                      "gain" : 1.0,
                      "mixToMono" : true
                    },
                      "channelNumber" : "0,1",
                    "effects" : [
                        {
                          "effectName" : "NoiseReduction",
                          "category" : "categoryAudioEffects",
                          "parameters" : {
                            "denoiserAmount" : 20.0,
                            "denoiserThreshold" : 0.0,
                            "noiseProfile" : "arQCQLSRGkAyLDw/kR6+PmQd4j0wfx89gF0gPez6Gj09NqI8DtYdPPRxAjxVe3c8HwgXPCDzUTxa\r\nJRA8jgwNPD2pPTz8/rM8E6gMPf6CgD1JPA49epnOPAn4KTz4i9c8sE2iPAoRlDzwJRk8m21TPNB0\r\nlTy9SnI7sbvoOl3qPzvc8zQ7rc4BOwmBrzoR8Qk7OmIaO2Osqzqe18o6lfrcOp1NiDoptTI7wsEb\r\nOzoACzujjpc6CzvgOlfUFjug1A07bxqcOpjqtzoMhpk6Ilm1OpIlBDpgYhM7F9cHOoMr0jpqPMs6\r\n5KR+OnCPUzq/BL86K4icOrCtPDo2G7c6Vob9OQRvJTrWMi06Dr9sO22eKzpKIHk6/SBBOmfHVDoj\r\nFvk5oGPsOg8pYzq2aPM6t7aDOxboBTzeYHU8aMRUPE7ePjz1B7g7vnmUO4wPGzuYDkU6EdKgOQge\r\nLjr3bic6F1oWOsrKoTpMdyE7cHEQO5ifrzrvb6U6cucHOz44QDu+nts6uByyOfeUmTnnIEw6IKGs\r\nOiemTzp1LxM7LaTLOn6bXjqwY9E52N5GOmiEKDpp1ow5vfulOXoUYDlQM7s586ajOWJgKzosAco5\r\nvcaPOgTLgjrg9546mjBaOgZZaTpZtno6BZ+YOpWjkjp3fjY66xL4OYaX2TmIVok5PIhiOnt/0jlf\r\nu8o5fF8QOQLdjznpdvs4nz/ZOOL7szjZkrE4VntsOTIIuTlruBM5jWptObLB9jgHCWo59jw1OTwx\r\nSzk0laI4FGeZOWZh0Dg8+rE4fLpMOTBqgjn03Lk5UohnOXarQjkf2ak5Wok9Obpm+DgnMc84A5R1\r\nOKkhfjgNCLo49NejOPpiljinSf443MftOChTeTgPO/k4/jsEORTQXTk6WiY5yuXcOHaARjk4pQk5\r\nmrIBOduKlDkt1e44WQw5OBLBKjkmiIo5q54LOXtR5zgpAZ043sAIOaDmIzlnBxs5qKbDOG4CyzjR\r\nXHw4f1BSOIEWlTjt0SA4t6mzOGEKxjg86/g4xJxQOWhmijmA7NA5wtaEOUTKHTq9TQg6+dkPOnat\r\nIzrPtY06d1WROp3pYTq+wi46dfXQOYYkezrWAqE6JcbQOt59uDryqME6mXKIOrBLhTpPMRU6ghbF\r\nOY+zBjmawms5UabBOcReizno3jo5i10EOZf2gjl0qew4ZwzhOCYxYjhCDS05u3nKOIgRLzm3E7w4\r\nelZcOZLwvTnYnKM5ceKXOU9dUDlhXtM4mI7wOEIoATljx5A55HqyOfYfeDkaNlE5c9IaOdv9QDmG\r\nv1I5eIkCORSuODkJ2U85ox1eOV37ljkuO3g5XHCiOSJaPznm5Yc5TmZDOTwKlzlpm0c58BFfOZVQ\r\nRTlZQdU5v/LaOUzt1TneYJo5SBdWOSF1MTia5lw5nDj4OQCqzTnCyho6JCZOOm81IjrCSQY6da/G\r\nORDURTrd4Qo6WFJ1OXJpXjkFa6446tnyOBtbVDjl9k04T/bKN6pr3zeU0mk4YpaBOHyHgThSp1Y4\r\nfWBLODL/Tjj/WBM4li0hOCYcETi9zcg3VNIUOKt/6DfnIQI4LAXRN7iBhTgcPyw4xOyJOP3oJTif\r\nqtg3nwjfN3kg6TcBNBQ4VkfpNzjYHjgBtdU3OJU8NxCXCDd1fpc3I6ccOCSIwTjT9Vk4hJcXOOVI\r\nsjjK4KA4Ff9UOZ1Jrjhe+C05OIRmOQp4SDk4tzU5jGkkOQLn7ziuKJU4nFkEOWzdPznyw7Y4E2BN\r\nOZwNUTnHT+Q4shEiORdtETngi3M5MrMtOUtwlDggZq44SGwxOeAQFTlNXOo4z/+QOME6ezhkXQc4\r\nSDplOFph1zd87DI4D+gXOE369zcnMSY4CcDaOKAhkjjEe3k4lPtXOG/RAji16xQ4QprnNwbVyjfz\r\nrDU4KnI9OCz+Pzi2xpc3LPh1OGCAPTgLjOs4A4o3OCBZHjj+nRk42Al1OF3KRTgwLZk4NMt6OKHd\r\nUzheWvQ3bK8bOPwIyTbm+XI43CsOOByeCDhclcg3SE+dN//71zc/j9I3elgrOP0t5zesnK83oJkQ\r\nOAr+HDhs8OQ3wocjOElvaTf3onU3ctf0N2+OnTc/8vs3s2NOOKn92zdCNLo3RcLLN1Bk3zdAoRc4\r\nwlFwOF6+Ezi1JUU4FVGTN9jxbzhOfcU3YOYPOKNECThN3Og3hmFKOHjAmjfYJYI4JBh0ODIqvTg+\r\n/Po45eLBOL/H3zhOIDA5yAQwOTx56jhAaHI4GNJVOAArETgqaZk4XCquOC12oTghTKs4icV5ONIO\r\nUTg2IAo5Dl2QONZAEjjzuWs4HWNaOL/UfjcmnFg47JH3OHWCvzgwWMk43wo2OTDNAzlKXq04MdU0\r\nOP+yVTjPUXQ46vgEOSSFqDhZHRE4ddb8OGZKRDlE4TA5s7JSOSe4oDl3eoQ5FvA/OVzKEzliAZw5\r\n9NmGOYKpPzkvrfo4CsKlONLHUTg1s3A46A02OKidYDgOhcE4dGGgOAhTqzcxojk4vPdsOC/BAjii\r\nK2w3w7qBNxnKoTcZZdY3hv2LN4wdEzjdQ603Uzk0ONwSiTilGdE4/KvZOFHrxjj4YAM52/AjOLij\r\njjhNGaY4LiISOWogITnlmCw5IXUdOdLBDjkdzl8539fvOEx4OjnOHxk5byHbOFeIwzhs58o4kNnx\r\nOP4Amjj8Jgk5lrjcOPvSFznwxf44xAz0OB6DzjgwGck44VaYOIfdtzh55l44Z5wnOPhkMTgAARA4\r\nQlXkOHqlSjgYT0A3vp6BOA5iCjhmd9A4km6POP9a8Ti4oCs5M4QTOauHNTmUrpM4RlswOd7/azme\r\nuFc5zgU2Oa4izjjBTKA4uyylOMB9lzhasYI4kJ4pOMFKGjh+Z5c4ECBvOGVCfjiG5jg4H10WOO51\r\n4TgZuXI4WU81OM7NeDiQpO43FO/mNwnprTenbxE4vF6fN8z9yjenzIQ3Pg5uN81V+jbqT9U3ggve\r\nN3WUqThu2WA3oRtbN21eGTcoRmQ36k3eNw2DXTf7gu42QugUN4JfsDZUUQk4BbAJOLhZyjcDt4k3\r\nXNHnN3RxoTdOIcU3QzoEOOkgAzj/slk4SBc3OL7FJziItFg3BisdOB2LLDiW+pQ4b6lXOCUWEDhd\r\n0LA3LcunN5L6jTedUAI4dh4GOF9vfDeRlYU3jLYKONlMfzjvpoI4cUi1OJNL2zgWGzk4Yk3cOIwN\r\npDiu2EA4Xr6EN0MjqTfW5ww42NrqN+JmyDc+Mpg3HkMJN4ym2DeDgUg3x/CXN68gwTe3weI3NAKp\r\nOP9jgDhbv+Q3EitDN5kbPDiCx3U4oOcoOP7YzTecypE3atFvNxuHnje667w3UYuNN1KUuDfG5Gk3\r\nDtkKOOeTOjj4iQw4Siv8NpW9xDedm5M3h1TCNmgFfjc9InY3lCimN73ujDeZtoI3PLzjN3ftDDh+\r\neWo3wGWqN7ZXljfTtQw4qUfNN9Bmbje95eA3iFHbNqchBDg6jbg3I0xDNwR3ozf1aiQ3qnECN4kF\r\nGDcQIEo3OAY4OOg5QTiFKv42iZzvNosFcjeMqz03/k7WNmXOmzbLF4g3JIfbN07yAjhzAI43+kH9\r\nNvC/2zdwYi43b9hQN3Gv8zZiBMc2KTGPNtwpuTbZI7I20q6vNhZecjbmeBs3zkiENh9uCzfEfNc2\r\nKhACNwARoTZShO82LqwCN6G6kjYeoL0251lTNjzLwTWUmjU22g6DNttHdDZ9jgs2J2y5Nva+gTak\r\n54Y2iSCkNvof0TUXJzA2pjZ4NojRdTaHn5026AX1NZ/kcDY5U7Y2h/WTNgxWbDbUA4E2/B2kNnPe\r\njzbOIpI2Q+heNi7XiDZQHqQ2inCqNmS5NjYKG5I2cH+kNqtbTzYpD382HoBUNvhTpDZbI6o2HLt6\r\nNuIvhjaYK3c2WlWCNtjgiTZLC542CNt/Nr7reTb0kD02OJZTNp0agDbohnY2NDKhNmWMhDacgzQ2\r\nJWg5Ntk9jzbWAIE2MLSvNg5VWzbJSpM27IiQNu0MWDaFlrk2Gd6UNk6sXjYz+Uw2PQyKNneYdja6\r\nC342BtiHNqb8hTbeQZ42yhhgNip8gjblP4A2rxFsNpx+wTbb40Q2oICTNpAaiTapjXk2dP6yNigt\r\nkDZmKZI2nIO4NlIpoTZDkYw2QwjkNqOOsDZQm+8241EAN9Jcczbw3UE2M67+NsjdmjZSYEI2+9ih\r\nNq35XzY1HaY2ngNHN9i+RjejNc823/kHN2MxlzbQ3ig2pxoGN9rcCjdBi+g25cf1Nhr/qTZ0fDg2\r\n/RGCNuHBOTaSdQ83Bp8MN28bgTbJPTU25o9JNvi43zYfK582K78fN/EIkDaUcJw2KEJgNzivQDdf\r\n1Js25nNNNnzNODdZ+Xk3pVtYN1sSmjbrtjA2Ff6tNrokqTfTctc3yth6NwWbCDcyeGI2dbGcNr/s\r\nHTYa4Vk2ft1pNuT4LzasV3E2hKDJNgzlsDaeHhs2zkodNkb5EDZAMDI2Ku9CNggjMjb2BXg2l05h\r\nNmEhbzYIi2A2YHaONqQ6OTYwL2o2jOF/Ni2vaDZrQCI2WFSFNnAGuzbEc0s2AlqoNr0DRzb/EsI2\r\nAmhNNhfdTDYdghU2/nhcNtCJUzZ2hoU2DAqKNrxgZDadUjc27XpHNlO+PzYbyeU20jJsNz5RvjbT\r\nfys3yTMhN/yoijZXTIY2tcm7Nki1vTY45oA2VNYFN5ZvCTfAXQs3G75QNvE20TZgxYU2A+KpNlR5\r\nATe/Wbw2Mah0NjLFsDZ5foY24VezNm7pAjY+Kkg3TVVmN89OVTc7j3k3o3BrN+aArjY216I2QtQB\r\nNhz4bDZBWkc2Xw4tNmurYjZJ9oI2Uy0vNlC5OzYYMw42fU8gNqlhGzbvbno2c/pxNpazWDZ1/4Y2\r\nSmZVNh9HcjaW42w2qZdKNjnddzajSwU2CB4ZNrGSgTZjnDw2w2lqNg1DOjYl5k02OjYkNqjPGjZr\r\ndzA2Iag2NmPIiDY1ooQ2us1MNg81Ozb4Nmg234wKNvtWkzZrJiU2BGBYNotrOjbw4ZA2/8lKNjzb\r\nTzYJ2nw2fl5/Np8aVjY5ZlE2yhNuNtHeNTa4Tw02G15LNiPBUTYzmGQ271x1Nv7wljaLylE25Z9H\r\nNkbbITavq2Q2FQ8vNkLZIDZqHG02p9w0Nr0O+zXVHYE21xejNls7UTbRZo42ud8jNrMHSDZWPEA2\r\n98U7NroJEjaGpZI2dWQqNkR8kTYdAW82qKuVNlhiUDYnsVk25N+DNohZnTYkJXg2UBFTNkrpDTZB\r\nQVg2Gt5uNvKQVTaKDFI2StlYNgw+jDZ13CM2vMsxNqNYTjYA/Sk2Ny2FNhFkazY0zCc24sxyNt1x\r\nbDYdJX02jUtXNhM8BjatvBw2uR11Nv/OHDZu/k82UnkHNsNNUzb0CZE2Hn0/NovsSTYNSQs2mH12\r\nNpvhZjZKFxs276g6NitanjbfE6k2a11ANur5NjZ0bkY271hrNkRvGzZ6WHk22Vd1NgAAgDYEwyI8\r\n4JgLO0T6hTqFocM6tMfMOric7Dow35E6TNGPOhvXsDroXYQ6/2OFOjZ7VTpciuw6O9+sOiwmzDoE\r\n/Ys6nI3ROq19Sjr4NIU6I5GfOiTc4zrjPEA6v4WcOo9WejpShSs690aWOj2VgDr9jYQ6XR2gOhWZ\r\nwzrso5k6s9d0Otlwtjogadw6wHvFOmAuqjpat+45EWmGOn1S3zp6p4E6uBuXOlg/QTqAG5E63TDH\r\nOk1AMTqmEs06IoqAOgo1yzofl4k6m2BmOuvrLDpDNG86CoVJOjKuojrLcQc7yXPAOjAD5zpvdFo6\r\nbSprOseHCTvaNJc6l/2BOs471jrlGw86pcsAOxRbvDrMjkk7eaVnOoOVjzqgowI7HPPjOoAG3zqA\r\ne+86VtWuOtAfVTrCPJk6WNGDOg9OYToEdUA6mHFMOndTwDn0Lfo6BPzHOo0LPDrPmlA6hDp6OhwG\r\n0Dokw4I6hW0tOlrHjjpfcXY6qLyeOnT+ZDof9+I6sIDeOvjElDpdfJU6ZdMxOquNozrqtzU67cNS\r\nOhPJqzrbX146zgYBOtnBgDrroHc6oYsxOnvLTDqp0Yc6lH6HOoByIDuvXjc6cbxfOjpM3Tp1z206\r\nsJ2UOqAVkTreV4w6VcCTOmWRHjrCsxA6E/CeOh9xNDoWfeU6bv8LOhkYJjrQul86AMApOwifqToP\r\nEkE62jQXOuiCaDp41FA6d+YmOgTFNzqINxo6GezlOvRkgDp6XYY6dvPBOoUiEjpSLZw6QbSGOolz\r\njzrcDQ87CaWFOiycWToIwUk6W5edOh/Jmjpn47M6SR6rOvsFbDqIwUM6khewOmtBeToSTTc6+LdX\r\nOuRwIDpcv9g6KHSQOjzIXTqGA7M6c9w3OgXtbDqoPQ065DtQOvndITpLacY6hR4GOu6t7zrVWrU6\r\n32CEOvoidDpcJQw6jpevOlKbZjqn7oQ6DCGAOhIZiTpQipQ65SRROqgnejpK4wo6rKIJOmrS1zl2\r\nCrU69IXCOuHH1zrlKpY6aNrBOohVpjqjA7U6TN2DOo4vjDqJ1ag6/EZeOqw//DrPfhQ6nmzMOu7X\r\nPzpWoKo6jqmYOgpqwTqB23Q6sQgAOu9cVjrtKGI67L0oOksKgDqN22A6VmQ3OorunjorXIA63izi\r\nOWUsyTqe4j06aJEnOi+z0jq5/Do6OJeaOvrUnjoz4kk6F9ueOspaYDoy9qg6TpBrOp/6QDoLMFI6\r\nwZxqOqrg0TmpWpE6PmJ8Ou5+hjo6ZWo61MatOmBiOToYltw6cB60OWPDczqvOyg6m3ynOuY9xzoh\r\n/lY6iR+XOik2BztQeLI6x1R9Or1trzr02Dc6BT1mOg0d/DpT71E6xeiOOpBghTokjI86wG6HOve3\r\n0jqjRH46axoKO7LW6Dr/6Jw6vByYOgsgWjpcg2o6f58uOj+6tzpFTdY6mf40OmOggDo1JCk6KjiM\r\nOs11iTrzMJ46AC5POrs08jrg5+A6HDKeOhiS4jq6DHQ6nJeoOjpk5Do1cHM6JgnHOkRcqTqAZY06\r\nQN91OlQfujpQxyA6lPfhOvkPnTqvqpY6Q/J1OhMxFTpScrE6nd9dOoYMmTpW3JE6dkJEOmxkezqG\r\n+LU6A98COq4ycTrSvGM6UpFqOnRthTrnkog6OdkWO1qSyzruTqU6HvCAOl+86zrwUAA7xyicOlr+\r\ndzoia5c6op8TOz6CGDsV7ks6krrMOsZaQjpI7po6jQwDO01mtzqUW1g6OsdYOtCkjjoz3cw65sQ9\r\nOvsDnDofmPo6+JZXOjb+wDqnxiY6hrrXOkZwyDq4za46MBqVOp0g1ToMZDk6yVmHOsrbfDoemXw6\r\nuVSFOqQrSzrl4bs6i/aGOv5+GzqSNgU6DUZNOgiIrjrNSao6CeToOkyUTTr0NjI6frAvOrBlozqE\r\nGFk603uqOr3ykzpo2gY6QLCxOhYKejq+v4c6UHk6Ou+4bTqdk3o65+soOpJyUzpQKrM6/mu5Oog9\r\n+Tq/Tmk6daN0OtRegjoRJLI6wkFJOn+nTjqaWZM6PQeBOpM6kTqxmpk6M+CUOur1kTpD/rY6ogjS\r\nOrTgWzriL5U6OMa9OmfpNTrjxT06/FGCOuHEszpko2M6sGDsOaxcdjpqBKI6ubtGOrmxqzoDdRk6\r\nchlZOsqmYjrE45865E5iOgAtnzpeIa86WYU9Oq3Xojpqv4w6SiVnOp4p7jn/1Ks6gpZiOuIjhDrt\r\nYvA6H8lxOh6VbjrWGBg67QRPOiza5TpCPZ06wRKiOl4rgzp+5VQ6T4SfOoBVFjr1fpw6CN1kOraI\r\nLDu2dno6JDJkOs8Q1Tq7+js6HCKlOqfznjrP+ck6ytZ8OkphPzpaC4c6DVgbOh0UgTrChRs6xUFg\r\nOt8LczqaIfo61QpDOhQHATuPTrE68PW7Oh89RDpwR5c5TmyjOho5NzoLGw46g2aBOv9wMzr8hqA6\r\n1nlGOj46PDoLoHQ6fJa/OhqMaDoFq4Q69r0xOqYi1zoYd0o6KpsvOihJxjoMOAI74ItOOgKTaDrf\r\nk6w6vyZqOs/lgzqhySQ6U3FpOlVQrzonLEY6W2hhOmLrSzrx8n86QV4GOpdbijr7bPY6btkiOtGY\r\n9DqaTZU6TyOgOqDRJjrknj86GqAROuSVJDrO0Mc6UYB5Ov68mToSd+w55zQSOrLjazqnroU62NPo\r\nOrpnAztsGFc61BStOgCF3joyFG46zBadOpSifToEUFs6ymkUOojlqTqMGsI6LsmWOgDtvjqC9e45\r\n9YmMOiC7ojpQfZQ6fKdWOvksajr1NuQ6q0s0OlRpmTp0IZM6eIMyOiqcSjqcLdQ6ohhxOjjWqTrJ\r\nkVA6PUWoOok3ijo7pIo6xDxxOnxKdzou7Ro6Mod/Ol7xWjoO/6g6dTV9Ol4cZTrytFE6znsrOqHs\r\nKzoB9006VmTfOqrZ8jmegwM6ZqZ1OuCnhzrOo2k6AGOXOmmVbjrQLmE6Th9fOrPeyjmc/y86Totr\r\nOkkOkTqsVV46kRZCOrt7njoEd2g6txY+OrQdHjrAhaw6XQBAOgIKmToq74k6ArmIOqmsTzohHm46\r\nuzQ6OkSYJzo95xw6FhcvOtlWSTpMrDc6vNZbOv07LjriIHc6ADZGOggcbTrkCoc6xZKFOlp5QDrq\r\n3kw6r+oaOimIcjpsUK465u88Ovz8kTp763c6jNNrOo4nPjp0u2Q6ZrhOOjIzOjqQS7Y6dFg2OqFb\r\nmTogw586CsyZOoe8OzpMtWI6Ol1wOjlFiTrkzQ46Z82XOuAxmjrLp1A6gliSOq6GTTos6fQ5IBh/\r\nOqeboDraVoc6IK40OsQGgDoJqYA6DwJ9Ot5n2zrn/nc6PvwHOpSODDqEfFI6luu8OmI4iDpwtEU6\r\nWswBOliYiToUUTk6kmRDOovBfzobt4Y6WCAvOv1ikDrOC046lMmKOiKKMzo6F7Q6moZTOuDwtjrQ\r\nNgM6ULg3OqJujTrZgSc6sAT8OgNltjqaXo46tvmPOiw0VTrF/Y46eff7OX7Crjr3NEA6xJuPOpp1\r\nrjphNIw6iR0sOlejYTqcP9g6PbsbOppgaDrMD2s684BROlLGhTqql1w6f0tWOvA4qTpKGxU6DJOg\r\nOuD8izrKqTo6zlZWOiJFBzs/REY6Anw4Ong0ljpukoQ6c+u4Ov13tToOw6E6uGmIOlkQkDpwXRY6\r\nF+seOp4/ajoq9A468fRAOrosYzpuvnA66j4gOsXSiDrulj06FEZzOtYg/DlwOZk6OZuMOhIyQDpm\r\nHJc6ctmJOk6nhDrCt4w6PRrQOQhJvjlG96A4x02RN8uCQjfCTCw3PhC1Nifk4TYICes2XHmmNtr6\r\nhjb/e0g2OH+zNpsVNTavoi023PpNNs1FIDZ09uE1oOwbNoWW1TVsJCU2dyNVNmp2DjZ3DAk2ZOnL\r\nNYMGATbrZ441IwG6NVqbnDWPu6Y1ltmsNcwaRDVmq481T/eXNVjvijW2gIg1/MiBNR9XezXFP7g1\r\nnqQiNdOA/jX3s/o19n6ENaFrlzWcwG41ldQWNYUKnDXWU2A1GBX4NQY6djXAQJQ1hnI6NUwqWjWr\r\nn481t0ppNSivHDV31IE1dlKGNZA5XTUYTpc1ZfCANYqrrDVqhoQ1KLdfNS8yHDX6lqo3LuonOQIb\r\n2TnnXqw5qEWVOFCsgTmQ85k5LI7cN3iC3TdOV4s3zvBcOXMiYzmJl4Q5Q/UrOoc/jzpeHxs6nfBy\r\nNlwPDjhMJMk4vBabOYP5Pjm5gnQ45umZOPSh1TggRcI5v6C8OYAa2TgOCsY3ZA/2OGaEwjkpwUs5\r\n62a2OGRqjDkxfJQ5Rm3qOBZWPjhotLc5ko6COVNqhDlE+eE5EvshOTynjzjxlsk4+FBdOXArQTkg\r\nbdA4fP3GOSL2GzrE64M56lUdOcwkHjmP2RU6XZNQOlU7AjobTqY5lmkBOY6CSTnBu4E5oEFxOXZn\r\nbzhgG4s53MrYOUtHtDkFfA86+4MMOrZlMDVu1iY1RE9rNXSXYzXduMI0Auj5NMlhuTSYDIw1f8g8\r\nNSlGEjWoxCI1dns9NcJ80TS31Ro16tCJNXGrNTXl/zA1X7c7NTCLHTWwfac0awGsNBcQTDUh9q00\r\nN3J4NdV/vTT7jDs1Br1/NYAYcjXlL+Q0uvhZNXIFIzVfjhs4vvv9OTz/EDpk8d453s8nOkz/Njk2\r\nCBo5YIKfObUFyTl7S5858CNLODGcGTpF5Ck6Ra/0OTDvCDo3qwM6lfIEOlEuyjl2mYU5QFZKOODr\r\nszij5UA5ZjbjOXOx4jmRcQs5Z1lAOeLjhjlN7+E5cIcsOUDapTmMV505cqhnOAMBhDhULjQ1vbop\r\nNVR0yjX6LCc11nVRNZMAITVQvDI1NiMSNQxk3DQvedE0IxEDNeXMNzUSkiI1x6wfNcqh4TQAOWM1\r\nBm0bNaDgFjUgJoc1b8CSNIYyDjWri6o0wPgKNTr6FTVyMpw0oQ2HNQkIGzUirgQ1hVFKNZDeADVZ\r\nW/A0hCBGNeN89jTyW880WIrlNE5rzzQQDAg1kkMWNXgTZTQGDtg0D5wXNRJ7BzU5dAU1RK3gNPQa\r\nyjTm3YM1whZdNUlzGDXxsnk0k3QHNQYX/TSG/tg0tUsINRNNIDV7XrM0iUKtNDFatDSc9cM0cgfL\r\nNEcWgDTqZ7o0+1g8NXP3tDTy/6Q0wGAdNcgvgDV/E9g02Jv5NHG6QjVxEv00hQQCNaytqzTg/g01\r\nYStZNaYnGjViRSs1/i3bNEEJCDUQZ8M0E9q1NKwUDjUjiBA1xAqUNJoe4DSHgA417ywlNY4o4TRX\r\n4DM0vmQSNfRT/jTcY/c0WfCgNeXeczTK7Z00zY8UNQyVITWdMxI1T/3aNJCUWjU69yk1UhYFNZ0C\r\nDDUaWtE05l07NcpsVDSg67806kMLNRHlKjVaxfI0QJcINQ6ZFDWbMPQ0JZYZNUJG9DTej7g0gt0z\r\nNR0dtTS+GCw1Dq+QNMkzajVbj7w0b+l/NAgL2zRvLY009K61NCNZ0TRKSeo0AEAcNQ==",
                            "noiseTrainingType" : "default"
                          }
                        }
                    ],
                    "start" : 8350,
                    "duration" : 997,
                    "mediaStart" : 24,
                    "mediaDuration" : 997,
                    "scalar" : 1,
                    "metadata" : {
                      "WinSubProjectDisplayName" : "",
                      "clipSpeedAttribute" : false
                    },
                    "animationTracks" : {

                    }
                  },
                  {
                    "id" : 58,
                    "_type" : "AMFile",
                    "src" : 8,
                    "trackNumber" : 1,
                    "attributes" : {
                      "ident" : "Aufn. 07-05-19_020",
                      "sampleRate" : 44100,
                      "bitDepth" : 16,
                      "gain" : 1.0,
                      "mixToMono" : true
                    },
                      "channelNumber" : "0,1",
                    "effects" : [
                        {
                          "effectName" : "NoiseReduction",
                          "category" : "categoryAudioEffects",
                          "parameters" : {
                            "denoiserAmount" : 20.0,
                            "denoiserThreshold" : 0.0,
                            "noiseProfile" : "arQCQLSRGkAyLDw/kR6+PmQd4j0wfx89gF0gPez6Gj09NqI8DtYdPPRxAjxVe3c8HwgXPCDzUTxa\r\nJRA8jgwNPD2pPTz8/rM8E6gMPf6CgD1JPA49epnOPAn4KTz4i9c8sE2iPAoRlDzwJRk8m21TPNB0\r\nlTy9SnI7sbvoOl3qPzvc8zQ7rc4BOwmBrzoR8Qk7OmIaO2Osqzqe18o6lfrcOp1NiDoptTI7wsEb\r\nOzoACzujjpc6CzvgOlfUFjug1A07bxqcOpjqtzoMhpk6Ilm1OpIlBDpgYhM7F9cHOoMr0jpqPMs6\r\n5KR+OnCPUzq/BL86K4icOrCtPDo2G7c6Vob9OQRvJTrWMi06Dr9sO22eKzpKIHk6/SBBOmfHVDoj\r\nFvk5oGPsOg8pYzq2aPM6t7aDOxboBTzeYHU8aMRUPE7ePjz1B7g7vnmUO4wPGzuYDkU6EdKgOQge\r\nLjr3bic6F1oWOsrKoTpMdyE7cHEQO5ifrzrvb6U6cucHOz44QDu+nts6uByyOfeUmTnnIEw6IKGs\r\nOiemTzp1LxM7LaTLOn6bXjqwY9E52N5GOmiEKDpp1ow5vfulOXoUYDlQM7s586ajOWJgKzosAco5\r\nvcaPOgTLgjrg9546mjBaOgZZaTpZtno6BZ+YOpWjkjp3fjY66xL4OYaX2TmIVok5PIhiOnt/0jlf\r\nu8o5fF8QOQLdjznpdvs4nz/ZOOL7szjZkrE4VntsOTIIuTlruBM5jWptObLB9jgHCWo59jw1OTwx\r\nSzk0laI4FGeZOWZh0Dg8+rE4fLpMOTBqgjn03Lk5UohnOXarQjkf2ak5Wok9Obpm+DgnMc84A5R1\r\nOKkhfjgNCLo49NejOPpiljinSf443MftOChTeTgPO/k4/jsEORTQXTk6WiY5yuXcOHaARjk4pQk5\r\nmrIBOduKlDkt1e44WQw5OBLBKjkmiIo5q54LOXtR5zgpAZ043sAIOaDmIzlnBxs5qKbDOG4CyzjR\r\nXHw4f1BSOIEWlTjt0SA4t6mzOGEKxjg86/g4xJxQOWhmijmA7NA5wtaEOUTKHTq9TQg6+dkPOnat\r\nIzrPtY06d1WROp3pYTq+wi46dfXQOYYkezrWAqE6JcbQOt59uDryqME6mXKIOrBLhTpPMRU6ghbF\r\nOY+zBjmawms5UabBOcReizno3jo5i10EOZf2gjl0qew4ZwzhOCYxYjhCDS05u3nKOIgRLzm3E7w4\r\nelZcOZLwvTnYnKM5ceKXOU9dUDlhXtM4mI7wOEIoATljx5A55HqyOfYfeDkaNlE5c9IaOdv9QDmG\r\nv1I5eIkCORSuODkJ2U85ox1eOV37ljkuO3g5XHCiOSJaPznm5Yc5TmZDOTwKlzlpm0c58BFfOZVQ\r\nRTlZQdU5v/LaOUzt1TneYJo5SBdWOSF1MTia5lw5nDj4OQCqzTnCyho6JCZOOm81IjrCSQY6da/G\r\nORDURTrd4Qo6WFJ1OXJpXjkFa6446tnyOBtbVDjl9k04T/bKN6pr3zeU0mk4YpaBOHyHgThSp1Y4\r\nfWBLODL/Tjj/WBM4li0hOCYcETi9zcg3VNIUOKt/6DfnIQI4LAXRN7iBhTgcPyw4xOyJOP3oJTif\r\nqtg3nwjfN3kg6TcBNBQ4VkfpNzjYHjgBtdU3OJU8NxCXCDd1fpc3I6ccOCSIwTjT9Vk4hJcXOOVI\r\nsjjK4KA4Ff9UOZ1Jrjhe+C05OIRmOQp4SDk4tzU5jGkkOQLn7ziuKJU4nFkEOWzdPznyw7Y4E2BN\r\nOZwNUTnHT+Q4shEiORdtETngi3M5MrMtOUtwlDggZq44SGwxOeAQFTlNXOo4z/+QOME6ezhkXQc4\r\nSDplOFph1zd87DI4D+gXOE369zcnMSY4CcDaOKAhkjjEe3k4lPtXOG/RAji16xQ4QprnNwbVyjfz\r\nrDU4KnI9OCz+Pzi2xpc3LPh1OGCAPTgLjOs4A4o3OCBZHjj+nRk42Al1OF3KRTgwLZk4NMt6OKHd\r\nUzheWvQ3bK8bOPwIyTbm+XI43CsOOByeCDhclcg3SE+dN//71zc/j9I3elgrOP0t5zesnK83oJkQ\r\nOAr+HDhs8OQ3wocjOElvaTf3onU3ctf0N2+OnTc/8vs3s2NOOKn92zdCNLo3RcLLN1Bk3zdAoRc4\r\nwlFwOF6+Ezi1JUU4FVGTN9jxbzhOfcU3YOYPOKNECThN3Og3hmFKOHjAmjfYJYI4JBh0ODIqvTg+\r\n/Po45eLBOL/H3zhOIDA5yAQwOTx56jhAaHI4GNJVOAArETgqaZk4XCquOC12oTghTKs4icV5ONIO\r\nUTg2IAo5Dl2QONZAEjjzuWs4HWNaOL/UfjcmnFg47JH3OHWCvzgwWMk43wo2OTDNAzlKXq04MdU0\r\nOP+yVTjPUXQ46vgEOSSFqDhZHRE4ddb8OGZKRDlE4TA5s7JSOSe4oDl3eoQ5FvA/OVzKEzliAZw5\r\n9NmGOYKpPzkvrfo4CsKlONLHUTg1s3A46A02OKidYDgOhcE4dGGgOAhTqzcxojk4vPdsOC/BAjii\r\nK2w3w7qBNxnKoTcZZdY3hv2LN4wdEzjdQ603Uzk0ONwSiTilGdE4/KvZOFHrxjj4YAM52/AjOLij\r\njjhNGaY4LiISOWogITnlmCw5IXUdOdLBDjkdzl8539fvOEx4OjnOHxk5byHbOFeIwzhs58o4kNnx\r\nOP4Amjj8Jgk5lrjcOPvSFznwxf44xAz0OB6DzjgwGck44VaYOIfdtzh55l44Z5wnOPhkMTgAARA4\r\nQlXkOHqlSjgYT0A3vp6BOA5iCjhmd9A4km6POP9a8Ti4oCs5M4QTOauHNTmUrpM4RlswOd7/azme\r\nuFc5zgU2Oa4izjjBTKA4uyylOMB9lzhasYI4kJ4pOMFKGjh+Z5c4ECBvOGVCfjiG5jg4H10WOO51\r\n4TgZuXI4WU81OM7NeDiQpO43FO/mNwnprTenbxE4vF6fN8z9yjenzIQ3Pg5uN81V+jbqT9U3ggve\r\nN3WUqThu2WA3oRtbN21eGTcoRmQ36k3eNw2DXTf7gu42QugUN4JfsDZUUQk4BbAJOLhZyjcDt4k3\r\nXNHnN3RxoTdOIcU3QzoEOOkgAzj/slk4SBc3OL7FJziItFg3BisdOB2LLDiW+pQ4b6lXOCUWEDhd\r\n0LA3LcunN5L6jTedUAI4dh4GOF9vfDeRlYU3jLYKONlMfzjvpoI4cUi1OJNL2zgWGzk4Yk3cOIwN\r\npDiu2EA4Xr6EN0MjqTfW5ww42NrqN+JmyDc+Mpg3HkMJN4ym2DeDgUg3x/CXN68gwTe3weI3NAKp\r\nOP9jgDhbv+Q3EitDN5kbPDiCx3U4oOcoOP7YzTecypE3atFvNxuHnje667w3UYuNN1KUuDfG5Gk3\r\nDtkKOOeTOjj4iQw4Siv8NpW9xDedm5M3h1TCNmgFfjc9InY3lCimN73ujDeZtoI3PLzjN3ftDDh+\r\neWo3wGWqN7ZXljfTtQw4qUfNN9Bmbje95eA3iFHbNqchBDg6jbg3I0xDNwR3ozf1aiQ3qnECN4kF\r\nGDcQIEo3OAY4OOg5QTiFKv42iZzvNosFcjeMqz03/k7WNmXOmzbLF4g3JIfbN07yAjhzAI43+kH9\r\nNvC/2zdwYi43b9hQN3Gv8zZiBMc2KTGPNtwpuTbZI7I20q6vNhZecjbmeBs3zkiENh9uCzfEfNc2\r\nKhACNwARoTZShO82LqwCN6G6kjYeoL0251lTNjzLwTWUmjU22g6DNttHdDZ9jgs2J2y5Nva+gTak\r\n54Y2iSCkNvof0TUXJzA2pjZ4NojRdTaHn5026AX1NZ/kcDY5U7Y2h/WTNgxWbDbUA4E2/B2kNnPe\r\njzbOIpI2Q+heNi7XiDZQHqQ2inCqNmS5NjYKG5I2cH+kNqtbTzYpD382HoBUNvhTpDZbI6o2HLt6\r\nNuIvhjaYK3c2WlWCNtjgiTZLC542CNt/Nr7reTb0kD02OJZTNp0agDbohnY2NDKhNmWMhDacgzQ2\r\nJWg5Ntk9jzbWAIE2MLSvNg5VWzbJSpM27IiQNu0MWDaFlrk2Gd6UNk6sXjYz+Uw2PQyKNneYdja6\r\nC342BtiHNqb8hTbeQZ42yhhgNip8gjblP4A2rxFsNpx+wTbb40Q2oICTNpAaiTapjXk2dP6yNigt\r\nkDZmKZI2nIO4NlIpoTZDkYw2QwjkNqOOsDZQm+8241EAN9Jcczbw3UE2M67+NsjdmjZSYEI2+9ih\r\nNq35XzY1HaY2ngNHN9i+RjejNc823/kHN2MxlzbQ3ig2pxoGN9rcCjdBi+g25cf1Nhr/qTZ0fDg2\r\n/RGCNuHBOTaSdQ83Bp8MN28bgTbJPTU25o9JNvi43zYfK582K78fN/EIkDaUcJw2KEJgNzivQDdf\r\n1Js25nNNNnzNODdZ+Xk3pVtYN1sSmjbrtjA2Ff6tNrokqTfTctc3yth6NwWbCDcyeGI2dbGcNr/s\r\nHTYa4Vk2ft1pNuT4LzasV3E2hKDJNgzlsDaeHhs2zkodNkb5EDZAMDI2Ku9CNggjMjb2BXg2l05h\r\nNmEhbzYIi2A2YHaONqQ6OTYwL2o2jOF/Ni2vaDZrQCI2WFSFNnAGuzbEc0s2AlqoNr0DRzb/EsI2\r\nAmhNNhfdTDYdghU2/nhcNtCJUzZ2hoU2DAqKNrxgZDadUjc27XpHNlO+PzYbyeU20jJsNz5RvjbT\r\nfys3yTMhN/yoijZXTIY2tcm7Nki1vTY45oA2VNYFN5ZvCTfAXQs3G75QNvE20TZgxYU2A+KpNlR5\r\nATe/Wbw2Mah0NjLFsDZ5foY24VezNm7pAjY+Kkg3TVVmN89OVTc7j3k3o3BrN+aArjY216I2QtQB\r\nNhz4bDZBWkc2Xw4tNmurYjZJ9oI2Uy0vNlC5OzYYMw42fU8gNqlhGzbvbno2c/pxNpazWDZ1/4Y2\r\nSmZVNh9HcjaW42w2qZdKNjnddzajSwU2CB4ZNrGSgTZjnDw2w2lqNg1DOjYl5k02OjYkNqjPGjZr\r\ndzA2Iag2NmPIiDY1ooQ2us1MNg81Ozb4Nmg234wKNvtWkzZrJiU2BGBYNotrOjbw4ZA2/8lKNjzb\r\nTzYJ2nw2fl5/Np8aVjY5ZlE2yhNuNtHeNTa4Tw02G15LNiPBUTYzmGQ271x1Nv7wljaLylE25Z9H\r\nNkbbITavq2Q2FQ8vNkLZIDZqHG02p9w0Nr0O+zXVHYE21xejNls7UTbRZo42ud8jNrMHSDZWPEA2\r\n98U7NroJEjaGpZI2dWQqNkR8kTYdAW82qKuVNlhiUDYnsVk25N+DNohZnTYkJXg2UBFTNkrpDTZB\r\nQVg2Gt5uNvKQVTaKDFI2StlYNgw+jDZ13CM2vMsxNqNYTjYA/Sk2Ny2FNhFkazY0zCc24sxyNt1x\r\nbDYdJX02jUtXNhM8BjatvBw2uR11Nv/OHDZu/k82UnkHNsNNUzb0CZE2Hn0/NovsSTYNSQs2mH12\r\nNpvhZjZKFxs276g6NitanjbfE6k2a11ANur5NjZ0bkY271hrNkRvGzZ6WHk22Vd1NgAAgDYEwyI8\r\n4JgLO0T6hTqFocM6tMfMOric7Dow35E6TNGPOhvXsDroXYQ6/2OFOjZ7VTpciuw6O9+sOiwmzDoE\r\n/Ys6nI3ROq19Sjr4NIU6I5GfOiTc4zrjPEA6v4WcOo9WejpShSs690aWOj2VgDr9jYQ6XR2gOhWZ\r\nwzrso5k6s9d0Otlwtjogadw6wHvFOmAuqjpat+45EWmGOn1S3zp6p4E6uBuXOlg/QTqAG5E63TDH\r\nOk1AMTqmEs06IoqAOgo1yzofl4k6m2BmOuvrLDpDNG86CoVJOjKuojrLcQc7yXPAOjAD5zpvdFo6\r\nbSprOseHCTvaNJc6l/2BOs471jrlGw86pcsAOxRbvDrMjkk7eaVnOoOVjzqgowI7HPPjOoAG3zqA\r\ne+86VtWuOtAfVTrCPJk6WNGDOg9OYToEdUA6mHFMOndTwDn0Lfo6BPzHOo0LPDrPmlA6hDp6OhwG\r\n0Dokw4I6hW0tOlrHjjpfcXY6qLyeOnT+ZDof9+I6sIDeOvjElDpdfJU6ZdMxOquNozrqtzU67cNS\r\nOhPJqzrbX146zgYBOtnBgDrroHc6oYsxOnvLTDqp0Yc6lH6HOoByIDuvXjc6cbxfOjpM3Tp1z206\r\nsJ2UOqAVkTreV4w6VcCTOmWRHjrCsxA6E/CeOh9xNDoWfeU6bv8LOhkYJjrQul86AMApOwifqToP\r\nEkE62jQXOuiCaDp41FA6d+YmOgTFNzqINxo6GezlOvRkgDp6XYY6dvPBOoUiEjpSLZw6QbSGOolz\r\njzrcDQ87CaWFOiycWToIwUk6W5edOh/Jmjpn47M6SR6rOvsFbDqIwUM6khewOmtBeToSTTc6+LdX\r\nOuRwIDpcv9g6KHSQOjzIXTqGA7M6c9w3OgXtbDqoPQ065DtQOvndITpLacY6hR4GOu6t7zrVWrU6\r\n32CEOvoidDpcJQw6jpevOlKbZjqn7oQ6DCGAOhIZiTpQipQ65SRROqgnejpK4wo6rKIJOmrS1zl2\r\nCrU69IXCOuHH1zrlKpY6aNrBOohVpjqjA7U6TN2DOo4vjDqJ1ag6/EZeOqw//DrPfhQ6nmzMOu7X\r\nPzpWoKo6jqmYOgpqwTqB23Q6sQgAOu9cVjrtKGI67L0oOksKgDqN22A6VmQ3OorunjorXIA63izi\r\nOWUsyTqe4j06aJEnOi+z0jq5/Do6OJeaOvrUnjoz4kk6F9ueOspaYDoy9qg6TpBrOp/6QDoLMFI6\r\nwZxqOqrg0TmpWpE6PmJ8Ou5+hjo6ZWo61MatOmBiOToYltw6cB60OWPDczqvOyg6m3ynOuY9xzoh\r\n/lY6iR+XOik2BztQeLI6x1R9Or1trzr02Dc6BT1mOg0d/DpT71E6xeiOOpBghTokjI86wG6HOve3\r\n0jqjRH46axoKO7LW6Dr/6Jw6vByYOgsgWjpcg2o6f58uOj+6tzpFTdY6mf40OmOggDo1JCk6KjiM\r\nOs11iTrzMJ46AC5POrs08jrg5+A6HDKeOhiS4jq6DHQ6nJeoOjpk5Do1cHM6JgnHOkRcqTqAZY06\r\nQN91OlQfujpQxyA6lPfhOvkPnTqvqpY6Q/J1OhMxFTpScrE6nd9dOoYMmTpW3JE6dkJEOmxkezqG\r\n+LU6A98COq4ycTrSvGM6UpFqOnRthTrnkog6OdkWO1qSyzruTqU6HvCAOl+86zrwUAA7xyicOlr+\r\ndzoia5c6op8TOz6CGDsV7ks6krrMOsZaQjpI7po6jQwDO01mtzqUW1g6OsdYOtCkjjoz3cw65sQ9\r\nOvsDnDofmPo6+JZXOjb+wDqnxiY6hrrXOkZwyDq4za46MBqVOp0g1ToMZDk6yVmHOsrbfDoemXw6\r\nuVSFOqQrSzrl4bs6i/aGOv5+GzqSNgU6DUZNOgiIrjrNSao6CeToOkyUTTr0NjI6frAvOrBlozqE\r\nGFk603uqOr3ykzpo2gY6QLCxOhYKejq+v4c6UHk6Ou+4bTqdk3o65+soOpJyUzpQKrM6/mu5Oog9\r\n+Tq/Tmk6daN0OtRegjoRJLI6wkFJOn+nTjqaWZM6PQeBOpM6kTqxmpk6M+CUOur1kTpD/rY6ogjS\r\nOrTgWzriL5U6OMa9OmfpNTrjxT06/FGCOuHEszpko2M6sGDsOaxcdjpqBKI6ubtGOrmxqzoDdRk6\r\nchlZOsqmYjrE45865E5iOgAtnzpeIa86WYU9Oq3Xojpqv4w6SiVnOp4p7jn/1Ks6gpZiOuIjhDrt\r\nYvA6H8lxOh6VbjrWGBg67QRPOiza5TpCPZ06wRKiOl4rgzp+5VQ6T4SfOoBVFjr1fpw6CN1kOraI\r\nLDu2dno6JDJkOs8Q1Tq7+js6HCKlOqfznjrP+ck6ytZ8OkphPzpaC4c6DVgbOh0UgTrChRs6xUFg\r\nOt8LczqaIfo61QpDOhQHATuPTrE68PW7Oh89RDpwR5c5TmyjOho5NzoLGw46g2aBOv9wMzr8hqA6\r\n1nlGOj46PDoLoHQ6fJa/OhqMaDoFq4Q69r0xOqYi1zoYd0o6KpsvOihJxjoMOAI74ItOOgKTaDrf\r\nk6w6vyZqOs/lgzqhySQ6U3FpOlVQrzonLEY6W2hhOmLrSzrx8n86QV4GOpdbijr7bPY6btkiOtGY\r\n9DqaTZU6TyOgOqDRJjrknj86GqAROuSVJDrO0Mc6UYB5Ov68mToSd+w55zQSOrLjazqnroU62NPo\r\nOrpnAztsGFc61BStOgCF3joyFG46zBadOpSifToEUFs6ymkUOojlqTqMGsI6LsmWOgDtvjqC9e45\r\n9YmMOiC7ojpQfZQ6fKdWOvksajr1NuQ6q0s0OlRpmTp0IZM6eIMyOiqcSjqcLdQ6ohhxOjjWqTrJ\r\nkVA6PUWoOok3ijo7pIo6xDxxOnxKdzou7Ro6Mod/Ol7xWjoO/6g6dTV9Ol4cZTrytFE6znsrOqHs\r\nKzoB9006VmTfOqrZ8jmegwM6ZqZ1OuCnhzrOo2k6AGOXOmmVbjrQLmE6Th9fOrPeyjmc/y86Totr\r\nOkkOkTqsVV46kRZCOrt7njoEd2g6txY+OrQdHjrAhaw6XQBAOgIKmToq74k6ArmIOqmsTzohHm46\r\nuzQ6OkSYJzo95xw6FhcvOtlWSTpMrDc6vNZbOv07LjriIHc6ADZGOggcbTrkCoc6xZKFOlp5QDrq\r\n3kw6r+oaOimIcjpsUK465u88Ovz8kTp763c6jNNrOo4nPjp0u2Q6ZrhOOjIzOjqQS7Y6dFg2OqFb\r\nmTogw586CsyZOoe8OzpMtWI6Ol1wOjlFiTrkzQ46Z82XOuAxmjrLp1A6gliSOq6GTTos6fQ5IBh/\r\nOqeboDraVoc6IK40OsQGgDoJqYA6DwJ9Ot5n2zrn/nc6PvwHOpSODDqEfFI6luu8OmI4iDpwtEU6\r\nWswBOliYiToUUTk6kmRDOovBfzobt4Y6WCAvOv1ikDrOC046lMmKOiKKMzo6F7Q6moZTOuDwtjrQ\r\nNgM6ULg3OqJujTrZgSc6sAT8OgNltjqaXo46tvmPOiw0VTrF/Y46eff7OX7Crjr3NEA6xJuPOpp1\r\nrjphNIw6iR0sOlejYTqcP9g6PbsbOppgaDrMD2s684BROlLGhTqql1w6f0tWOvA4qTpKGxU6DJOg\r\nOuD8izrKqTo6zlZWOiJFBzs/REY6Anw4Ong0ljpukoQ6c+u4Ov13tToOw6E6uGmIOlkQkDpwXRY6\r\nF+seOp4/ajoq9A468fRAOrosYzpuvnA66j4gOsXSiDrulj06FEZzOtYg/DlwOZk6OZuMOhIyQDpm\r\nHJc6ctmJOk6nhDrCt4w6PRrQOQhJvjlG96A4x02RN8uCQjfCTCw3PhC1Nifk4TYICes2XHmmNtr6\r\nhjb/e0g2OH+zNpsVNTavoi023PpNNs1FIDZ09uE1oOwbNoWW1TVsJCU2dyNVNmp2DjZ3DAk2ZOnL\r\nNYMGATbrZ441IwG6NVqbnDWPu6Y1ltmsNcwaRDVmq481T/eXNVjvijW2gIg1/MiBNR9XezXFP7g1\r\nnqQiNdOA/jX3s/o19n6ENaFrlzWcwG41ldQWNYUKnDXWU2A1GBX4NQY6djXAQJQ1hnI6NUwqWjWr\r\nn481t0ppNSivHDV31IE1dlKGNZA5XTUYTpc1ZfCANYqrrDVqhoQ1KLdfNS8yHDX6lqo3LuonOQIb\r\n2TnnXqw5qEWVOFCsgTmQ85k5LI7cN3iC3TdOV4s3zvBcOXMiYzmJl4Q5Q/UrOoc/jzpeHxs6nfBy\r\nNlwPDjhMJMk4vBabOYP5Pjm5gnQ45umZOPSh1TggRcI5v6C8OYAa2TgOCsY3ZA/2OGaEwjkpwUs5\r\n62a2OGRqjDkxfJQ5Rm3qOBZWPjhotLc5ko6COVNqhDlE+eE5EvshOTynjzjxlsk4+FBdOXArQTkg\r\nbdA4fP3GOSL2GzrE64M56lUdOcwkHjmP2RU6XZNQOlU7AjobTqY5lmkBOY6CSTnBu4E5oEFxOXZn\r\nbzhgG4s53MrYOUtHtDkFfA86+4MMOrZlMDVu1iY1RE9rNXSXYzXduMI0Auj5NMlhuTSYDIw1f8g8\r\nNSlGEjWoxCI1dns9NcJ80TS31Ro16tCJNXGrNTXl/zA1X7c7NTCLHTWwfac0awGsNBcQTDUh9q00\r\nN3J4NdV/vTT7jDs1Br1/NYAYcjXlL+Q0uvhZNXIFIzVfjhs4vvv9OTz/EDpk8d453s8nOkz/Njk2\r\nCBo5YIKfObUFyTl7S5858CNLODGcGTpF5Ck6Ra/0OTDvCDo3qwM6lfIEOlEuyjl2mYU5QFZKOODr\r\nszij5UA5ZjbjOXOx4jmRcQs5Z1lAOeLjhjlN7+E5cIcsOUDapTmMV505cqhnOAMBhDhULjQ1vbop\r\nNVR0yjX6LCc11nVRNZMAITVQvDI1NiMSNQxk3DQvedE0IxEDNeXMNzUSkiI1x6wfNcqh4TQAOWM1\r\nBm0bNaDgFjUgJoc1b8CSNIYyDjWri6o0wPgKNTr6FTVyMpw0oQ2HNQkIGzUirgQ1hVFKNZDeADVZ\r\nW/A0hCBGNeN89jTyW880WIrlNE5rzzQQDAg1kkMWNXgTZTQGDtg0D5wXNRJ7BzU5dAU1RK3gNPQa\r\nyjTm3YM1whZdNUlzGDXxsnk0k3QHNQYX/TSG/tg0tUsINRNNIDV7XrM0iUKtNDFatDSc9cM0cgfL\r\nNEcWgDTqZ7o0+1g8NXP3tDTy/6Q0wGAdNcgvgDV/E9g02Jv5NHG6QjVxEv00hQQCNaytqzTg/g01\r\nYStZNaYnGjViRSs1/i3bNEEJCDUQZ8M0E9q1NKwUDjUjiBA1xAqUNJoe4DSHgA417ywlNY4o4TRX\r\n4DM0vmQSNfRT/jTcY/c0WfCgNeXeczTK7Z00zY8UNQyVITWdMxI1T/3aNJCUWjU69yk1UhYFNZ0C\r\nDDUaWtE05l07NcpsVDSg67806kMLNRHlKjVaxfI0QJcINQ6ZFDWbMPQ0JZYZNUJG9DTej7g0gt0z\r\nNR0dtTS+GCw1Dq+QNMkzajVbj7w0b+l/NAgL2zRvLY009K61NCNZ0TRKSeo0AEAcNQ==",
                            "noiseTrainingType" : "default"
                          }
                        }
                    ],
                    "start" : 9347,
                    "duration" : 1132,
                    "mediaStart" : 1210,
                    "mediaDuration" : 1132,
                    "scalar" : 1,
                    "metadata" : {
                      "WinSubProjectDisplayName" : "",
                      "clipSpeedAttribute" : false
                    },
                    "animationTracks" : {

                    }
                  },
                  {
                    "id" : 59,
                    "_type" : "AMFile",
                    "src" : 9,
                    "trackNumber" : 1,
                    "attributes" : {
                      "ident" : "Aufn. 07-05-19_021",
                      "sampleRate" : 44100,
                      "bitDepth" : 16,
                      "gain" : 1.0,
                      "mixToMono" : true
                    },
                      "channelNumber" : "0,1",
                    "effects" : [
                        {
                          "effectName" : "NoiseReduction",
                          "category" : "categoryAudioEffects",
                          "parameters" : {
                            "denoiserAmount" : 20.0,
                            "denoiserThreshold" : 0.0,
                            "noiseProfile" : "nsoAQN7y6z4QDDs+/eMePZ6qgDzFxtE73Wa4O8uO5DtSAfk7guTFPHSVzzubTSk8T6rsO7NaCzy+\r\ni+Y6XBe9OvrS3TqtWU07mRlzOgqjGjusDoU6mK/kOl63FDuMNPI7dxV+OvEQ8zrXqRg7/t/4Odi5\r\nfTo2UyY6PR4DOoldfzk+jKc6182IOYyI4jpaNvE5HG/DOhDBDjog8v05k1FgOTDNvjrMEhM6RC+l\r\nOWbd0zmTa4s6+OQAOtgxFzouxAk6oj2lOfRqBjqrTO84GqSROUWDrTn6GBo6HtVjOQem7DhqPoU5\r\nbT04OQLiRDkbh5I4meWKOYbBnjlyaoI5EOV9OUu96Dg0+pY4OFdEORpwqTk+Ehc5sdV0OeHJEjks\r\nbjQ5OlqnOf6DTTl1RAg5GiG2Ofid/zhYotA4h2S2OMSyxzg+pKU418vfOI2gADlt7LE47cWlOLoM\r\nATmbm3M4T9HYOI73vDjwlRY5MEIEOcdDkzjwhGA4/MC6OAiQLTn5Nqo4p2BgOeAv/Tix+xw5rmAF\r\nOUsMjTrU5fs4gVcVOaYNoDgRVMk53G0pOUbhgznp7Z84kDDUOLGdizi/q204wAZVOdjSsTjuP5k4\r\nP8eWONEMaziOswo5ThsuOClyxzdKI9M4Bk/TN85MJDien8Y4RaLCN7PTpThFMJs4gOuiONFQfDih\r\n9Ao4ATduN3gtSDgRN4Q4ZekUODt8ATiAaPY34ndoNyWBpTdgQ+03FQz/Nm2o3DeWW5o4WySFOG5e\r\nfThMbMU3XU/KN6R6BjhhwTg4J2uZN2nSwDfMhzg4DwbvN6eRwDdGBT04IJYYOPAW5Tfd5Sk4pJpO\r\nN/rivzf23ZE3pIa5N1gi1TfFrNE3zar6N1+IOTidP1Y3IbRKOG3zjTfHf5s33VeHN8uzojeQ8ms3\r\nlWW/NzboLzcHiZ03ufOaN0NSQDc1qYo3XGajNwxUdDcY2dk3vmrDN9JpjzfmNVo3VEN3N9H3STdg\r\nAns3UIBuN+aK9Dcbq8E37V9XNwsBKTekmGI3yOsINyNv2TaoHeU31HTZNjrgIzds1IY3DswIN9Sf\r\nPTe635A3D3aWNkFyIDeV/IU3S3YyNyVzJzdZUxk3czjWNz5PjDcGecw31jcHN76EuDaWl7A2hX5o\r\nN4I7KTc0rks3+Hw/Nw5v2DYMI0435H8DN9VSEzfeTyI3Xzh3Ny/IHTfDiZg2DFOrNxiuETefAaM3\r\nvRp3NxYJVjcBpDA3Wqq4N6IuQjeG0NA20t18N1GYmjeU3Rk3gozPNrQz6TYMqBg3wMP+Nqb80DbN\r\nhDM335w7NxAuzTaGzi03xhRDN5qCrjfMoOU26K01NxqbLDZvZk838O+sN+wK5jZ87EE3dzExNna8\r\nPjaAbeY2Ma+rNrtC6zZ/ZDk33a+sNu67zTYfaI427hyoNpdB0DbGce02PgT5NjXg1TaGG/w2pLN7\r\nNpqzpjaur8c24YOVN7DUzzbDMqA23ozXNgH1mjZxWec2yFBWN64v1DYNOqA2456KNssAlTb3wfI2\r\nWiqUNqrGvTbLJZ022EVmNtfVvzYy1Hg2Pqy1NprVejZtdTU2OgOdNnTKHTdJu6U2eZiZNrH7DTet\r\nD7I2AtWnNmCP4DaND6k2N/YaNqjrBzfdCMc2BTGKNsTlzDYQHNU2hRWRNnQFvjZ83uI2EyU4N0s/\r\nhjb8++c2BQXDNqYDpTae2302iISxNrl+wjbA0cw2XLHCNtSvFTdWtc82+IIhNyCYBze0xOg2z6p7\r\nNtzi1jZa7vs2APSANmpS/TbFwyU2TZNNNkhZpDapGL82vF7PNRrKlDYXmdk245BTNv+0jDYqD4o2\r\nYEhKNqjMHDYtsq42ou2kNg+0xTbXGlM2HiR4NnTyLjbD25c2IBiLNmyoCTaU+JU2ZwuZNo31zzZ0\r\nkHw2Z6GMNhIuqjYmynU2p649NmhZxjY6ioo2IfeLNnoEODbuBug1ib5HNkd5bTaam6E2xX0ENnyN\r\nlzb+K0Y2s7SENquhZTaAh7k2crZ4Nn2gKzY1Jik2q0aENm1FRzZz3YA2wl9yNuzigTaJGUM2/XwR\r\nNrQ4hTZeMc825Ft8NlKmHTa3iXk2OZpoNteBYjYhv1s23dmANrGHQDb5uYo20UFLNiMaMjaSCAM2\r\n3nenNk9EOzZWDkM2fc5PNl+eBDcyazY2jgu3Ng+IrjYP8UU2W2tNNiGpbjaWWeU2OshWNgrRPzam\r\nO4Q2HD+pNq0Lgja2Kew2KgkyNgt+5TbUlnE2+QAlNoZzWja201o2fba2NuJrrDbyepE2f8p6NkOg\r\nxDbED1w2fC67NUglBDYqyUY20p6sNheDnTY24XI2OLduNjd2EDdCkTE2GPmDNmj0hTa0bZ02FgQD\r\nNgJ+vzYWfVE2rJzQNiioOzY/5GM2NylcNhljQjYFtxo26ay3Nl4CBjbrzQE2Akk/NgxkSzYMGUw2\r\nqUYPNqrxvjaiTKo2KrogNjmhczaKpSQ2WxRVNtYMNDb0meM1+yPaNbalNjZdwjM2zQEpNtggSTbc\r\nWcc1egAxNmMUhzbsy5g2YpouNrLrYTaRURU2InIzNpdKJTZWdS02n76xNToQojWuFjY1UudNNSRM\r\ndjXq+ok1LC5RNUnjhzVBRSs1kceWNVlP7zXkIpU1IkJDNUo+sjXKtgY2TrtFNZ9ykDWp/cQ1xkgQ\r\nNiggbjW5q8U1iEmyNep5gTVqBqw1+3KdNQieWjUpfsA16g0ONVF7gDUZX601cXxGNce9VTUAgMI1\r\nRq1SNZ8HtTVuP6k1njPCNRW4tzV86oE1g/F7Nc3pSDW4x1w168iUNSSXjjU0UTA1qpGGNYi5hTVQ\r\nJoA1LF81Ndid/zSWDWs1Al9HNQ1xUDWpQ001GxKpNdqztzUaQws1phijNQyKGzVzmYw1BsqjNaNG\r\nhTVtDKs1CQquNZTzbzW0NmE1ERidNSwYKjWiT9w116oSNXrOxDVqhcE1gEWqNfoXaDVVBpc1e/M9\r\nNaXGUzVwXH41uFfBNWqKvDVEfVI1s952NbhhjDUch1c1WLibNbJOSDWxu1Q1MQ6DNawBJzWGTUA1\r\nDOo1NZRWGjUyPfg1pCW2Nb7JKTV2yIM1Dc4MNtKelzUeocU1dEzRNgJmAjfO2Xk2w3ADNkv4fzXK\r\n4AI2ItvtNXKLyDXe9AQ2GT/kNWGtUjX4r4k1uHaDNW9qdTWA6E02pvLZNTo+ujUOkrw1QcOONehu\r\n5TWmJuE1+N7tNeLRvzW9k4M2s2e4NgfohDY0UJo1PCoSNvrMCTZ2jO41Vc+GNdaiNjbJRrQ2XJW/\r\nNrBSMjZg6T41woRdNQMsCzXpZK81EqeeNfYbRDXY3aM159FaNRvphTXz+U01rDmkNWG5ZDVzobc1\r\nPgKlNeVLWDWOQXU1QG94NdUMWzVaNYs1nGoiNYdjKzYIjKs1u61ENfTZqjUSQds11CbANTCylzV6\r\n8oE1kBZbNVTpFzVcuoY1SBEiNfC4mjVY9Iw11LtsNZeOZTZGl0c2vIdMNrSOsTYnupE1ACc8NSuZ\r\ntzW1p1Q1ekiTNR7bBzUnpYk1ZJTwNNzkIzUhkBw2qVvaNVvI8TVrlKU1I/ZuNbQ/ljU4oqM1FY2N\r\nNsMTczW/0ak1MnJvNb2fuzUInBM1Y2udNaqwVDXaIjA1dQZKNQ6LIjVyEYU1XDwCNezbZjVm2Zc1\r\nslQnNesWQDW52YQ1Jx4PNRKpvDUWw4A1zFobNZ8fnTXUFe00WMULNSbPmTVY9js1DKvkNFhshjUe\r\nNkk1dxRhNZdKMTUXRoM1VDG9NQkEXDXGAls1T2pANYgGiTWsBVY1K1BrNXOWNjUwTzo1bDpzNQZx\r\nbzWgjzk1lRJJNbh+dzXwTV81o9wdNZYWVzUgeTY1hnZaNdRSgDVedJ01i7CXNXSsXjXnQoQ1Kdc9\r\nNRvtdjXhtOY0DqIrNUDDEzX5tiM1ByuSNdi3WTX88oI1mmUtNT6PPzXLOZE2GgZ6NihZNjbVBf41\r\n+x1oNZIFtzVUhOU1ABCCNWsCEjb8v1Y2zfSyNJ4y4TX5IQE3rBhMN89tMDYiVjg2vHqPNfggyjVp\r\nJB820BkoNeKHZTZ0W282G5MeNhkvrzXOSO02EA2wNq67TTbySZk1pBDQNYTbVTXydpM2EOB6N5NV\r\n5jisVME4a/0fOEigJThBQXY433ISOFkUCzeDMo02W3JAN2UIijcO/JA4uMHxOB6z7jiwpps31LkW\r\nNljqlzenFHo3WHSoNhk2jjcgg203YLK6N/dtVTicTkg4/WthOIxM5jjnSZw4bfEOOHIjvDdmpPc4\r\nB1G6OB9KqTijEkQ4biwiNe+8RzWuGXE1lMIaNcCiLjV29As1oCFgNfqZjDWywBc1/tglNapCBzWg\r\n8GA1XzxHNUauMTXEkZo1X59MNWNpdjWmI001UVwxNSSQIDUvqhs1i82KNRZ8JjXhGdk0s/FcNfhi\r\nfDV2UYM1WxahNS6ZjjWwjXs13lsCNWwSZDUAXiQ15FF6NRmf8jTnoHc1DNNTNVdb0zVbpao1OWMD\r\nNROXNjV9MYE1rNSENcyuPDWXElE19sOkNZUaojWiFoc1jC9TNTJSojWnLQU1zs5cNaJwUjXrzi01\r\nEwl0NdhdsTRxFx01oC+DNUtuSjXQ8vM0MrUgNZtPaDWh9oI1AgTpNANxHzVdpAg1KQuJNVKEwjUu\r\nqDw1juUpNfLZQTWCdJ811dgaNVwUkzWmYfA0wQp0NapceTXDWBg1KtZeNUtQQDX8mWQ1ytclNXPo\r\nyjT5Vk41TParNe7lOjXLnpE1O9CPNdplczWSuYA1SgAdNXA8IDXIfuc0icgSNes1JTW47mk1eUs/\r\nNWxCGDWR5PQ0HP8ZNYa1gjULpCI1Jo14NfQxLDUY16E0DdsGNSA4rzV+1Sw1AbsYNa49cDWNWls1\r\nE4zHNGBNCDUM+pU1zdHrNEFFJzUq35c1henyNN2ZejWVMTA11N2ONWlbhTV84Q81FDF0NR0d1TQw\r\np481ggwJNaEWXDV4T8A09/ioNXDrXTX0qyo1CH8UNZMrKzUnDRk1tLg9NWPWXjWO0F41DUxCNdi2\r\nizUwPbA1YWUJNX9bMzWyEg812CP6NJLrazX2pC016dAyNX6l5zRcqA01xUqdNaceBjUQ2Tw1RKnv\r\nNP0sLDVqyjA1eVKLNSRR/zS8bHs1UTZANedBSDWSaRk1hr9mNebrTzUJMIU1SFQ0NVBAnjXMvE41\r\nnGEGNeRQRTWBqlY1egGENSLjIDU48/g0E13SNIJ0NTXAKgs1WxVuNWAGFDU4fQc1eLWwNAQ7nDW0\r\nXNA0CzpUNe8gFzU3jZY1X8c5NZIbgjU3rNw0jnIKNeqoJjV60/807iJWNcduUDUivmM1CvEONaYS\r\nbzUbmaw1q3drNRLiiTWHJEQ1ssuVNEgZCDUU0sg0uIxoNRveLzWwBFA1v/HDNNdILjUkJhI1RAR5\r\nNTKLyjTK1xU1mE1FNcqALzVBLBs1HtQzNdFPNTWjvGs1QJEDNW2sPDVqBxo2zkBxNQAAojQABHw8\r\nKzPLOvCUIjv756o6IViMOofjlzqNL7k6n7KXOgBN+DlgWgo68qkkOu5RwzqkFFg6JfCHOogZVjqa\r\nDAU7wOUkO5ZShjoNxhw7YQ5iOtu+dzrXTpk6pnIUOo8UWTq1o386G6F3OiIWoDqsdZY65yAqOij0\r\nIDobAsw6/6H6Ov4pnDo7YYQ6452WOv+RyzpdCaQ60ivKOhqRxjr5y506AsSTOmjsJTvm1o86VruT\r\nOoJFgzphiXQ6UomGOpJCQzq0blw6wWvVOkrBXzqUzM06PPylOiNX0DrQBFA6RGCvOuckljoh3IM6\r\nE/aNOiMGmjrTBpA6qCJPOneDkjogrZU6vJcaOoqH9zr9aIk6HBu+OkrwVjrgcLg6PRKROqIg8Tqb\r\nwow6bhXjOXwZ9zm7oFE6nLyIOo/Z9To655U6qkhuOnswgTriK6w6tKUvOxMowDp7uhs7kHOEOkKc\r\nvzo4mH46zidXOmzBRDo0eaI63n0qO97Wajo3GS46/E+COi7wqDrL4kU6bCaROkmzjToU5IA6VC42\r\nOls/rjp6B406tTRDOgzNQDpM/os6/1uuOlpTNzqmWZo6sAR5Ot0hnTpeubw6OSeUOn2b3jrSfwI6\r\niD/cOiBvxToU1Ck6O5WcOrShSzozFeg5rjZwOmwagDpqxU461ixgOp5FsTqCJpM6Gn4gOvJjLjpw\r\nN5U6lgHXOjJTojo2Zp86WNVyOu4nOzrevyQ64lLTOtOHYjpvIHk6+ZWWOhe3yzrx10068K1IOmzl\r\njDq8pWU6WLV+OhjMjDrGqZU6aWsTOpkrizoqGx0656NkOjrBTTrjGZ86gJ+TOr9kUjqnfnU6dj6R\r\nOpyb0zoeCY86HhIVOjhWsjrMWv05cgsUOiDrSTsVKWc6JmcIOh5wDzq+eUY6JlA7OpAWpDq37qw6\r\nxxYCO5qVhDqx4qo6RSOHOhhHHzpKnKo6St/DOsq31jp0RTs64hxxOmCkhTptJyE67CWhOhz3cjpP\r\n6qc6OF2rOtNygTrqHqU6DLD0OtDSbjqBF4M6hrY+On984DrKAlw61JjsOnR2ujriJSc6lcCsOqYE\r\nvTrwjH06nQyMOpF4gzrW5x06VdZQOsj2tTrd0ic6wzQtOgoVgjpOAa06m1Z1OuIjwTp0l9c6NlCy\r\nOs/yODqPbfU6OKkZOvpyMDomwYo6zMKcOhp9GTpbi2E6iiSFOrBmljpcP7Q6ifS/Oj1cijo2e0k6\r\nbSyuOtLWjTqwXpg6jAHVOq4wxzqCFFQ6cL6QOruIqTrJsWE6PyJ/OrNmqDquHk86MIOJOvqpcTrO\r\nhK06+b+rOt52lTo6QZA6RNdSOrpYbzq2mVE6PmQAO/mHoDrzPW46oWJgOta7rDr+Xs464jVUOvPx\r\nGzpqzr86POOjOrRKZjoB6IE68ChBOh2ynzpc2Ik69EnGOtM8QDqgUao6pPJUOnhniDpAuYQ6llJp\r\nOtD2OjoYWws6ocsEOwnzXToqbb06X4f2Oc8ycTpv9aA5/jGHOq1bVTqUD806pLZ5OqkGuTrLMZI6\r\nqC4rOp9LjjorgI46Mk6EOgUrojpIZag6HBaFOmpxaTrOvXU6TZlvOqgOQjookKY6QMSLOpOSazry\r\n49060OKROrLUTTr+ybc64D+3OoL6jTqQF3I6Ps0hO1IUVDpPYwc6nlJNOsaQMzqz+9w66ZXjOmOD\r\ntzq8f9U6QIg9OjXaaDon3SI6gUSLOtOIjTpMdUQ65IOyOnQf5zpXlYM6WPrSOmivNDptSAQ6G52H\r\nOiloLjqRZrs6dqOfOoJlDTuYwhA6LKBAOvrhwjqr6O8625jROhSyqTpAF0A6mAJDOqC9wjroy0I6\r\nschKOsC2LzpffcA6ra5jOrNygzoV8kk6t7OjOlsmqTom36E60FHXOtytqDpQC046PgieOmslZjqI\r\nY6E6oTVaOkbqazoS5u06GuUfOhqJcTreADw6eklaOj3KFTubiFE7sOhOOrj0pjpfvhA7HF8VOzCf\r\nPDrCiQk7H2ypOtOL/jrGoYg6ERVoOkp7gDoKLJ05ZJnuOhr5vzqd7io6/UKXOq9RaDrF9zw65rpf\r\nOgbsLTqHxUs6/dBZOkwrcTrbLYc6VAaWOqj9UTpwPlU6jVrUOl4cPDpQpr869onjOvFHgTpmBWE6\r\nwgBhOj5YZTpkoGU6KfSQOtQJyjqH4Kk68HyhOjr21jlEgCc6L29HOoQwgzrT1pE6xLuIOoShkjpU\r\nw7w6i9WeOnL6DDomQw06WRmHOiytIDqWpkk6cH/GOk47pDrtS+E6+kqWOmrlTjqVNLU6jZgmOnrN\r\njDp8IIw6tgxfOotfojrfcgc7p9fmOh03QjrOUFs6P/b5OpPeoDoq0ko6PN6wOtYEYjp/2p06b5aS\r\nOjL+Vzp4Le06bx7iORwmgjqz1Bc6A4DgOlz0PTo0tDI6sxaBOl/NWDo8kYg6BUCbOgQraTo+dh07\r\nWHZ6Ojc9Ejr6ArQ6Jts4OvTFJDrITTU6uuEZOg5Pozqp5F86YjTYOrg/Djp9RK46iAExOvy3uDo9\r\nsDg6e9DAOqUQojrSQVE645eMOpqSVjrKupc6mw6gOrgNQjr85Tg6IlSKOnSRNjquReI5RJJFOrbZ\r\nCjrxfIA6b1qgOhhhTDocgfU6MM/cOinhFDrSJGU6pPZ1OpYVXDrdL6U6FoQUOlro5TpR4sI6ensm\r\nOi52hzo908Y6ld1sOs/UmjpYSPA6IGNFOsIFODq3D2A66Mv5Om1mVDqdK8A6x3SJOtDhdjrDsq86\r\nHdCPOicVTDr7FDI6OB49OvCdGjqxHXE6AkNKOryvpzrmYDI6FVqQOoCsbToW6Hw69IahOoWLgzrd\r\nQgA63AnIOoQCijrHIj86wvzYOtwaCDvGCrc6igdsOnJerToUE+c6Nns/OoDJDTp4TzQ68WgEOoo1\r\nUzqX2WI6WupDOr/OkjqZXow6lkAAOs1Dxzrk64s6kiq5OlqSvznM9OM6MIdpOuGLoDrX2LE6rZ2L\r\nOlO/7DkhE2c6LFo1Otl/fDpHLCQ75/zEOsy8oToVKS066dG7OmRdDTpKNo46AM6ZOmorRDoOsmE6\r\niXBoOixEazq1NDo647d8OhxDjzpzIoY6uusNO0kulzoSS1Y62j4VOiCHjTpadLw6m9akOsP9Pjpd\r\nprE6m47AOgkLsTqgZio60ymtOuvxyDnQtZk6YTB/OlBRkTpkb4E6sc03Op3iYjp/Xro65NkdOuHS\r\nEzrYS1g6jKduOpXeWzr6JEo65PuvOvLPgTons646aXUHOw4CkToOaI86Ft6FOoCcUDpr2Eo6/f+6\r\nOoSDkTqcgHM6P56rOqWQjTroUV46YCNqOgSLoTq+6Qk6sp+hOu/KrDoS4NI6LJhTOmWyRzqRMcE6\r\nuFZ2OoytPDqBrbU6+IkSO7YRDjrhUg06GVoKOn9TxTpiDVU6fGo3OpcvmDrBwrc6kKo8OmLgHToc\r\nahc7eSdUOjaMqjqj0IU6fJ9tOmxNuzqfaAg7OZE0OojWTDq5M3w6zBopOp25VDoKC6c6UjJbOieQ\r\nJTqo1jU6Zj+VOg4MgDpyZJA6XJGHOt3lgzqPiUE61pgUOpj9QzqNYX46b5JROhZJJzq4H7I6Sf13\r\nOg4TcDozL4I6Wlx6OtzpSzoQFG46QpK8OnmBNDp0rtE6ME8pOp0IHzpWzyI6IuJSOtBtnToJnoI6\r\nvnQ6OsB6+TklB4U6AsWnOm7BJTot/pk6oBEJOnOKoToBCDk6tHUAOgB0yTrf1Gg67zC0OpP77Tqj\r\nwoQ6TUOCOv6GFDqvRRE6nP41Ov/qKzpfooA4TlU6N7PT6TY8XMo2Q/Z/Nok5kjbEW0M2Q8ZLNmGB\r\nMjbNYyo28mssNkfH5DXqlUI2XxAANq2pJzYHMpc1eD4nNlo67zWQfcA1bJOXNfnYRDaCjLM1QIzZ\r\nNQvGmTW2gjU2AfmkNY9DcjVciHY1dKuJNcDN+jXvaIM1zE8LOKYHLDgbHhk4eH4/OApbijmxahI6\r\nFacHOhqWATn6/GM4IIKHOA72rjjk7TA47PLbNzXEijjjoj85NMO0Od4yDTlvu0c4tJGFOE62uTkt\r\nyFw5t8EAOqgqTzpDmok4boMUOSLFYTloL0k5f0blOK3EujkMaus52UR7Oa0GwjbD/KQ4ZJXiOJ6R\r\nxDi312U53Kt0OV+9WTkPaBg5K2UBN+MX6Dcwxws5wMYJORuUzjnfgqU51N0dOdN4hjnim9w5b5v6\r\nOWElHDninjY6ZUanOmQlhjmIGhQ3MoIGOcCABDmIO/04JA74OGLgpTlQkB83LX6EOEYihDluDtc5\r\nggTtOQJKWzkeOV83OcSrNV3XBTYd5nY1ExysNUbPHTVcwic19u5RNZrxGjVJWd40ihZHNWDIHjWb\r\nWi81dJgENdwhojSuVQw1ihP5NIZHCDXO9Zk1/4AtNV070TS0+r80eraBNTYmZDXEdTY1w33wNGTz\r\ntzSzk8s1Mz9GNa88WDVlzEw1DDkDNSZVZTVeCXk1mp8CNdjnKTVqFSs1h6T4NA8cQjU25Oc0UKfZ\r\nNLofJjXmfxo1N2s6NcHIBDXNKRE1csAtNdP3XjWwJc00qr50NSk2YjUkGLQ0X08jNaaoLTX/Ew01\r\nmoxKNcmFQzUc0600EbdlNRT9nTVN1141jF1uNQTYbDVfS1A1q/vyNB7KEjWAkYs0YqMSNfnh6zTu\r\nhE81q3ciNcIYGzXAnsI00F2eNZz4ZDW7ie40qf/LNFIFJzXuaSY18orBNHEYpDSovTc1WCMiNV+R\r\nvTR3VKg0D20TNS4p4jTkEPo0O5tCNcq1OTWstS41WboPNQqbNjVMRiw1QB/iNCQrDDUU1ww1oozl\r\nNLiREjW66ck0HwfENITYQjW23tM0cN2LNMzogDS2BQE1BBYFNWEusDV8Uzs1JHEyNW9JITXNf9I0\r\n6Cj2NCmczzTzQhM1AIXeNFGmBTXy8AY1ZVzoNMHzZTUSNa80ULcQNaiwFjUzGN40W0wgNSv8yzTY\r\nI9Y0yBOZNPEoADUCT0w1kAZlNUeeIzVFsyY1JcclNSZkcTXsNyI19V5HNUM59jTo3hU1NgL1NKwk\r\nujT2yQk1C5sKNVug6DTIISs1gl0PNScX0DRlPgM1vPTzNNpLJzWCcSY1W1fSNPm1FzWjWfE099QH\r\nNb6ttTTupzU13AE9NRD3XDVV2sU0d/QNNXaJCzX+UeY01EwENZY8hTUSSgs1or8ENQcG/TShh/A0\r\n+htMNTZr9jRq6zU1i2X3NPvMNTVcosk0PEHSNEPMLDW7xA41A4mpNKGWuDTGlOo0i8gyNXU0qzTZ\r\nr4Y1iUuyNFXtOjUctfw0NUEFNbBOATWpEQE1PhLqNPrTNDWSst80bGGvNIYjZTTrbec08Q0FNfiy\r\nJjW0+gc1tCeQNK8m0TSdASw1/RARNaNpyjQk8xM1OlL9NNFU1jRQlQ41hJG9NPgoLjXkifo02ReC\r\nNXwsTDXFFOk0kbPHNHHUADW031018ZcINVS62DQOV+40QgovNW0SdjXAYT01AAAQNQ==",
                            "noiseTrainingType" : "default"
                          }
                        }
                    ],
                    "start" : 10479,
                    "duration" : 1624,
                    "mediaStart" : 43,
                    "mediaDuration" : 1624,
                    "scalar" : 1,
                    "metadata" : {
                      "WinSubProjectDisplayName" : "",
                      "clipSpeedAttribute" : false
                    },
                    "animationTracks" : {

                    }
                  },
                  {
                    "id" : 60,
                    "_type" : "AMFile",
                    "src" : 10,
                    "trackNumber" : 1,
                    "attributes" : {
                      "ident" : "Aufn. 07-05-19_023",
                      "sampleRate" : 44100,
                      "bitDepth" : 16,
                      "gain" : 1.0,
                      "mixToMono" : true
                    },
                      "channelNumber" : "0,1",
                    "effects" : [
                        {
                          "effectName" : "NoiseReduction",
                          "category" : "categoryAudioEffects",
                          "parameters" : {
                            "denoiserAmount" : 20.0,
                            "denoiserThreshold" : 0.0,
                            "noiseProfile" : "gKynP+kPVz5GGkI/5xjuPNdjSDzHtHA8dBtKPCLwrTuyvgI89bRIPB2VkzsgIf87qWGwO4bd7Dts\r\nCeg6gA41OwwLCTvijNc6oLnmOtp3JDvEgVs6IHdrOtmDYTqopEs6g56JOl6IsDrY31c6OkpiOlor\r\njjqQwOo5hTLTOUT5CjtPEW86hNtqOvg4HToZDGc6NQYBOoJcFzr2VX05VupAOumSLTnrUYI5EBkB\r\nOiihhzmy0gc6olnDOYuxTTo4pg46oCk7Oq7pUDlKV4Y5XNabOdQn0Dl0Is055f6uOaG1WTmkiJE5\r\nvL72OTB3CDtib2g6rRydOjp/sDvkGzY7DksRO65iBjvB4pA6zK0UO4HD4TsqQAA8GNvTO+R0bzuv\r\nKjQ7BjtVO0B0czsLNao7Zw1fOyM3ADttBcg6b+vSOkLDtTqSflM72u2iO+rTeDuSENM6NC9ZO14j\r\nGjtKhY86DTdqOlxZNjqR0oA6Am11OUZknDnJoYk65zYNO1w/7jntyps6JD+IOlVYGTrsfmw5Z0I0\r\nOXU4VzpwWHE5QNkFOnd/xDkyzgQ6bulsORKmqDjMMcs4k1bQOO/SYzghxZ84Lm1tOJKzLziC+HE5\r\nfgWXOM1dfjg//Pw4CU8FOV9KNDnVawc5FkXBOdNMkTmHjIo4nZfOOGYxEDnNaXk5dhrTOBqtXzk4\r\nmYM5trMKOkhZ9Dl8yxU6KcaLOMwFBTmKyQQ5Z1QDODuyvzgzhoo4QN+EOEPhNjgscTM4elWSOIBu\r\njThtlQg4M/sQONws0Dd5gy04EIVHONon2zdCmkI3wSAcOKGyWTh+HaU31a+YOAY8GzizfBg4aDfL\r\nN8JIPjeDQjs4OBCyN4/5hDd+VBY3XI5LN7Iz6zZrR8c3xmYROLgbnjcpnxY4ToebNx6JJjiHmCY3\r\nLSJ8N7ugozeztsM3xMSvN/KbJjf0rWY37CdHN+YwPTe2jZU3Dat1N6SSyjeeNa43vFw2N+kbkzco\r\nIY834y3SN5pqJji/hm83NuJWNzacfzeYEII3oZlNN2AwcTcc+lQ3hq0HN0Aujze+0Yk3yPhTN/lZ\r\nljcTGIM3GA8FOMMuzzd0RKg3KyUDOKQxKjhiabQ4h5afN4KV0DczzHA4YOzGOAg2Gjhe82g3LhhV\r\nNxacsTegivY3qJtZN2iUXjdKzp43QAYtN72OFjeZV3c3rxniNrrkyzaKSzM316RsN0DTkzeU8ko3\r\nTtd5N5CJUTe0ZgA3rHxXN6x5vTfMN+I2yBToNoqIRjdKFcA2m5doN3Q1YjcMwCs3mZ4wN309HDeK\r\nYxs3hZL2NsZdGTeH1h43R6H/NvJTgjdJVz83HE8xN6IFQDfNcy033DBPN9A06zbOAdM2TVxiNoqu\r\nYjfVKrE2f4oNNxxdZDZWyBU3R7qMNvoFNjfGWgU3JbiVNlf0NDe71wY3OsEGN9gwyDYZKCk3VFax\r\nNgcBQzesGD83MnDNNk436TbElMs35o0rNzSyWDc/+ns37gzrN7ep8DZYNNk23rEdN6UVdDf6tjE3\r\noEPwNv8/Cjcb+Xw26jtSNukHGjcoI182ruPMNp6+5TYXiQU3JmWwNh2TgzZ9jB83XKp3NgrThjbU\r\nSWI2nySYNj1QmTaOGIw2/0Q/NhJ5GDeDvgY3qKb9NsY+kzbuM203LmiUNn9SvTa0DUA3L+t+N2y5\r\nOzegAz43Zp40ONp1SziAx4I40w+wNxlQMjjlqJ44SOh8OC0kLjiNilE46DiiNzx4cTfAjgA4cklI\r\nN5EWlDf3dQA4+RuJN+4jzTf67Z43oABDNwqmNjca5B43NI4aN/4lmja/v5c2JNUZN9vxujYuyjo3\r\nEkDfNn38ijYHsbo2joOsNuvm6DbOUvQ1zhmKNpspTjb7LpY2EbSeNl19KzZFUq82e3iZNrjbmza/\r\nreA2xsiSNsIySza1Dks2aUqNNp9IgjaWQlQ27E5CNsbbITZ8A8E2osG0NoULQzbc0dM2BgKQNr+i\r\nzjbr1sI2FfyYNp8JODZYHoU2Mks2Nk4j7jV4SVA2vQcvNiRNeDbJj7c2JNbPNj4FHTZ6ZHM21SLP\r\nNsdbZDYUZZg2QsR/NvDAGDcXQBg2Bq81NnTloTbRAiQ2jSYeNuU13zasdn82RCM0NkyAdDbzBEQ2\r\n+SBkNvrKoTaCcTA2rFmKNuIwLjamv+I2kUNpNlJKLzbAh/Y1hJcLNqAQVDZiKhY2C+xANoHX9Ta6\r\nZvk1jL4FNqALIDbKLxs2EMmGNg3YjDbXuwg2suJYNiZYaDYD0Yo2PNAYNpe38jbW7dA2ss7FNtwG\r\n6TWm2BQ2npLoNQy9djZRW9s1xy2nNjsAzjaznpI2z0QfNmoocDbCmDg272URNtZ/FjZ64jE25CNg\r\nNrWI3DVWrxM2ChaRNvtQiTb9FQk2V5/tNTPIyjXPkQw2yd9BNsAG5zVuT/o1Gs1HNlvRCDZqKuo1\r\nohByNpI4OTbFWqc2bVNwNk3gyjYe0pI2gdeYNoy0OTYf+E82KIWqNjZgbjbLO1I2FseRNpCSdzZv\r\nXj02qmgdNptYDjbIy/41N85DNgdNBDfg+1c2ASE6NiagJTY2bss1s+jGNXzbyjUYIQ41Az+UNSwA\r\ndDUjGoQ1MLz2NZQoLTXnqQU1YAIqNcdmgjV7XkQ1v1hkNRKp0TVPPpc1T/sgNaj6NDXptIs1mK19\r\nNU6ySzUpYZk1ofQ6NaTtRTVt4Vg1oXaaNSrRqjUEMLM1ePD8NWm7QDUmdmA1ZXaANXq8HDUAAPo1\r\nwMbsNaq5YDXxLiE24ZD3NqQJIzZA2UI26jqjNZR3CzasRTU2MD5wNWzLyDVIHrw1zlP1NUJ9xzUX\r\njQI2mgXeNdv5QjX0zp41ssFnNQAJoDVuA4g1Ji+GNcmIsjVUuu01RIKcNS7PsDUsuIk1fLLsNdky\r\nKzatK3E20QaZNWB+mzVJuXQ1x1i9NblnczXqKpY1Bz6fNZaWKDVRslc1gJ5lNXsETjVs1S81ojaW\r\nNYed8zRcRMg1sfhONU572zXreoc1ZMaKNWcXojUDq1g1me5UNdXAozXUkY01cmwcNTQ5FjVCoZQ1\r\ndlZQNdfuYTX8o041Bg9iNUQytTU9RnM1e5PINZzfKDbS31M2du4HNvKBrDVCIqI1Wkl9NuZtiDZT\r\nZKU1dYM8Ng8Zaja1OHQ2BiCgNYzrZTZYKus2xHqiNjbdVTYQ8/E2gsbqNgT1DTaiBKc1ALfQNR1g\r\nLzYGeWI2Xa2RNq20CDa0ATc2nnJ2NtVD9DYlSbk2nt7qNixfPzaAwlQ1oyoyNogysTWSf7I1gFGo\r\nNWEOoTUASOg1VC/RNTYUazXROgs2gCNXNTk0ZTXLBxc2hdoTNvp4rjZUHMM12rXrNbvjHzVJ1lo1\r\nlPRpNV5wRzb+Fmw109aPNdsqvjX83h42UJm+NQOjSDWXepI1BdrsNbjEbjaeIqA24t/3NsAOMTXq\r\n4WA2lrXFNrsK/Daweiw1DKT3Ncfl0DWov2M1u/1ANjfWhDUUs1Y2KNxBNuacozUbqTg2TlkyNc7B\r\n1DXD5n81UMaGNr4cMjeFv4M1zolONnGv9DXKCzk2Qm9JNSRggzWrubI2L8WfN/yllzfMR982ed+A\r\nNVMnRDZQSoM2tMsqNjnCozUlj3o10p2gNZKzWjYMMgI2ARk2NvWLHDbgeQY2Q1dANrrkUTbboUY2\r\nNO+HNmfaAzYNkDY2NMsnNsISBTbYo/I13HTFNqCC2jZ2g681csOLNVhR7jV76zA2mseuNryVHTdO\r\noO42+A0tN6iagDZ6a7A1uMU9NrdIxjb4wBw2xj60NmrsTzdFxc82lCQMNjVkCDUBzE82ik9nNmbC\r\nizZc4hc1sHjDNgO1KDfsTOo2BvMzNm45bDXuT7Y1M0AJNkdQFjdIC8A3TTSaN7WyXjYaoaU1JBmA\r\nNVX0izbZmjs3ob7eNgzPUTYWEx41vCQ7NTCujzWW7aY1wkp3NlTsNDVc8go1QU5UNYnbpzXJ3SQ1\r\nG3u4NgDaHTcu+T82CwCVNmhY1zTRJY02aX4kNgrmUDaYdNY2Gr6INnrjtzYen9g28qwcNQcHnTWS\r\n0mQ2txYNNokHezXMnCA2cMZBNt/QgTXWyow2I5UcNrvInDXRb9k2DB0zN3QRwTZV+Fk13Fo1NQc2\r\nojbKHQc3bIBWNoZRnzYc7FI3wvNvNuo3yTbX0B838vUzN12EKjck61w36HWjN83bADhEoUA3j3us\r\nNSXilDYoqsc2qOHHNcFP9zbaKH42B+DwNoDifTeVaig3jTENNm8sZzUW/1s2Jxa6NkLjkzU0t/Q1\r\nRDHrNaxP9zYjPuE2WFtTNVuMyzVmOi81JpuvNPDRxDQka/o05vygNC2HWjWEKLY1X/KHNbVsETXs\r\nvSc1h5sTNXIaezWefT81YELLNJn4GzVsA4w17FYkNXbRHjW8Kj01N2cINcA/cDVoWA41wFoDNSfA\r\npjW06QY1ocdlNWzrCzXjQnU1SofDNK51nTZ6zJA2O2BHNiRpJjZyR6w2qfMBNvKC2jZ0RLc2K1hc\r\nNt+z5jY6PIU2BJsAN1H/EjdDqmU2wCl7NkEp1jX1oOQ2pDKGNl70ijW2Z8s2bE4sNvberjVWxlc1\r\nWt25NoIB6jZ5mCI2JYMPNlJOZTYTFMI2y/goNmAapzWANEo1OEYrNgVaAzfCXT03TxQGN4sx8zTs\r\nkRU2MByRNqllgTZWnz02CIwsNiz3/zWZick2BXTPNri3uDb8TO00EkIrNpac6jaVOVI3zlZPN5Og\r\nJjZ+jek1hsZINoGjAzZ4ENs1MVZeN1TsZTfEjaM2Jg6gNeW3PjabL+w1AUzQNacRQzZtbKM2WOMj\r\nNXumYTVPyTw13IMGNT6dJzUGKRg1vzrjNLwOVDUGtdk0ms3bNHXRPDW8Edk1SSAvNXMJJjWy0O80\r\nDU/kNGIzTzUY8YE1cFU9NW1pbjUSgaA12dfmNMJIFDV0oSo1EEifNDGNPTX3AC41iAE9NSRIYzXH\r\nWyQ1YqyvNDz8TjV6PkQ15VmZNd1VGzUjKUQ1lfMrNZaZdzWjegg1he8bNbV9ETWQB0o1lnhxNZu2\r\nADWO3SQ1ItAYNV+rmDRShV01uoS5NFpVSTXc4Pc01/3eNUAqFjV3dXU1NojRNNV5QTWrXvU021GC\r\nNbczPTUTBSI1/9apNJ6JDTVcUMU0+PfNNDjmHzWf+UI1Aer5NMSk2zRRRQI1duBBNbNmDDWo0OI0\r\nInBNNfSWejXXQwI1EDdnNbvRLDW8HA014nsoNRCuKTX0XeQ0PwUeNcJ8rDTAIoo0AyDCNB0LmzWd\r\nmiU17pEnNTB9+jSQ6z017oQXNaPJYDXPVfE0S7VdNXmvBDW9giQ15jqUNTZ7MDVFg/40W+5MNZHu\r\nVDXubTk1ISw0Na52rzR9XHk11rlTNZQXYDWIXjM1hg4zNeJPMTVxyls1rogWNeFwCjXsdD81tbHV\r\nNErECzViYuw05+GLNdQ6zjTaDO80+7QcNXrvNzXsugY1DnIlNVcDPDXLBh81lOMLNQAAyDVEpFs8\r\nSI9vOpFt1jqyHH86QH7cOookzDpdOP051ATGOsYjYzp/VAM7jDKFOgMhjDr7S2w6cbPpOsNAkjq+\r\nh4860vslOtS1VTpVHdQ69FbLOsHRoDooRC46B5GVOv77GjsvHoc69uPyOhRDATqWKGk6ai62OgNr\r\nWDoR8Fg6Qf7OOoZLPzoy7tA6NcNZOgFJ5Do0hyY6Oo45OuO6vDqxd2s6LOKIOsnZKztSstk6f2Sr\r\nOvu9JTrM5bM6ql+qOsECijrNF8E6RGueOlfyNzvEPS87GZ3KOpQZATv2c/c6TE4uOi0QkTrGR9I6\r\nB4txOgq3yTryVyo6zYZMOvKegjqNWKI6+VqcOl5frzqaMic76diXOpZojDqBtJE6Pz87Ou91gzqG\r\nOWg6NK2FOpvLtjrnkT467PxHOpqh7zmt9sA6zv1hOlZSmTrWHF06Jw0+OlMqjzq99I06F2pmOqrE\r\nqjqphMk6A+eROgDNPTralWc6Sz2kOhMHgjqeHq068eOcOtB3Xzq22BQ6UkOQOmRbgTquso86Ej3D\r\nOo459zoNcsA6jor3OZLeGjoSIzw6pn7bOh7ebzqtx4k60U8kOqxiLDoWvaI663dKOvTb1DrWBH46\r\ndfInOpybrjrqwVw6/X00Oqlipzo7ZH06xZs2Oh0xcTr3AGA6DmGROu+dHjpbIyM6fqNpOvysmDr9\r\nzJ0684LROgVJHjrMKE46GuGiOkFifzoJk7A6tz8MOw4WmTqtuEc68uaJOt0JozoIvQU68dgLOpcE\r\nhjp9Qj46EOdWOiJRBDq6Dhg6xzRTOupfZToQrEk6AoemOkHVsTrVUSI6zF1OOlZRejricJc5Qbda\r\nOgPsxzr9ZIo6qQaBOldIpDq99kE6UoOgOvQhjjrUr4Q6XqNuOke3bDr2bjQ6+/soOuKiYTqtMTA6\r\nPng0Oqf1XTqTRdo6Twx1Ost8rToBeYw6d6icOgI47jrIeaI6jt7hOQ8aMjqE12c6ZJubOg1lzDpf\r\nYUs6voaaOiZQXDpxH3A65btrOjQ7bDoEqKg6gCksOtiaDzs3vq86WBqXOm2JSjp2/ck62scwOrAt\r\nLDqjcA465TQUOle64Dq2v5Q6rvaTOpeEjzoz5ic6KNq4OuxnmjqlNSo6GiYmOjpWgzpY1eY60Yde\r\nOjJarTrN+Y06TV6MOkR4YzqD4U46mlreOryGizoT1wA6QVmDOqSXlzqYJhM6+rWmOnSwsjoypzM6\r\nsCpSOv1VgDpSdEA6uvW3OjGOPTpH3ZU6D98yOu6xgTo4/Y46ODyJOhL0vjqA2QE7+tScOmZG7DkR\r\nejY7lDFsOuZUmDosC406ACV0Oqx2QjpeP4s6tdBxOip61zrdG3Y61kyHOkgAkzpK6IU6th/WOmur\r\nMzrVdUs69MD8ORsDfzqOyVQ6Nu2COvdkBDqG1HY6KJVzOnOTszoTDYc6MHNJOv6Qozr0wRA6G+hh\r\nOmVdMzrjmkQ6TBDJOqMZWjpL2686qfKQOlzMxDp7r486kT3UOrqklzpouFk6mvCGOiRhGzqoq7k6\r\ngh5KOkryjjrF9ms62lJkOsEDmjrlgHU6ifMkOng+bjpjhIA6xtOQOq6xBjvAacM6FQjNOtKUcjq5\r\nzIk6dP/XOuIPyDo29YI6Y0aOOvNGizriUT86pfZVOvD2QDowTfo6zx+GOp1sSjrLocY5BUJqOhxr\r\nfDperk86dMG8OsGRjTrGuJ465UaIOqBp6zrwD/46ddZyOggMuzpiVRc7CW/aOsgT+ToJuGA6hFiB\r\nOlXjnjpScoA6cDaWOppw0zqfwzw65X5uOtm4LDoeEW86xiMaOuScbTp2EmM6hs4hOsYkJTrqY2E6\r\nZJRVOgwWvjqXLY8643F2OqZtdDo0Dh46qK6SOqwRtjrq1FY607uSOomnGTpb5Mg6vPKVOmKV/jr/\r\na546ed2KOmp2pDrl4Gw6ZNaMOpivlDo+g2o6h0ZKOj7dmjr2krU68epROi6vnzpsoI86AMshOlSj\r\npjr9iQw67KmMOsz2kToov6Y6D5CIOkAexzrLYI86cRWKOi/sijpha7g6uoypOnqwCDtHp3A6h+IT\r\nOsz2QDoav0M6jBWHOsN1jTrJGZ46vDI8Ov5NWjowu1c6brq1OpsG8Tpg7mI6LMgDOwx3Lzp8OrI6\r\nXSXnObNKOjo4V4Y6RymkOox9kzrsDDw6UhRYOmj+azpn4y06BN0DOme4Lzq80dM6FEu6OnrzjTpa\r\nnHQ63ryFOpxkojq+a0E6RJgPOlKReDqknq86DD95OrTWsTrwQYs6VkOmOvwa9DpGjbo6cl+5OgYG\r\noDpfxOk6GYWfOokIWDrPfpQ64E/9OVQgoTq4Kgg6PvpyOgUMDDp6FBY6z+6zOuaTbDoHKSY6J7vn\r\nOuDTeTpyUTs62bfKOs7hRjptV586EJmgOmzWWjo1Cfg6OrlnOj8OezrYRXE61BBXOnVDhjoXxWA6\r\n/Sc0OhjlXTovHiI6dWFaOsUIATpVQEs6X1KgOrurlzouXKA6cU6nOjLWmjpwpSo61gAlOsV/FDsy\r\nOoQ6V/mpOl5TZTpA6V06g7J3Oj8w4jk4tog6/Fq3OhkzAjp9Xq86K2m3OmXiDTquPks6Wq5AOt6N\r\ndzojAIY6E4uPOgNoCzuQXP46yqiROmWcFDvnllU67qAaOp7g2zl3iYY6CMjwOoVhnTqKY2467nmN\r\nOgv0tTqbYWA6AHGFOs0BYzpR2KE6vkAwOmgV6DqCpQ4615FGOkoyJDskjhw7asSZOhCRoTqFPVg6\r\nueeXOvZhdzrslYo6c36YOjBlvjpkBg46rzKHOsqIdzrP5IY6Xx1POm/qoDoVQng6G4FBOuQOSzqy\r\nTYU6gwasOi9DvDpdDYU6LtxSOszR2TqSJls6wVVVOnQVgjoBMVQ6khPXOdREujpYSxQ6do0eOl6z\r\nJTt2Qmg6skZKOtj2djoRqmg65K9IOqPykTrJhhQ6+z5mOoPbojl1Uzo6a6CFOttyijqB1Fs6eAj/\r\nORY2DzvuGyc6pq6NOgU+mjqU5xY6NaPHOj58oDpraIA6SPyLOnJ4Qjpz36A6/4d+Ou4IQToNKoM6\r\np8J+Oj6zmTq1PF86fnvzORgQsTpJSJs6xP/DOi7tjzrS+G86vAteOrRPjDo1W2U6zhysOsw0aToH\r\nPnY69DiWOo6RDzpBxD463JoMO/G5zjrGg9A5nbXNOp+/Yzoq95I66TuwOqbiaTqtWH46sJmAOsSB\r\nGDrB9iA6B8EOOoADAzpglm46nK07OlmF3Dq7JEU6UOTuOeTTCTvnfT46LyHCOhPmizrVm4A6RiwW\r\nOhVLFjuQPK06lh1VOswfSzr8qYI6VpYDOrNc1DrIqc06jG1mOnreiTrHsz86irvlOvkNPzpL+y06\r\nEuSCOnAqoDokJB46nIhMOlJ+xDqetT8617lTOjAnpjoYw4A6Hzg4OqS1Nzq+DVg6xnrtOuK1mDqW\r\njgQ65O8zOnZTHDo6gIk6Du6nOmkqODpeYoA6dbZ5OrpzkTpeT3I6CMd8OuCmpTpWnsE64sKEOnlg\r\njTphm9E5rB8nOuzA1zp1r1s6nlChOj+pSjq7Rpw6ZmldOuzAZTqSphg6JFeLOkbbEzvWGaU6n0xc\r\nOiSadzqeCTE6k31cOulqojoaqWk6F0/7OayuojqTgYk66ay3OiWiFzp2H5Y60eOmOlqSDTpWRH46\r\nhL1wOh2RgDp8HQE6O2KHOkLtkTpHYqQ6FYt3OkP9Ijqa8GM6G4QYOmK4cToO9gA7TjOMOvZEkjqq\r\navM5nsovOg+lDDocUyU6qNqMOpMyOjriwJc5NmgUOv7tojk87rI4Vl+FOB0ilTi7td05Y6hpOhNF\r\nADpUMEM4EGCROWbfljk8sDE4cPiiN7tqajgSnkk41+78OA0rZznk2EA5RhaxOJ/BQjbmyHk4C9jK\r\nOQbmQjoOYd05Mgi7OBwf8zhctro4BEqUOKKWVTjNVE45PmUgOdqyRjh5kL432pQ4OIrRljgziV05\r\nYk6rOQohITpITN05SiJVOIS6DTnwnzY56cu/N9SCtzig9LI5ixoEOpx1VjllYJM4sGW5OXphNDmN\r\nuks3M17XN4h1tThhxdM3OmBhOCL6yTmaDjI63hWJOZKN/zgopiA5pMEnORoj2Dm0Nns5XYoFOoc3\r\n2jlsUkY5Cve4Oe+18jd1AiQ3pcwwN5ACKDlSSLk5dqwvOUBaZzkzAoQ5+kx8OeUSmDi+Dhk2GDhg\r\nOEHR2jiV5DM5IUoKOmQorjl41UY4MbPtObP4szm8cNs1A2TANQqCjjhfyiA5vlEeOexN9TgY04M4\r\njSe9OGg6TjjfMZI1VFSiNHqgxTXGiCM1YiX2NHp1SzW1tgc2jnKINcPmvzU2pKw1liD2NMoHQDWQ\r\nUiY14fL5NTL48zU44e40fxWCNaz8FzVPh0o1kBGfNYurmzVzHuc0XWlrNWgRQjVazRE15G3hNIgR\r\nazUyx3w15oWXNerD2DTr5J01RbLGOYj5sjlHi6M5DQwiOlI/hjnWqE849i0GOQgcAzlyplw5YriM\r\nNsFNgjncL286jtJDOsnJjDlgKTY584/ROOXM1TjW0Bs42GrKODldODnkZOg4sz/FN/o6gzg/1PY4\r\nlJ/oOAuwtzmg9aE5HeXJNiz2DDf56S845H2VOWSFyznUt2U5iK4eOoWGBTq+d7k5miuqOTDLDTlf\r\nBTo5TWgBOv4CUjo0Qts5ghWnOJrStjjCJa85ychPOnmexTp7Wjs649VMOeQZgjk6Rt45t1LWORc0\r\n1jncktY5Z2GbOIsM9TeCm+s4HurMOZeKrDlXee04MKCaOAI7jTgMwKU4EMQrOc/yujhslrk0t51E\r\nNRGzRDXVnyQ1+qT6NNMWHzV1dxI15LRtNWXceTWUfNk1RU4CNYLDFjWggxE1FQDyNIYJATUumjc1\r\nnMzVNEENGTVCtoA1vPccNX7YKjVb9i81gHE8NZePGjWCMSE1dCZzNX4/ajUTIgc1nmkxNXiNGTWV\r\noZg16xa1Ncn72jSsrRM165U+NRjxIjWJaQg1Ema9NOVH5jQchEM1WsdYNYWcJzUfsiI1wLgbNeyW\r\nIjW92us0UDTyNAz0RDX7y+c04h0ZNUM6ETWGeVU0PeUKNU9UIzUDuyA1TgDrNOW87TRskBg1Bv0M\r\nNSqZUzUsMvo041T/NOiO1TT3OSI1PBcrNVQyfDWyCCI18j3+NBVQ3jT24yg1bFndNIvyuTTfutE0\r\nGDkQNaE7xzQJQSg1JkczNXwZIzWog0s1EEy1NDBf2DQCcEU1VIIyNZQXDzUVfws1sX4gNcQXdDR2\r\npck0zK7ENCO08TSINsM1l9SANU+gyTS67Lw0WZJoNcYXMzXTEm01fVUDNX1+DDXTLvQ0xbhLNSKn\r\nLzX2Nnc1/wIXNWF4IjUOKRQ1xJf6NDmOCzVXEfE0DVdANVfiWjUtoD01rh42NSB/8TRw32c1ygUp\r\nNaSkNTXh+iI1EH8hNcWCKzU+aWs1xQPeNLd0TTW7x201sM8YNUOdzDQtJF81AEBSNQ==",
                            "noiseTrainingType" : "default"
                          }
                        }
                    ],
                    "start" : 12103,
                    "duration" : 1368,
                    "mediaStart" : 22,
                    "mediaDuration" : 1368,
                    "scalar" : 1,
                    "metadata" : {
                      "WinSubProjectDisplayName" : "",
                      "clipSpeedAttribute" : false
                    },
                    "animationTracks" : {

                    }
                  },
                  {
                    "id" : 61,
                    "_type" : "AMFile",
                    "src" : 11,
                    "trackNumber" : 1,
                    "attributes" : {
                      "ident" : "Aufn. 07-05-19_026",
                      "sampleRate" : 44100,
                      "bitDepth" : 16,
                      "gain" : 0.897368522438832,
                      "mixToMono" : true
                    },
                      "channelNumber" : "0,1",
                    "effects" : [
                        {
                          "effectName" : "NoiseReduction",
                          "category" : "categoryAudioEffects",
                          "parameters" : {
                            "denoiserAmount" : 20.0,
                            "denoiserThreshold" : 0.0,
                            "noiseProfile" : "S9lsQO8JYj8P5pQ+q3PFPemyNj2+pHM8vEK7PR1w4zw0EaI8wqKrPIVlBTzK6OY8vfYGPXDMLzx4\r\nAaU70ZpRO2DBKDtS3Hk7ZqVsO8CsBDuvsQw7qedVO7+FFDuh/PE6kZjWOmzypzoKdCA7iA3DOiyd\r\nhDqOmaw6F14iOgrEdDqm1gc6+ByAOgtahzp+vlQ6mdL8OR+GUTqAoig6b1zEOaaRYzo/w2I5PYNg\r\nOtTzFzps67E5tDv8OdbQIzpMg8w5I1cUOnvWjjls8QA6g8EFOXtdyjmjd6Q5CV+WObAk+zl9Mqc5\r\nTKbWOVUwvznvzdI5RgW/OVYXtTkZkLg5q7d4OWdqVzlwbdc53UZ/OWk3xjmDoSU5pwqIOSwXIDp+\r\nov854FjbOSWywzlzgR45HavWOT772DlAR4A4ILEmOYhTJzltcRA5cFywORcNUTlz0fc4MPImObTt\r\nMTkUVIE5dKP3OOQjFTnGJw85g4moOMpFwTjAFzo5unEROVxwXzlui9I4FIa6OJIzVjludkQ5VgCl\r\nOB15LDqKY4I5o85POW8FMDl6MTI5PZ3hOM3wPjnt/rU452PMOD+PFjmu3rM43kXMOCDKjjjqZPE4\r\nKn/HOEwuCTkiYu44jwizOFF+xThiqPE3c9+JODk7CTgvVCI52opUOMtEgDjPzoU41oaEOGymqjiP\r\n9Qo5VbTmOCDjUzhVbhw4ZjUMOLBqgTgZXFI4VBtFOI7Uujhn9ZY4Siy4ONAuuTi0jsY4FiimOGIy\r\nADmGqjs4/pcaOU3AojgVX8c4EiNVOBxEQjg8mDQ4fe8KOEwLBThgBX44c/WCONMQVjgOLT04p0kH\r\nOL8tZThPK5Q44qdDONF2zTgoEN83BNYeOLJLpjii4s03iQP9NwtfBDiDyQw4g//7N77yGzi/rUg4\r\nbXZeN87gCDi4dSo4fraiN6SCNjjtj5g3NiQqOETHZDfBJTs4FDekODppuzeswCI4rtzMN1hYEDie\r\nAKo3jbzPN3I1BjgeHdQ3gXyaNz7gKzjxvC04wq7uN7mFdzdfERI4pxrWN9ULhTdiJcY3qs8fOPJX\r\nFDgiRMc3+eUbOIgs8jciC3Q3rmJLOMAPpjcG27s3P/a5N1nI2Te43qA3+t8TOAgwaTcsaUE3xPJz\r\nN0DdyjfsY6Y3AS2SN31twDdfTTg4RIpsNyqphDezbfw3KiQ8OAqRdTc7iUQ3Jp1DN2YFJjj1nec3\r\nmFqHN+lZgjcTswQ4fG3qN3L4ADdvQIU3o4KbN1spxTeLYKE3rNPWN0MowDd8odE3THKxN94awDc9\r\nnJc3iEk8N/wDwTd9LyQ3fTAROOLcZThcacM3xmSqN0qYDDd5zAQ4KB2HN7OFwjccOps3F38pNxiQ\r\nCjecboE3BhC3N4Elqjddn6Y3w/HZN6lOhzeVxYQ3QK6ON7IlSjccTng3zjQeOB5agTd6+Is3TdsO\r\nOBIKDze264E3/MJkNyqShjgVt883PDWWN07fHjg3IiY3IKLxN19asTfL0PM2O+MDOLHrRDc2aNg3\r\nXKNBN1FtDjfs90Q3Gh+vNxATPzcUxq43cqByN++Crzc7Pz03zlJeNxMUdDfcHjQ4mKfJN5zmKDgS\r\nFnk21D31Ngp6TjdkMWE3XKEfOMsCRDfQYgQ4PMDBN9L03TY+8M03fIVKN88bsjjz91A4AvRRN6c8\r\nfTexmRE3hvhmNwCdezcikyo3Q9icN17hjzdChdw3xYdhN3wfGTew3ts2sboqNxaVxjc5c0A3mKqp\r\nNl31pTcUgWs3QgFaNzgnWzeg5fk23MDqNjNelzfUwEY3PNc8N8cYsTZB2oI36n9vNyBzMzdtPaA3\r\n7qmwNhiwRDfCkgo3TpjPNttcHzd+Ik03G6WAN2nskjfDs4Q3YXMaNz1vrjYfIAk39JuHN+vL7DYC\r\nQUY3/AGNN2C7Pjd2wUA3DUtPN5+1NTfOb7Y2W++yNh4uSze0ayU3nDaoNrx2ojZsvvk2/KxpNznf\r\nNTfDxCw3Fp2NNlwr6DZ9JDk3gPVUNwVpijcO4aQ2NNPLNgPW1zbtnr8287/INrVASTezWz03Mv5E\r\nN0+r3Tb6chM3FNWwNi578TbvzFM3PMsFN1B+BDfMmbY3sOTeNsbuADdY4wU3rzb/NtJdxTbOHwI3\r\nw8LENw8HJTczpQo3+6b4Nt4xxTawFag3gSTzNghnqTdBwgI3ppc3N3YMxDZIiAg3Fa0LN8H9OzdE\r\nfX024ZWrNs6zqzZw4DY3Q85BNwEOFDftbAQ3qlYPN6U0Kzcg1RQ3EEeXNgl1UTeBA282G4YHN0K9\r\nDzep0yE3Ch6vNjbtGDf2cLM2MsB+NpP7ojY8DKk29BGpNlhbuzbZwws38ginNv99hTY/GOM2xahu\r\nNuZUoTYRjMA2w/4hN2WonjZjv1k2bFeXNqK3pzY5rcI2Et4ZN/h9gjYBToM2OEvXNoB4rjbeabY2\r\nbYvJNot+7DZEhTc3e1P2NkigIjdAx5k23XbZNvDnvTa+Nes2hIXHNlEEijZ7x5Q2pr9EN+4LaDf2\r\nJac2oqGaNgsLiDZu/wI37KNVNpOPADd49jQ3oJGcNsNgWjaXkTY3pBK6NpLoajbEJhw2Nl8WN59h\r\nhzae0I424iGCNhrC7TZUh5Q2qye3NuAlTjac6Uw25JMzNvqLuDaEeZ02HJMFN8BCLTaXKgs2vlp7\r\nNjzGizYc1IU2EewMNjGoCDaYaDk3Nf6jNiitmDauQI42oLCTNp/n0zY91Vg2sBVhNg+5bDYAqJ02\r\nG/giN3/VojZaD6U2xl6SNpWfjjYz44Y26l0qNkLzozb4j/M2Jc4GN6/SeDbwVQk2X+hdNsw8kzYO\r\nRtU2uHLmNqHSVjd+g102YDnsNoaEtDZiFXY2+t/qNunzYzbfD2U2rCRCNxRuXTY+1x82no5sNvgD\r\nJzc2yRk2czHsNuaMlDaD1uU26/+xN7JfTTbCIqs2cNpIN9ae9zUtNog2QQ+ONtWvLzbxVT42OLYX\r\nNiuxITZ3eBE3+Na7NlEdnjbGhDE2YHuANu5dRjeATzg2Sz9vNpDfXDbC1TU2Z6O3NgFpnDb6+A82\r\nACVTNt0LNTbOyWo2u7SONsq1sjYiJCY2qC9kNtBxSTYcY5g2lQFNNohFUzZ1AB420WgyNvabaTac\r\nwRA2HMYhNkJRfjY/cIk2GoE7NtQULDYA+2o2dx4xNkBuCzbK2Ak2nAiINpN1EzYpz4M2HFcUNmIj\r\naDYUBkA21FA1Ng4nHDZCw901IBxMNjDQXTYuCBQ2CGg7Ns8n/DXHv1I2sTqVNoLj4TXBeQo2JtUL\r\nN0m6/jZfbyA30ESfNpCWTzfmUvE2KwnhNb2QXjamWeI21kBjNvWwTjYTiZQ2SvmyNrrgkTbCRmo2\r\n8cCSNmNHGzZObAU2Ahq1Nlw0ozbK0xY2pZ4fNsz9HDYfaZ42JUYUNzQQfjaxBXI2jBUlN3FcEDas\r\nJiI2xKJvNpogUza88a02GIE7NlzJKDaBhM41ugEnNmLGFTZAd9M1PIxzNhJ/ljZRof82DhnoNkZk\r\nuTY6uhs2ioZoNrgHBjY3tgU2H5syNgO4Eza0aQY3GmUhN7Wbvzb8Dwg2Al0qNtg/LDZ6+Qo2OM4m\r\nNrwUNTZwgHw2puBvNkY6Rjaa5FU2aaGzNsy3dTZOtHA2EO4oNn6JZTZcbyU2oM2KNoApLTYwJCA2\r\nbWeONjWxajY04yU2EIs8NtQSHjaeFnc2TsB0Nl8cKTZV8qs2sPEsNitOODY8nTA2Ol+jNlhJBjYS\r\ny0s2gp6KNl10Xzas6HU23ISENjXcFTZrdzo2njBONizUXTd3Ve82CveFNk2tTTZf9nU3kugWN84b\r\nDTZ0P5s28JNFN3GpxTbwNkQ2m6sVN5qoZjc+yEg2i08dNrJ+RzZNypc2otBKNvC+fjYFvxo2KV1T\r\nNq5gCDbWZlY20C/XNf53HjZ0mzo2Pr8LNsNgZTbyg9I2WBYQNn6abTbq/IU24pFZNs0OGjZiwwQ3\r\n8foRNjPKNTYa1vw1sBtJNlZaNTb65UU2q9UgNp45eDY2iRU2KBTHNkQiXjbYw/U2IEoNNh62PTZ4\r\nXpM2jGeiNie9RDY0MTk2XoVANrfN2DWpPtA1jUzUNebXwDbIyUY2l+fTNvYMDDepT7s26Bm6NgYM\r\n5zVCk/M1SFukNVqnMjaSKU02gKdwNqWXrzV7ZQo2J1wwNlUMETauNpM1Qz35NeIxGjZPmkI2dhwc\r\nNpjV1zVYolE2z3cxNu6H+jV0D0s2t7akNeRvLTZkICY2o6HuNRDLuDWWPIA1ms4RNriFxjUQYQA2\r\nS2iaNWeuAjZsv1Y2B2krNueDmDbYh3k2T0guNlDrGTaTyT42eZIJNqvojjZX8Ac2SeC1Njw4NTZQ\r\n6Y81bDt0Nv5OYjZ77cI2DnV+NgGX8zWwnZE2o+8tNhR0HDax1xo3XjyENqfA8DVG5hY27BwjNvRe\r\nHjaWnfY17oklNtxOkTYYCFc27oPoNocxODaBZ4M1YbHwNcw3njVMbMA1S5oFNgc0EzaYun01xH7/\r\nNU8A4zXBmBs2PBYHNpnmuzUsy6w1/tTNNf7orzWGY/41N5t3NX/eGjak2Qw2vc4RNpynATZRNE42\r\nTZ8BNlY35TUdvt418VAwNijIxzX5+PI1EFIPNhWQCTaU/Cs2wraBNaI44zUqLiA2RCvMNVdbdTVl\r\nNdU1VQC+NWdYDjYz+Bc24eeyNWS18TUkz/M1DMhdNkytFjbWBr81HCEINlbIhzXxgZQ23acvNkJ3\r\nhzWGXnk1yqTYNRYOmjXH2qA1yfi8NSFAwzXZsrE1PNDANQQMBDbbrdY1GxO5NcN9jTUci8I1yXQE\r\nNm0QpTaks5I2oYHyNTLlkDYu8EQ2nBCiNhNPXDdibW0265YIN19xIjb6Lss2B4N6NjsGgzbwLOo1\r\nVjpUNiYWWjaU3AA2G3S5NhHlljWSqoM2DiF1NtBMujU9/hI2KzmJNsrPZTbwRXM2JHSNNkFsmzWY\r\nSRk2jmazNaSmnDW42R829KvtNQtgqjVbQIM1L0PmNdi8zzU00LQ1m1WENe8APzadmyo2VK81Nqai\r\n8TU137U13tUBNkTw2DXLy082k7ASNkdWAjZBIvQ1waAlNo27ujV4Jqg1ql8wNjRNxTX8W8o1NTfx\r\nNX+TGDY+1Ro2+nQqNt6C/DX2qbU1DGi8NfvouTU51+k107G7Nez9QDZ09C02m/0ZNru89jUVIsc1\r\nBekRNpBKFjaJXi82KOiHNSZnsDX8v/U1WjyLNaBEEDaAHQA256L8NSc6vTXZ98M1wFYVNsnGBjb6\r\nnOU149w4NRtX3DU8jQA20waZNWdDFTZt0Ns1R4ANNgyd7DWFfog1acLXNeotpDXLq6013C8CNrF7\r\n/DVWhxg2Ukq9NUyepjWdU+I1ZDvSNdSTvjUrMws2NuPHNWhZbTVWTcA1T+wqNreulDV2Hhk2ETgx\r\nNoRnwzUGpYw1SIEANuWg3zVrGU82HEDSNfyMGjaYKew1N4IaNuP2/zXeOuI1CYfeNQCAtDWCY6Y8\r\nZ9a3OufTMTvelkw6FuCIOuz8Ujrhi5w652DAOtq7oDpbXuc6HI7POr4kijoS48c6M2WDOh9cBTsA\r\ntUo637/vOkE4HjuPlYQ6FrKWOiC1MjrkWlA60efwOphczDrJC4A63OOTOsh9cjof2446bbCCOp+h\r\ndDoRVI0632ufOqI7uDrCg+462CdaOmaa8Do8XXQ6IE6rOks7kzrKqxU6fJ6sOls6gDre6Z06zW7A\r\nOmm1ATs1yuQ6bCIjOux9qjoeeMQ6M/GnOhJESjr0K6Q6yeFiOgOnyzqz65U6gb8eOgCRQToAnsY6\r\nIcExOsW6gzqiVtI6aogkOogb0TqYzIQ6uFl2OuCFkzpoU3Y6Ts5uOoCzzzpGUYc6Y2eWOi2lNzo0\r\nklQ6GmZvOneZfTrGOj86C1WoOk3XzDrpv4k6av68OmIVFjrkzoI6uIJjOrtocToydOI6okkCO8Ps\r\nkTpg2IQ6IT4GOrZagDq2UWo6G+u2Oh4tfTrygKc6ZVTFOu05KTthi4s6CDq6OiTPPTqWacM6wElr\r\nOh94Bjub9Zw6SgSBOuihsTrBWUU63s32Oto+1TouiU46LMSoOvftTzovzAQ7w8rjOpqQgzoZAzw6\r\nK/2aOizdczrkV4I6Bb+XOvVAzToX6q46XF2hOssLATufib464LAOOgxRSjo7O586iD1AOvvt1jq+\r\nr7Y61vuCOjOLbjq+IZo6z8wfOuZ9jzq5U4c61kKROq1e0zoXNZs6r9wCO3urgjp1sTA65Li3OsXj\r\nYjrnJNQ6jE1HOk2xkjoIgPw6wSd8OgBiWjrIQXs6fJeSOuCgpjrlSKc6gnylOv2oQzql3986ovrQ\r\nOWepyTp+nbE6gI1MOoIbwToDD2E6slTSOtsvxjr/1nU6phxXOhtMjTpEmMI6aopTOvb2hTpIWLk6\r\nFge3OkijLzruqro6J7vMOnExfjrcDls6ConROgWyQTrepZU6D/GxOpoQgDo5IWQ6NPrtOo53/zqd\r\n9pE6+sPzOu7WiDq0BK06yqSMOqxIbTqxMmY6hAmlOnoZUzow1tE6hb2DOjFkfjq9F6A6qtunOsxq\r\njDqV2ok6lVm6OtHmhDohiV060BlMOo1JRDoa+yY6BF5VOgOgVzpz0z46BdFNOhjh5znq5046o86/\r\nOq5/rzpegEs6svh2OgwNlDquL4Q6eXmBOokKqTrOsmE6YUiIOoYWRDoP3pQ6QAF+OgFHizqrxZk6\r\nHs3wOsASZDqF87M6/41ROkcUSDrWxJQ6aheKOlCJmjpVueI6xHybOtpPITpMY3U6bNL5Ono9ATqd\r\n8go7bGXxOtLxQzpiaRU61tB0OjX6oDq8UyM7dJqYOimePDqUYXs6Y/17OrSJbjq3D2Y6UuWyOuId\r\nKzoInkM6phGGOuAfgzrmfAo7CkVgOr7bxDqa3s86CAdiOosBYDrtLeY6lpj/OjgptjqC56E6Uopv\r\nOhBBSzoDej86EFEIO/pevjoOYn86Wz7OOoo2Qjo0TAs6W05UOqcAYTpvcII6BKSqOqw2yTqYl+U6\r\nHOIIOhtynDprPxc6/1uXOjeJuzqkUF06nmbSOlDRpzpCejA6ZN6uOgjTTDrSfVs6MZWuOvsxKDoP\r\nbwg7T2GaOmpryDrIviw63HaQOs1uWjqxHg86SugEOjS+KTpwBGM6Js4pOq1bejrC8VQ6D4hKOuTM\r\nlTr3Nic6RJdkOulrxjrrQps6h4j6OQw31DosJk46it0DO+RSDzvwpg46E4OYOg8hEDvWsrw6j1qZ\r\nOkzLkTqhMkk6YI9QOr5DDzsBs7o6BEOIOv3nyDoTEM86//pvOmjzoDpzhKQ6Ab19Oj9K3TpX4U06\r\nKGYsOujaMzpxlyE68OK1OgLVNzppp7U6BlCdOsIrAjseQFM6d2i2Oml9qDp7mZk6/Y2EOlkZnTrW\r\nC5c6YiRdOtJ7jDrZuYU61rurOvYLFTq7RaY6at8ZOjCJBToMND86+gq5OrNgsTrt3Ho6s1BPOj6s\r\nXDvw+V865EEhOjnmPjrO1oY6f2mJOixxxDqYrzA6N4NZOvOSQzr/Jpc6jD2AOjZMajq4P8c6eFMF\r\nOsXBrTpmfSI6xB2BOto6jjqc8L06p+1bOmx6QDplnJk6/mZqOvdMHTqacPE5xjixOgjrjzpFw4Q6\r\nqvZ/Ojo6hzpOiYM6v+JPOvkrsToBREM6Ipk8OuAEATpn+o46BKPUOpNumDo5X+c6kFmUOp0f8Drb\r\nH446wIB4OpzJCjpzZZg6uJlpOhAJUDqYRYE63Y1oOkGBwDox75E6F6QhOvs+fDqkwlY69GwrOsU6\r\nJTtt8mI6wdOTOhSvJTpiIm06bbsSOrvQizpWsFM6LYAwOiSsNzqR5jY6FE6eOnOxuzr8W5g6l4K+\r\nOs+5qjpUezs6b9TtOvmudjrjnY06bpwFOy/ilTpZlK86NvufOq/eKDrCwew53PJOOrxoqTp1Xok6\r\noDkoOrdIsDom4uc5IM3oOYpGiDoAD6062JEOO6CCYjo5Qv46EgmpOpdAozpyrws7F2ojOqNMPDoI\r\noxg7TOuIOhyOGTolLXo6XwfaOho6VDrHQFs6+DxaOr4bgToi2d06d7hQOluenToSeVY6rlVvOsqP\r\nUDownMA6WCOuOlv3ATq4jk86OjyvOmmthzru8Iw6J3KYOnh3bTpldxQ68ipFOpIJlzqM8As7/EW8\r\nOpKIzTqVjec6k8DiOrWSqzqAqu86fJ6TOhbvojrUM0Y6bBvmOSE1OTq73i06eJpdOhDTYDoO74c6\r\nQHF1OjYsFjrRNEU6igj1OQhfkjpGR1s6opWJOt69kzqRyi06FwIVOrGn2jqmJ1I6mFNNOoo9FTp3\r\neJ463OgBOrO/jjrRAYQ65leBOiq6QDoLiBg6g/iYOqGQkjoCNFU6GtxvOl+gTDrNFSc6DWcIOhL6\r\nJDpwhjI6rCCsOnhCXDqR9Fo6s3+uOuO7ljrnc2c6lXs6OglTaTqHL4862MkKO/SwOTqE3E46ENZJ\r\nOmfvRDqBZHQ6eLOzOv7uRjrmPZ06UkhiOgBuBDpf0So6BrbtOaYkpjpQG9Q5YKf+OmzgAjoPf4U6\r\nQXhUOv1Objqwifc6rNSNOvu8nzq6m286TEEBOloVOjqG0JQ63NuwOsTDMDqhQhE6GHU0Onk1oTon\r\nboA6zK98OhU+pzpEzUQ6ZME6OhM2ezqFHro6j9v0OSC6mDpg1GY6/lnSOr4PKToQFNs6QO5TOhIQ\r\nNzrmYD46Pn0KOkprRjpUWlI6BfWAOs2MEDvY7886pOi5OmSuiDpsSY86iwIvOmaNejqzl3w6UrmT\r\nOoZYSTpTLIQ6m4eNOjceBzpqTq86gZuTOstukzp3qp86LldGOqAGgjpQPxQ6hhQKOjTckzoktrM5\r\nW2ZZOuvqkDqGfKY6SNBZOpHtBzq74FY6mu6MOpjHTzpmf1s6HVTIOmQejDpepFc6NQNZOoAOgjrB\r\n0FA6RsmlOr6VDTqzc3w66gWHOiPWBTrPWbE6fIiOOox6Bzo6wos6LXB9OqlNijqqbvA6FnBXOpBx\r\nlDpbJZE64v9XOujRFDu+eqM6+it9OhyUUzroTrU6MZHTOjj2LTqOvGQ67/InOgz8ZjoWk7I6jM2b\r\nOmYXYjokgd85EO1BOky4iDqsyaI6IIiSOjLvhTreMhw7grd5OvaS0TkfyN05c/z4OfkZfjoVEoI6\r\nYi+lOqSCSDovf0A6kkWhOk6zXDosP3M6JIoXOitFTTpr1sY6q7jiOnHamzql+ok6Wi9HOlyLhTqs\r\n/oU61OFYOrXuWjpArJc6CNBaOq6OrjqtbWA4GiupODJS6zeEj/Y2PJfsNxNNujicLQk5uyqdOSY8\r\nRjnTe9Y5q1dnOq5EKTpkDpU68A6IOoguhjk4aHM4iExPOKvFSzmQjrE5kD8YOeTQYziSHy45Nm+b\r\nOC0Y+DiOJRs5kTtDOGRJ8TevzoA5p0BCOkjI6zmmMg05hOM/ObP5jDmezSY6fdT+OSNp5zghMg85\r\nXQc3OLVrjjgAJg46LMZCOkiWqTnLyAA5gEuJOFIxJDl6gAo5vlzUOYxNHTrLWJI5XkqDOZnaNTlS\r\nTW84Yf+tN+RFBDjT6G43g23HN16lRTlp7bo5/IGwOAd6cjjCmDw5S/S5OT2Pxzlf+WE5GV7mNena\r\nXjbnMhs20cPuNa+NEzYX8/c1CyxUNYrGRTZ5ZvI1NvH9NfLZ6jWyYOA1mbyHNSxmnzWENXs1MtMI\r\nNuySrDUC33c1ojiaNaF0iDVgOGk19yvGNV3RpDU7AZs1ukxiNWQxRDVxh4I1DCypNYILrTUloIs1\r\nZwR5NQEq+jgOeO84Ylt6OFsA+zjuChM5Arw5OH5+1jiD0yU5aYp1N9QKxzhPKdk43g+kOahehjmY\r\nbDQ6CkHOOgN4izooYG04F5/nOIeymTlcFUo51HhqOcVaBTrstIg5xCc7OODPoTiuinc4Z6wwOD7P\r\nOjpO7gw6C3ylN/jEXTlPnPg40nP9NeGDcTXQyDk1ef0aNZOIlDXgQh01+qqLNSRKxTQL0D01frcE\r\nNTYJcTWsIDM1cArDNRn1BTWyWOo0Urt6Nbg6UDX1sl01ZC1DNfAIODXhC4A1uqmENRNCHTX1fhI1\r\nRLEPNQQ9ZDWU2BI1i8oXNarvOjWpnR41nYaiNRXITzUR8gQ1d0tWNWK2ejV6Aak0jkizNM575TRr\r\nQs813ZB7Nd1smzVl1V01Slo9NYsedzWJU201gl4vNSXqgTUVph81eRUHNT2s6zTBveE121W6NY1L\r\nozX04yo1kIriNbX+gjVErRQ1l28TNVBP+jXQ50g1DVqKNScDujVmUXA1kXatNX76djnw+CE6iaH6\r\nOQb1sjjE8nw5Y88OOv9H4TmGezw6OTlkOhWaiTlYQJ45lVleOeh/ezkMsRY5MgGEOGc10DfJ9Zk4\r\ntoqnOAjJZzinZcA4bWjDOBCnBDgM2Zs3mICDOMpcvTgHaOM4wG7xN5+SVjjIowE4zs+EOPgzFziJ\r\nWK80ZGZnNRUUJDVZ2yY11gBlNfeOcjXxjfo0uTGHNZkzATVddwk1bwmuNbRgWTW/aEc1Q+dhNf4O\r\nnTUUsRo1nuBfNfuhJDVF07I1OSs2NSCmtTVMmbc1A5iKNUbNujXjzo01xt9lNYIOMjXVTes0lLAf\r\nNZ3UEzWuJH81QbesNUlufDWE+Es1nTKMNdRiBjWLvUU10lgFNtcyHDXGOX81Jdx4NcXgTTUz2IE1\r\n2e6GNZHjUDXuP2013ewaNcuznjXI4Fc1gAk3NSiMSzX6YUQ1OMk9NS6W/TR9Bks1hhYgNYfLSTUg\r\nb6o1LnxWNZrIQTV28Ys1JbthNUOjQTXVtT41iWAGNbB/RjXAIo01sPNaNakKVzUkOks1ppsUNcSr\r\nSTWOZx41Mk7iNN2uNjXNhu006OgUNR72mDWsKIA1AKwiNUue+DSZojQ1+j+ZNRJtKjUs8lA18H/X\r\nNAQ7HzUuXho1aSkJNTdqIzWeKyE1oJjNNZO9KjWxIWI1XzO2NfnhFzWNI5k0ABAKNg==",
                            "noiseTrainingType" : "default"
                          }
                        }
                    ],
                    "start" : 13471,
                    "duration" : 609,
                    "mediaStart" : 68,
                    "mediaDuration" : 609,
                    "scalar" : 1,
                    "metadata" : {
                      "WinSubProjectDisplayName" : "",
                      "clipSpeedAttribute" : false
                    },
                    "animationTracks" : {

                    }
                  }
                ]
              },
              {
                "trackIndex" : 2,
                "medias" : [
                  {
                    "id" : 62,
                    "_type" : "UnifiedMedia",
                    "video" : 
                        {
                          "id" : 63,
                          "_type" : "ScreenVMFile",
                          "src" : 12,
                          "trackNumber" : 0,
                          "attributes" : {
                            "ident" : "Aufn. 07-12-19_001"
                          },
                          "parameters" : {
                            "cursorScale" : {
                              "type" : "double",
                              "defaultValue" : 1.0,
                              "interp" : "linr"
                            },
                            "cursorOpacity" : {
                              "type" : "double",
                              "defaultValue" : 1.0,
                              "interp" : "linr"
                            }
                          },
                          "effects" : [

                          ],
                          "start" : 0,
                          "duration" : 285,
                          "mediaStart" : 589,
                          "mediaDuration" : 285,
                          "scalar" : 1,
                          "animationTracks" : {

                          }
                        },
                    "audio" : 
                        {
                          "id" : 64,
                          "_type" : "AMFile",
                          "src" : 12,
                          "trackNumber" : 2,
                          "attributes" : {
                            "ident" : "",
                            "sampleRate" : 44100,
                            "bitDepth" : 16,
                            "gain" : 1.0,
                            "mixToMono" : false
                          },
                            "channelNumber" : "0,1",
                          "effects" : [

                          ],
                          "start" : 0,
                          "duration" : 285,
                          "mediaStart" : 589,
                          "mediaDuration" : 285,
                          "scalar" : 1,
                          "animationTracks" : {

                          }
                        }
,
                    "start" : 0,
                    "duration" : 285,
                    "mediaStart" : 0,
                    "mediaDuration" : 874,
                    "scalar" : 1,
                    "metadata" : {
                      "AutoAppliedSmartFocus" : "False",
                      "WinSubProjectDisplayName" : "",
                      "clipSpeedAttribute" : false
                    }
                  }
                ],
                "transitions" : [
                  {
                    "name" : "Fade",
                    "duration" : 30,
                    "trivial" : false,
                    "useAudioPreRoll" : true,
                    "useVisualPreRoll" : true,
                    "leftMedia" : 62
                  }
                ]
              },
              {
                "trackIndex" : 3,
                "medias" : [
                ]
              },
              {
                "trackIndex" : 4,
                "medias" : [
                ]
              },
              {
                "trackIndex" : 5,
                "medias" : [
                ]
              },
              {
                "trackIndex" : 6,
                "medias" : [
                ]
              },
              {
                "trackIndex" : 7,
                "medias" : [
                ]
              }
            ]
          }
        }
      ]
    },
    "trackAttributes" : [
      {
        "ident" : "",
        "audioMuted" : false,
        "videoHidden" : false,
        "magnetic" : false,
        "metadata" : {
          "IsLocked" : "False",
          "WinTrackHeight" : "56"
        }
      },
      {
        "ident" : "",
        "audioMuted" : false,
        "videoHidden" : false,
        "magnetic" : false,
        "metadata" : {
          "IsLocked" : "False",
          "WinTrackHeight" : "56"
        }
      },
      {
        "ident" : "",
        "audioMuted" : false,
        "videoHidden" : false,
        "magnetic" : false,
        "metadata" : {
          "IsLocked" : "False",
          "WinTrackHeight" : "56"
        }
      },
      {
        "ident" : "",
        "audioMuted" : false,
        "videoHidden" : false,
        "magnetic" : false,
        "metadata" : {
          "IsLocked" : "False",
          "WinTrackHeight" : "56"
        }
      },
      {
        "ident" : "",
        "audioMuted" : false,
        "videoHidden" : false,
        "magnetic" : false,
        "metadata" : {
          "IsLocked" : "False",
          "WinTrackHeight" : "56"
        }
      },
      {
        "ident" : "",
        "audioMuted" : false,
        "videoHidden" : false,
        "magnetic" : false,
        "metadata" : {
          "IsLocked" : "False",
          "WinTrackHeight" : "56"
        }
      },
      {
        "ident" : "",
        "audioMuted" : false,
        "videoHidden" : false,
        "magnetic" : false,
        "metadata" : {
          "IsLocked" : "False",
          "WinTrackHeight" : "56"
        }
      },
      {
        "ident" : "",
        "audioMuted" : false,
        "videoHidden" : false,
        "magnetic" : false,
        "metadata" : {
          "IsLocked" : "False",
          "WinTrackHeight" : "56"
        }
      }
    ],
    "captionAttributes" : {
      "enabled" : true,
      "fontName" : "Arial",
      "fontSize" : 64,
      "backgroundColor" : [ 0, 0, 0, 191],
      "foregroundColor" : [ 255, 255, 255, 255],
      "lang" : "en",
      "alignment" : 0,
      "defaultFontSize" : true,
      "opacity" : 0.5,
      "backgroundEnabled" : true,
      "backgroundOnlyAroundText" : true
    },
    "backgroundColor" : [ 0, 0, 0, 255]
  },
  "metadata" : {
    "AutoSaveFile" : "",
    "CanvasZoom" : 39,
    "Date" : "05.07.2019 03:56:21 ",
    "IsAutoSave" : "0",
    "Language" : "DEU",
    "ProfileName" : "",
    "ProjectDimensionsChanged" : "1",
    "Title" : "firstRepo",
    "audioNarrationNotes" : "",
    "calloutStyle" : "Basic",
    "canvasDetached" : "False",
    "canvasPositionHeight" : "0",
    "canvasPositionLeft" : "0",
    "canvasPositionTop" : "0",
    "canvasPositionWidth" : "0"
  },
  "audioFormatSampleRate" : 44100
,
  "themeFile" : null

}
